SplineFontDB: 3.0
FontName: Sansita-ExtraBold
FullName: Sansita-ExtraBold
FamilyName: Sansita
Weight: ExtraBold
Copyright: Copyright (c) 2011-2013, Omnibus-Type (www.omnibus-type.com omnibus.type@gmail.com) with Reserved Font Name 'Sansita'
Version: 001.004
ItalicAngle: 0
UnderlinePosition: -102.4
UnderlineWidth: 102.4
Ascent: 1638
Descent: 410
sfntRevision: 0x00010106
LayerCount: 2
Layer: 0 1 "Back"  1
Layer: 1 1 "Fore"  0
XUID: [1021 809 -2065993493 584728]
FSType: 8
OS2Version: 3
OS2_WeightWidthSlopeOnly: 0
OS2_UseTypoMetrics: 1
CreationTime: 1387883376
ModificationTime: 1388173214
PfmFamily: 81
TTFWeight: 800
TTFWidth: 5
LineGap: 0
VLineGap: 0
Panose: 0 0 9 0 0 0 0 0 0 0
OS2TypoAscent: 1434
OS2TypoAOffset: 0
OS2TypoDescent: -369
OS2TypoDOffset: 0
OS2TypoLinegap: 655
OS2WinAscent: 2089
OS2WinAOffset: 0
OS2WinDescent: 369
OS2WinDOffset: 0
HheadAscent: 2089
HheadAOffset: 0
HheadDescent: -369
HheadDOffset: 0
OS2SubXSize: 1331
OS2SubYSize: 1229
OS2SubXOff: 0
OS2SubYOff: 154
OS2SupXSize: 1331
OS2SupYSize: 1229
OS2SupXOff: 0
OS2SupYOff: 717
OS2StrikeYSize: 102
OS2StrikeYPos: 627
OS2Vendor: 'UKWN'
OS2CodePages: 20000093.00000000
OS2UnicodeRanges: 00000007.00000000.00000000.00000000
Lookup: 1 0 0 "'aalt' Access All Alternates lookup 0"  {"'aalt' Access All Alternates lookup 0 subtable"  } ['aalt' ('DFLT' <'dflt' > 'grek' <'dflt' > 'latn' <'AZE ' 'CAT ' 'CRT ' 'ESP ' 'KAZ ' 'MOL ' 'NLD ' 'PLK ' 'ROM ' 'TAT ' 'TRK ' 'dflt' > ) ]
Lookup: 3 0 0 "'aalt' Access All Alternates lookup 1"  {"'aalt' Access All Alternates lookup 1 subtable"  } ['aalt' ('DFLT' <'dflt' > 'grek' <'dflt' > 'latn' <'AZE ' 'CAT ' 'CRT ' 'ESP ' 'KAZ ' 'MOL ' 'NLD ' 'PLK ' 'ROM ' 'TAT ' 'TRK ' 'dflt' > ) ]

StartChar: .notdef
Encoding: 65536 -1 0
Width: 1052
Flags: MW
HStem: 0 102<176 872 176 1036> 1331 102<174 870 174 174>
VStem: 12 100<195 195 195 1239> 932 104<195 1239 1239 1239>
LayerCount: 2
Fore
SplineSet
872 102 m 1,0,-1
 522 625 l 1,1,-1
 176 102 l 1,2,-1
 872 102 l 1,0,-1
932 195 m 1,3,-1
 932 1239 l 1,4,-1
 586 717 l 1,5,-1
 932 195 l 1,3,-1
113 195 m 1,6,-1
 463 717 l 1,7,-1
 113 1239 l 1,8,-1
 113 195 l 1,6,-1
870 1331 m 1,9,-1
 174 1331 l 1,10,-1
 524 809 l 1,11,-1
 870 1331 l 1,9,-1
12 1434 m 1,12,-1
 1036 1434 l 1,13,-1
 1036 0 l 1,14,-1
 12 0 l 1,15,-1
 12 1434 l 1,12,-1
EndSplineSet
Validated: 1
EndChar

StartChar: A
Encoding: 65 65 1
Width: 1208
Flags: MW
HStem: 324 172<365 643 365 682 326 643> 1102 250<502 502> 1311 41G<354 864 864 864>
VStem: -14 1221<0 0>
LayerCount: 2
Fore
SplineSet
643 496 m 1,0,-1
 502 1102 l 1,1,-1
 365 496 l 1,2,-1
 643 496 l 1,0,-1
1206 0 m 1,3,-1
 758 0 l 1,4,-1
 682 324 l 1,5,-1
 326 324 l 1,6,-1
 252 0 l 1,7,-1
 -14 0 l 1,8,-1
 354 1352 l 1,9,-1
 864 1352 l 1,10,-1
 1206 0 l 1,3,-1
EndSplineSet
Validated: 8388609
Substitution2: "Single Substitution lookup 21 subtable" ordfeminine
Substitution2: "'aalt' Access All Alternates lookup 0 subtable" ordfeminine
Position2: "'cpsp' Capital Spacing lookup 3 subtable" dx=10 dy=0 dh=20 dv=0
EndChar

StartChar: Aacute
Encoding: 193 193 2
Width: 1208
Flags: MW
HStem: 324 172<365 643 365 682 326 643> 1102 250<502 502> 1311 41G<354 864 864 864>
VStem: -14 1221<0 0>
LayerCount: 2
Fore
SplineSet
502 1102 m 1,0,-1
 365 496 l 1,1,-1
 643 496 l 1,2,-1
 502 1102 l 1,0,-1
758 0 m 1,3,-1
 682 324 l 1,4,-1
 326 324 l 1,5,-1
 252 0 l 1,6,-1
 -14 0 l 1,7,-1
 354 1352 l 1,8,-1
 864 1352 l 1,9,-1
 1206 0 l 1,10,-1
 758 0 l 1,3,-1
897 1806 m 1,11,12
 931 1777 931 1777 953 1736 c 128,-1,13
 975 1695 975 1695 975 1655 c 0,14,15
 975 1629 975 1629 965.5 1608 c 128,-1,16
 956 1587 956 1587 944 1573.5 c 128,-1,17
 932 1560 932 1560 907.5 1549 c 128,-1,18
 883 1538 883 1538 865.5 1532.5 c 128,-1,19
 848 1527 848 1527 815 1522.5 c 128,-1,20
 782 1518 782 1518 766 1516.5 c 128,-1,21
 750 1515 750 1515 715 1513 c 2,22,-1
 416 1493 l 1,23,-1
 391 1597 l 1,24,-1
 897 1806 l 1,11,12
EndSplineSet
Validated: 8388609
Position2: "'cpsp' Capital Spacing lookup 3 subtable" dx=10 dy=0 dh=20 dv=0
EndChar

StartChar: Abreve
Encoding: 258 258 3
Width: 1208
Flags: MW
HStem: 324 172<365 643 365 682 326 643> 1102 250<502 502> 1311 41G<354 864 864 864> 1475 106<566 666 566 763>
VStem: 213 299<1675 1701 1660 1755> 705 301<1714 1755>
LayerCount: 2
Fore
SplineSet
502 1102 m 1,0,-1
 365 496 l 1,1,-1
 643 496 l 1,2,-1
 502 1102 l 1,0,-1
758 0 m 1,3,-1
 682 324 l 1,4,-1
 326 324 l 1,5,-1
 252 0 l 1,6,-1
 -14 0 l 1,7,-1
 354 1352 l 1,8,-1
 864 1352 l 1,9,-1
 1206 0 l 1,10,-1
 758 0 l 1,3,-1
1006 1755 m 1,11,12
 1006 1705 1006 1705 994.5 1664.5 c 128,-1,13
 983 1624 983 1624 954.5 1588 c 128,-1,14
 926 1552 926 1552 881.5 1527.5 c 128,-1,15
 837 1503 837 1503 768 1489 c 128,-1,16
 699 1475 699 1475 608 1475 c 0,17,18
 496 1475 496 1475 416.5 1495.5 c 128,-1,19
 337 1516 337 1516 294 1555.5 c 128,-1,20
 251 1595 251 1595 232 1643.5 c 128,-1,21
 213 1692 213 1692 213 1755 c 1,22,-1
 514 1755 l 1,23,24
 514 1744 514 1744 513 1723 c 128,-1,25
 512 1702 512 1702 512 1690 c 0,26,27
 512 1638 512 1638 531 1609.5 c 128,-1,28
 550 1581 550 1581 608 1581 c 0,29,30
 667 1581 667 1581 687 1611.5 c 128,-1,31
 707 1642 707 1642 707 1696 c 0,32,33
 707 1706 707 1706 706 1725.5 c 128,-1,34
 705 1745 705 1745 705 1755 c 1,35,-1
 1006 1755 l 1,11,12
EndSplineSet
Validated: 8388609
Position2: "'cpsp' Capital Spacing lookup 3 subtable" dx=10 dy=0 dh=20 dv=0
EndChar

StartChar: Acircumflex
Encoding: 194 194 4
Width: 1208
Flags: MW
HStem: 324 172<365 643 365 682 326 643> 1102 250<502 502> 1311 41G<354 864 864 864>
VStem: -14 1221<0 0>
LayerCount: 2
Fore
SplineSet
502 1102 m 1,0,-1
 365 496 l 1,1,-1
 643 496 l 1,2,-1
 502 1102 l 1,0,-1
758 0 m 1,3,-1
 682 324 l 1,4,-1
 326 324 l 1,5,-1
 252 0 l 1,6,-1
 -14 0 l 1,7,-1
 354 1352 l 1,8,-1
 864 1352 l 1,9,-1
 1206 0 l 1,10,-1
 758 0 l 1,3,-1
248 1536 m 1,11,-1
 559 1772 l 1,12,-1
 647 1772 l 1,13,-1
 963 1536 l 1,14,-1
 883 1440 l 1,15,-1
 606 1544 l 1,16,-1
 328 1440 l 1,17,-1
 248 1536 l 1,11,-1
EndSplineSet
Validated: 8388609
Position2: "'cpsp' Capital Spacing lookup 3 subtable" dx=10 dy=0 dh=20 dv=0
EndChar

StartChar: Adieresis
Encoding: 196 196 5
Width: 1208
Flags: MW
HStem: 324 172<365 643 365 682 326 643> 1102 250<502 502> 1311 41G<354 864 864 864> 1456 328<309 429 780 900>
VStem: -14 1221<0 0> 145 444<1566 1670> 616 444<1566 1670>
LayerCount: 2
Fore
SplineSet
502 1102 m 1,0,-1
 365 496 l 1,1,-1
 643 496 l 1,2,-1
 502 1102 l 1,0,-1
758 0 m 1,3,-1
 682 324 l 1,4,-1
 326 324 l 1,5,-1
 252 0 l 1,6,-1
 -14 0 l 1,7,-1
 354 1352 l 1,8,-1
 864 1352 l 1,9,-1
 1206 0 l 1,10,-1
 758 0 l 1,3,-1
844 1784 m 0,11,12
 942 1784 942 1784 1001.5 1740.5 c 128,-1,13
 1061 1697 1061 1697 1061 1620 c 0,14,15
 1061 1541 1061 1541 999 1498.5 c 128,-1,16
 937 1456 937 1456 836 1456 c 0,17,18
 738 1456 738 1456 677 1498 c 128,-1,19
 616 1540 616 1540 616 1616 c 0,20,21
 616 1695 616 1695 680.5 1739.5 c 128,-1,22
 745 1784 745 1784 844 1784 c 0,11,12
373 1784 m 0,23,24
 471 1784 471 1784 530.5 1740.5 c 128,-1,25
 590 1697 590 1697 590 1620 c 0,26,27
 590 1541 590 1541 528 1498.5 c 128,-1,28
 466 1456 466 1456 365 1456 c 0,29,30
 267 1456 267 1456 206 1498 c 128,-1,31
 145 1540 145 1540 145 1616 c 0,32,33
 145 1695 145 1695 209.5 1739.5 c 128,-1,34
 274 1784 274 1784 373 1784 c 0,23,24
EndSplineSet
Validated: 8388609
Position2: "'cpsp' Capital Spacing lookup 3 subtable" dx=10 dy=0 dh=20 dv=0
EndChar

StartChar: Agrave
Encoding: 192 192 6
Width: 1208
Flags: MW
HStem: 324 172<365 643 365 682 326 643> 1102 250<502 502> 1311 41G<354 864 864 864>
VStem: -14 1221<0 0>
LayerCount: 2
Fore
SplineSet
502 1102 m 1,0,-1
 365 496 l 1,1,-1
 643 496 l 1,2,-1
 502 1102 l 1,0,-1
758 0 m 1,3,-1
 682 324 l 1,4,-1
 326 324 l 1,5,-1
 252 0 l 1,6,-1
 -14 0 l 1,7,-1
 354 1352 l 1,8,-1
 864 1352 l 1,9,-1
 1206 0 l 1,10,-1
 758 0 l 1,3,-1
502 1516 m 2,11,12
 466 1519 466 1519 451 1520 c 128,-1,13
 436 1521 436 1521 402 1525.5 c 128,-1,14
 368 1530 368 1530 351.5 1535.5 c 128,-1,15
 335 1541 335 1541 310 1551.5 c 128,-1,16
 285 1562 285 1562 273 1575.5 c 128,-1,17
 261 1589 261 1589 251.5 1610 c 128,-1,18
 242 1631 242 1631 242 1657 c 0,19,20
 242 1697 242 1697 263.5 1738 c 128,-1,21
 285 1779 285 1779 319 1808 c 1,22,-1
 825 1599 l 1,23,-1
 801 1495 l 1,24,-1
 502 1516 l 2,11,12
EndSplineSet
Validated: 8388609
Position2: "'cpsp' Capital Spacing lookup 3 subtable" dx=10 dy=0 dh=20 dv=0
EndChar

StartChar: Amacron
Encoding: 256 256 7
Width: 1208
Flags: MW
HStem: 324 172<365 643 365 682 326 643> 1102 250<502 502> 1311 41G<354 864 864 864> 1579 188<406 803 307 901>
VStem: -14 1221<0 0>
LayerCount: 2
Fore
SplineSet
502 1102 m 1,0,-1
 365 496 l 1,1,-1
 643 496 l 1,2,-1
 502 1102 l 1,0,-1
758 0 m 1,3,-1
 682 324 l 1,4,-1
 326 324 l 1,5,-1
 252 0 l 1,6,-1
 -14 0 l 1,7,-1
 354 1352 l 1,8,-1
 864 1352 l 1,9,-1
 1206 0 l 1,10,-1
 758 0 l 1,3,-1
901 1767 m 1,11,12
 920 1735 920 1735 920 1688 c 0,13,14
 920 1638 920 1638 888.5 1608.5 c 128,-1,15
 857 1579 857 1579 803 1579 c 2,16,-1
 307 1579 l 1,17,18
 289 1609 289 1609 289 1659 c 128,-1,19
 289 1709 289 1709 320.5 1738 c 128,-1,20
 352 1767 352 1767 406 1767 c 2,21,-1
 901 1767 l 1,11,12
EndSplineSet
Validated: 8388609
Position2: "'cpsp' Capital Spacing lookup 3 subtable" dx=10 dy=0 dh=20 dv=0
EndChar

StartChar: Aogonek
Encoding: 260 260 8
Width: 1208
Flags: MW
HStem: -543 176<1124 1145> 324 172<365 643 365 682 326 643> 1102 250<502 502> 1311 41G<354 864 864 864>
VStem: 801 248<-302 -256>
LayerCount: 2
Fore
SplineSet
643 496 m 1,0,-1
 502 1102 l 1,1,-1
 365 496 l 1,2,-1
 643 496 l 1,0,-1
1206 0 m 1,3,4
 1049 -119 1049 -119 1049 -260 c 0,5,6
 1049 -321 1049 -321 1075.5 -344 c 128,-1,7
 1102 -367 1102 -367 1163 -367 c 0,8,9
 1195 -367 1195 -367 1228.5 -353.5 c 128,-1,10
 1262 -340 1262 -340 1276 -315 c 1,11,12
 1329 -354 1329 -354 1329 -403 c 0,13,14
 1329 -440 1329 -440 1306 -468.5 c 128,-1,15
 1283 -497 1283 -497 1247 -512.5 c 128,-1,16
 1211 -528 1211 -528 1174.5 -535.5 c 128,-1,17
 1138 -543 1138 -543 1104 -543 c 0,18,19
 1043 -543 1043 -543 990.5 -531.5 c 128,-1,20
 938 -520 938 -520 894.5 -496.5 c 128,-1,21
 851 -473 851 -473 826 -430.5 c 128,-1,22
 801 -388 801 -388 801 -332 c 0,23,24
 801 -140 801 -140 1057 0 c 1,25,-1
 758 0 l 1,26,-1
 682 324 l 1,27,-1
 326 324 l 1,28,-1
 252 0 l 1,29,-1
 -14 0 l 1,30,-1
 354 1352 l 1,31,-1
 864 1352 l 1,32,-1
 1200 23 l 1,33,-1
 1231 18 l 1,34,-1
 1206 0 l 1,3,4
EndSplineSet
Validated: 8388609
Position2: "'cpsp' Capital Spacing lookup 3 subtable" dx=10 dy=0 dh=20 dv=0
EndChar

StartChar: Aring
Encoding: 197 197 9
Width: 1208
Flags: MW
HStem: 324 172<365 643 365 682 326 643> 1102 250<502 502> 1311 41G<354 864 864 864> 1473 82<575 640 575 677> 1782 84<577 640>
VStem: 373 143<1638 1702 1638 1734> 700 145<1638 1702>
LayerCount: 2
Fore
SplineSet
502 1102 m 1,0,-1
 365 496 l 1,1,-1
 643 496 l 1,2,-1
 502 1102 l 1,0,-1
758 0 m 1,3,-1
 682 324 l 1,4,-1
 326 324 l 1,5,-1
 252 0 l 1,6,-1
 -14 0 l 1,7,-1
 354 1352 l 1,8,-1
 864 1352 l 1,9,-1
 1206 0 l 1,10,-1
 758 0 l 1,3,-1
608 1554 m 0,11,12
 653 1554 653 1554 676.5 1586.5 c 128,-1,13
 700 1619 700 1619 700 1671 c 0,14,15
 700 1720 700 1720 676.5 1751 c 128,-1,16
 653 1782 653 1782 608 1782 c 128,-1,17
 563 1782 563 1782 539.5 1751 c 128,-1,18
 516 1720 516 1720 516 1671 c 0,19,20
 516 1618 516 1618 538.5 1586 c 128,-1,21
 561 1554 561 1554 608 1554 c 0,11,12
608 1473 m 0,22,23
 505 1473 505 1473 439 1526.5 c 128,-1,24
 373 1580 373 1580 373 1671 c 0,25,26
 373 1763 373 1763 438 1814.5 c 128,-1,27
 503 1866 503 1866 608 1866 c 0,28,29
 715 1866 715 1866 780.5 1814.5 c 128,-1,30
 846 1763 846 1763 846 1671 c 0,31,32
 846 1580 846 1580 779.5 1526.5 c 128,-1,33
 713 1473 713 1473 608 1473 c 0,22,23
EndSplineSet
Validated: 8388609
Position2: "'cpsp' Capital Spacing lookup 3 subtable" dx=10 dy=0 dh=20 dv=0
EndChar

StartChar: Aringacute
Encoding: 506 506 10
Width: 1208
Flags: MW
HStem: 324 172<365 643 365 682 326 643> 1311 41G<354 412 412 412 575 640 805 864 864 864> 1542 70<577 640>
VStem: 373 143<1431 1476 1422 1502> 700 143<1431 1476>
LayerCount: 2
Fore
SplineSet
643 496 m 1,0,-1
 502 1102 l 1,1,-1
 365 496 l 1,2,-1
 643 496 l 1,0,-1
516 1450 m 0,3,4
 516 1406 516 1406 538.5 1379 c 128,-1,5
 561 1352 561 1352 608 1352 c 0,6,7
 653 1352 653 1352 676.5 1379 c 128,-1,8
 700 1406 700 1406 700 1450 c 0,9,10
 700 1491 700 1491 676.5 1516.5 c 128,-1,11
 653 1542 653 1542 608 1542 c 128,-1,12
 563 1542 563 1542 539.5 1516.5 c 128,-1,13
 516 1491 516 1491 516 1450 c 0,3,4
1206 0 m 1,14,-1
 758 0 l 1,15,-1
 682 324 l 1,16,-1
 326 324 l 1,17,-1
 252 0 l 1,18,-1
 -14 0 l 1,19,-1
 354 1352 l 1,20,-1
 412 1352 l 1,21,22
 373 1394 373 1394 373 1450 c 0,23,24
 373 1526 373 1526 438 1569 c 128,-1,25
 503 1612 503 1612 608 1612 c 128,-1,26
 713 1612 713 1612 778.5 1569 c 128,-1,27
 844 1526 844 1526 844 1450 c 0,28,29
 844 1394 844 1394 805 1352 c 1,30,-1
 864 1352 l 1,31,-1
 1206 0 l 1,14,-1
416 1624 m 1,32,-1
 391 1729 l 1,33,-1
 897 1937 l 1,34,35
 931 1908 931 1908 953 1867 c 128,-1,36
 975 1826 975 1826 975 1786 c 0,37,38
 975 1760 975 1760 965.5 1739 c 128,-1,39
 956 1718 956 1718 944 1704.5 c 128,-1,40
 932 1691 932 1691 907 1680.5 c 128,-1,41
 882 1670 882 1670 865.5 1664.5 c 128,-1,42
 849 1659 849 1659 815 1654.5 c 128,-1,43
 781 1650 781 1650 766 1649 c 128,-1,44
 751 1648 751 1648 715 1645 c 2,45,-1
 416 1624 l 1,32,-1
EndSplineSet
Validated: 1
Position2: "'cpsp' Capital Spacing lookup 3 subtable" dx=10 dy=0 dh=20 dv=0
EndChar

StartChar: Atilde
Encoding: 195 195 11
Width: 1208
Flags: MW
HStem: 324 172<365 643 365 682 326 643> 1102 250<502 502> 1311 41G<354 864 864 864> 1497 213<782 863 782 868> 1538 213<357 439>
VStem: -14 1221<0 0>
LayerCount: 2
Fore
SplineSet
502 1102 m 1,0,-1
 365 496 l 1,1,-1
 643 496 l 1,2,-1
 502 1102 l 1,0,-1
758 0 m 1,3,-1
 682 324 l 1,4,-1
 326 324 l 1,5,-1
 252 0 l 1,6,-1
 -14 0 l 1,7,-1
 354 1352 l 1,8,-1
 864 1352 l 1,9,-1
 1206 0 l 1,10,-1
 758 0 l 1,3,-1
971 1751 m 1,11,12
 1018 1694 1018 1694 1018 1628 c 0,13,14
 1018 1553 1018 1553 963.5 1525 c 128,-1,15
 909 1497 909 1497 813 1497 c 0,16,17
 757 1497 757 1497 598.5 1517.5 c 128,-1,18
 440 1538 440 1538 381 1538 c 0,19,20
 291 1538 291 1538 250 1497 c 1,21,22
 203 1554 203 1554 203 1620 c 0,23,24
 203 1695 203 1695 257.5 1723 c 128,-1,25
 312 1751 312 1751 408 1751 c 0,26,27
 464 1751 464 1751 623 1730.5 c 128,-1,28
 782 1710 782 1710 840 1710 c 0,29,30
 930 1710 930 1710 971 1751 c 1,11,12
EndSplineSet
Validated: 8388609
Position2: "'cpsp' Capital Spacing lookup 3 subtable" dx=10 dy=0 dh=20 dv=0
EndChar

StartChar: AE
Encoding: 198 198 12
Width: 1505
Flags: MW
HStem: 0 172<1153 1489> 324 172<461 715 461 715 391 715> 608 172<1153 1413 1153 1413> 1180 172<1153 1475 1153 1153>
VStem: 715 438<172 324 324 324 496 608 780 1143 1143 1143>
LayerCount: 2
Fore
SplineSet
461 496 m 1,0,-1
 715 496 l 1,1,-1
 715 1143 l 1,2,-1
 461 496 l 1,0,-1
1475 1180 m 1,3,-1
 1153 1180 l 1,4,-1
 1153 780 l 1,5,-1
 1413 780 l 1,6,-1
 1413 608 l 1,7,-1
 1153 608 l 1,8,-1
 1153 172 l 1,9,-1
 1505 172 l 1,10,-1
 1489 0 l 1,11,-1
 715 0 l 1,12,-1
 715 324 l 1,13,-1
 391 324 l 1,14,-1
 260 0 l 1,15,-1
 -27 0 l 1,16,-1
 565 1352 l 1,17,-1
 1475 1352 l 1,18,-1
 1475 1180 l 1,3,-1
EndSplineSet
Validated: 1
Position2: "'cpsp' Capital Spacing lookup 3 subtable" dx=10 dy=0 dh=20 dv=0
EndChar

StartChar: AEacute
Encoding: 508 508 13
Width: 1505
Flags: MW
HStem: 0 172<1153 1489> 324 172<461 715 461 715 391 715> 608 172<1153 1413 1153 1413> 1180 172<1153 1153 1153 1475>
VStem: 715 438<172 324 324 324 496 608 780 1143 1143 1143>
LayerCount: 2
Fore
SplineSet
715 496 m 1,0,-1
 715 1143 l 1,1,-1
 461 496 l 1,2,-1
 715 496 l 1,0,-1
1153 1180 m 1,3,-1
 1153 780 l 1,4,-1
 1413 780 l 1,5,-1
 1413 608 l 1,6,-1
 1153 608 l 1,7,-1
 1153 172 l 1,8,-1
 1505 172 l 1,9,-1
 1489 0 l 1,10,-1
 715 0 l 1,11,-1
 715 324 l 1,12,-1
 391 324 l 1,13,-1
 260 0 l 1,14,-1
 -27 0 l 1,15,-1
 565 1352 l 1,16,-1
 1475 1352 l 1,17,-1
 1475 1180 l 1,18,-1
 1153 1180 l 1,3,-1
1130 1767 m 1,19,20
 1164 1738 1164 1738 1186 1697 c 128,-1,21
 1208 1656 1208 1656 1208 1616 c 0,22,23
 1208 1590 1208 1590 1198.5 1569 c 128,-1,24
 1189 1548 1189 1548 1177 1534.5 c 128,-1,25
 1165 1521 1165 1521 1140 1510.5 c 128,-1,26
 1115 1500 1115 1500 1098.5 1494.5 c 128,-1,27
 1082 1489 1082 1489 1048 1484.5 c 128,-1,28
 1014 1480 1014 1480 999 1479 c 128,-1,29
 984 1478 984 1478 948 1475 c 2,30,-1
 649 1454 l 1,31,-1
 625 1559 l 1,32,-1
 1130 1767 l 1,19,20
EndSplineSet
Validated: 1
Position2: "'cpsp' Capital Spacing lookup 3 subtable" dx=10 dy=0 dh=20 dv=0
EndChar

StartChar: B
Encoding: 66 66 14
Width: 1277
Flags: MW
HStem: -20 152<612 697 612 772> 651 137<589 664 588 680> 1210 152<612 684>
VStem: 102 438<143 143 143 647 795 1198> 784 356<973 1078> 819 430<316 471>
LayerCount: 2
Fore
SplineSet
541 143 m 1,0,1
 582 131 582 131 625 131 c 0,2,3
 819 131 819 131 819 389 c 0,4,5
 819 518 819 518 767.5 584.5 c 128,-1,6
 716 651 716 651 598 651 c 0,7,8
 577 651 577 651 541 647 c 1,9,-1
 541 143 l 1,0,1
541 795 m 1,10,11
 572 788 572 788 596 788 c 0,12,13
 693 788 693 788 738.5 850.5 c 128,-1,14
 784 913 784 913 784 1020 c 0,15,16
 784 1210 784 1210 627 1210 c 0,17,18
 584 1210 584 1210 541 1198 c 1,19,-1
 541 795 l 1,10,11
102 1337 m 1,20,21
 395 1362 395 1362 625 1362 c 0,22,23
 714 1362 714 1362 784 1354.5 c 128,-1,24
 854 1347 854 1347 923.5 1326 c 128,-1,25
 993 1305 993 1305 1038.5 1270 c 128,-1,26
 1084 1235 1084 1235 1112.5 1176.5 c 128,-1,27
 1141 1118 1141 1118 1141 1040 c 0,28,29
 1141 941 1141 941 1077.5 867.5 c 128,-1,30
 1014 794 1014 794 913 764 c 1,31,32
 1074 736 1074 736 1161.5 643 c 128,-1,33
 1249 550 1249 550 1249 395 c 0,34,35
 1249 305 1249 305 1212.5 233.5 c 128,-1,36
 1176 162 1176 162 1116 115.5 c 128,-1,37
 1056 69 1056 69 973 37.5 c 128,-1,38
 890 6 890 6 801.5 -7 c 128,-1,39
 713 -20 713 -20 616 -20 c 0,40,41
 382 -20 382 -20 102 8 c 1,42,-1
 102 1337 l 1,20,21
EndSplineSet
Validated: 8388609
Position2: "'cpsp' Capital Spacing lookup 3 subtable" dx=10 dy=0 dh=20 dv=0
EndChar

StartChar: C
Encoding: 67 67 15
Width: 1206
Flags: MW
HStem: -45 301<700 814> 1241 152<602 744>
VStem: 41 471<606 831 606 896> 823 350<1042 1068>
LayerCount: 2
Fore
SplineSet
686 1241 m 0,0,1
 655 1241 655 1241 630 1227.5 c 128,-1,2
 605 1214 605 1214 587.5 1187 c 128,-1,3
 570 1160 570 1160 557 1129.5 c 128,-1,4
 544 1099 544 1099 536 1056.5 c 128,-1,5
 528 1014 528 1014 523 978 c 128,-1,6
 518 942 518 942 515.5 895 c 128,-1,7
 513 848 513 848 512.5 818 c 128,-1,8
 512 788 512 788 512 748 c 0,9,10
 512 636 512 636 527 550.5 c 128,-1,11
 542 465 542 465 576 396.5 c 128,-1,12
 610 328 610 328 671 292 c 128,-1,13
 732 256 732 256 819 256 c 0,14,15
 1000 256 1000 256 1098 428 c 1,16,17
 1178 378 1178 378 1178 279 c 0,18,19
 1178 200 1178 200 1135.5 136 c 128,-1,20
 1093 72 1093 72 1023 33.5 c 128,-1,21
 953 -5 953 -5 870.5 -25 c 128,-1,22
 788 -45 788 -45 702 -45 c 0,23,24
 532 -45 532 -45 402.5 10 c 128,-1,25
 273 65 273 65 195.5 163.5 c 128,-1,26
 118 262 118 262 79.5 388.5 c 128,-1,27
 41 515 41 515 41 668 c 0,28,29
 41 1017 41 1017 210 1205 c 128,-1,30
 379 1393 379 1393 715 1393 c 0,31,32
 785 1393 785 1393 847 1385.5 c 128,-1,33
 909 1378 909 1378 970.5 1358.5 c 128,-1,34
 1032 1339 1032 1339 1076 1308.5 c 128,-1,35
 1120 1278 1120 1278 1147 1228.5 c 128,-1,36
 1174 1179 1174 1179 1174 1116 c 0,37,38
 1174 1009 1174 1009 1100.5 947 c 128,-1,39
 1027 885 1027 885 918 885 c 0,40,41
 851 885 851 885 811 897 c 1,42,43
 823 958 823 958 823 1010 c 0,44,45
 823 1059 823 1059 817.5 1096.5 c 128,-1,46
 812 1134 812 1134 798.5 1168.5 c 128,-1,47
 785 1203 785 1203 756.5 1222 c 128,-1,48
 728 1241 728 1241 686 1241 c 0,0,1
EndSplineSet
Validated: 1
Position2: "'cpsp' Capital Spacing lookup 3 subtable" dx=10 dy=0 dh=20 dv=0
EndChar

StartChar: Cacute
Encoding: 262 262 16
Width: 1206
Flags: MW
HStem: -45 301<700 814> 1241 152<602 744>
VStem: 41 471<606 831 606 896> 823 350<1042 1068>
LayerCount: 2
Fore
SplineSet
686 1241 m 0,0,1
 655 1241 655 1241 630 1227.5 c 128,-1,2
 605 1214 605 1214 587.5 1187 c 128,-1,3
 570 1160 570 1160 557 1129.5 c 128,-1,4
 544 1099 544 1099 536 1056.5 c 128,-1,5
 528 1014 528 1014 523 978 c 128,-1,6
 518 942 518 942 515.5 895 c 128,-1,7
 513 848 513 848 512.5 818 c 128,-1,8
 512 788 512 788 512 748 c 0,9,10
 512 636 512 636 527 550.5 c 128,-1,11
 542 465 542 465 576 396.5 c 128,-1,12
 610 328 610 328 671 292 c 128,-1,13
 732 256 732 256 819 256 c 0,14,15
 1000 256 1000 256 1098 428 c 1,16,17
 1178 378 1178 378 1178 279 c 0,18,19
 1178 200 1178 200 1135.5 136 c 128,-1,20
 1093 72 1093 72 1023 33.5 c 128,-1,21
 953 -5 953 -5 870.5 -25 c 128,-1,22
 788 -45 788 -45 702 -45 c 0,23,24
 532 -45 532 -45 402.5 10 c 128,-1,25
 273 65 273 65 195.5 163.5 c 128,-1,26
 118 262 118 262 79.5 388.5 c 128,-1,27
 41 515 41 515 41 668 c 0,28,29
 41 1017 41 1017 210 1205 c 128,-1,30
 379 1393 379 1393 715 1393 c 0,31,32
 785 1393 785 1393 847 1385.5 c 128,-1,33
 909 1378 909 1378 970.5 1358.5 c 128,-1,34
 1032 1339 1032 1339 1076 1308.5 c 128,-1,35
 1120 1278 1120 1278 1147 1228.5 c 128,-1,36
 1174 1179 1174 1179 1174 1116 c 0,37,38
 1174 1009 1174 1009 1100.5 947 c 128,-1,39
 1027 885 1027 885 918 885 c 0,40,41
 851 885 851 885 811 897 c 1,42,43
 823 958 823 958 823 1010 c 0,44,45
 823 1059 823 1059 817.5 1096.5 c 128,-1,46
 812 1134 812 1134 798.5 1168.5 c 128,-1,47
 785 1203 785 1203 756.5 1222 c 128,-1,48
 728 1241 728 1241 686 1241 c 0,0,1
975 1765 m 1,49,50
 1009 1736 1009 1736 1031 1695 c 128,-1,51
 1053 1654 1053 1654 1053 1614 c 0,52,53
 1053 1588 1053 1588 1043.5 1567 c 128,-1,54
 1034 1546 1034 1546 1022 1532.5 c 128,-1,55
 1010 1519 1010 1519 985 1508.5 c 128,-1,56
 960 1498 960 1498 943.5 1492.5 c 128,-1,57
 927 1487 927 1487 893 1482.5 c 128,-1,58
 859 1478 859 1478 844 1477 c 128,-1,59
 829 1476 829 1476 793 1473 c 2,60,-1
 494 1452 l 1,61,-1
 469 1556 l 1,62,-1
 975 1765 l 1,49,50
EndSplineSet
Validated: 1
Substitution2: "'locl' Localized Forms in Latin lookup 13 subtable" Cacute.loclPLK
Substitution2: "'aalt' Access All Alternates lookup 0 subtable" Cacute.loclPLK
Position2: "'cpsp' Capital Spacing lookup 3 subtable" dx=10 dy=0 dh=20 dv=0
EndChar

StartChar: Ccaron
Encoding: 268 268 17
Width: 1206
Flags: MW
HStem: -45 301<700 814> 1241 152<602 744>
VStem: 41 471<606 831 606 896> 823 350<1042 1068>
LayerCount: 2
Fore
SplineSet
686 1241 m 0,0,1
 655 1241 655 1241 630 1227.5 c 128,-1,2
 605 1214 605 1214 587.5 1187 c 128,-1,3
 570 1160 570 1160 557 1129.5 c 128,-1,4
 544 1099 544 1099 536 1056.5 c 128,-1,5
 528 1014 528 1014 523 978 c 128,-1,6
 518 942 518 942 515.5 895 c 128,-1,7
 513 848 513 848 512.5 818 c 128,-1,8
 512 788 512 788 512 748 c 0,9,10
 512 636 512 636 527 550.5 c 128,-1,11
 542 465 542 465 576 396.5 c 128,-1,12
 610 328 610 328 671 292 c 128,-1,13
 732 256 732 256 819 256 c 0,14,15
 1000 256 1000 256 1098 428 c 1,16,17
 1178 378 1178 378 1178 279 c 0,18,19
 1178 200 1178 200 1135.5 136 c 128,-1,20
 1093 72 1093 72 1023 33.5 c 128,-1,21
 953 -5 953 -5 870.5 -25 c 128,-1,22
 788 -45 788 -45 702 -45 c 0,23,24
 532 -45 532 -45 402.5 10 c 128,-1,25
 273 65 273 65 195.5 163.5 c 128,-1,26
 118 262 118 262 79.5 388.5 c 128,-1,27
 41 515 41 515 41 668 c 0,28,29
 41 1017 41 1017 210 1205 c 128,-1,30
 379 1393 379 1393 715 1393 c 0,31,32
 785 1393 785 1393 847 1385.5 c 128,-1,33
 909 1378 909 1378 970.5 1358.5 c 128,-1,34
 1032 1339 1032 1339 1076 1308.5 c 128,-1,35
 1120 1278 1120 1278 1147 1228.5 c 128,-1,36
 1174 1179 1174 1179 1174 1116 c 0,37,38
 1174 1009 1174 1009 1100.5 947 c 128,-1,39
 1027 885 1027 885 918 885 c 0,40,41
 851 885 851 885 811 897 c 1,42,43
 823 958 823 958 823 1010 c 0,44,45
 823 1059 823 1059 817.5 1096.5 c 128,-1,46
 812 1134 812 1134 798.5 1168.5 c 128,-1,47
 785 1203 785 1203 756.5 1222 c 128,-1,48
 728 1241 728 1241 686 1241 c 0,0,1
1040 1661 m 1,49,-1
 752 1423 l 1,50,-1
 621 1423 l 1,51,-1
 324 1661 l 1,52,-1
 406 1755 l 1,53,-1
 682 1649 l 1,54,-1
 961 1755 l 1,55,-1
 1040 1661 l 1,49,-1
EndSplineSet
Validated: 1
Position2: "'cpsp' Capital Spacing lookup 3 subtable" dx=10 dy=0 dh=20 dv=0
EndChar

StartChar: Ccedilla
Encoding: 199 199 18
Width: 1206
Flags: MW
HStem: -528 139<635 665 602 749> -225 109<574 792> -45 301<700 702 698 883> 1241 152<602 744>
VStem: 41 471<606 831 606 896> 725 250<-333 -273> 823 350<1042 1068>
LayerCount: 2
Fore
SplineSet
575 -37 m 1,0,1
 438 -18 438 -18 334 44 c 128,-1,2
 230 106 230 106 167 201 c 128,-1,3
 104 296 104 296 72.5 413 c 128,-1,4
 41 530 41 530 41 668 c 0,5,6
 41 1017 41 1017 210 1205 c 128,-1,7
 379 1393 379 1393 715 1393 c 0,8,9
 785 1393 785 1393 847 1385.5 c 128,-1,10
 909 1378 909 1378 970.5 1358.5 c 128,-1,11
 1032 1339 1032 1339 1076 1308.5 c 128,-1,12
 1120 1278 1120 1278 1147 1228.5 c 128,-1,13
 1174 1179 1174 1179 1174 1116 c 0,14,15
 1174 1009 1174 1009 1100.5 947 c 128,-1,16
 1027 885 1027 885 918 885 c 0,17,18
 851 885 851 885 811 897 c 1,19,20
 823 958 823 958 823 1010 c 0,21,22
 823 1059 823 1059 817.5 1096.5 c 128,-1,23
 812 1134 812 1134 798.5 1168.5 c 128,-1,24
 785 1203 785 1203 756.5 1222 c 128,-1,25
 728 1241 728 1241 686 1241 c 0,26,27
 655 1241 655 1241 630 1227.5 c 128,-1,28
 605 1214 605 1214 587.5 1187 c 128,-1,29
 570 1160 570 1160 557 1129.5 c 128,-1,30
 544 1099 544 1099 536 1056.5 c 128,-1,31
 528 1014 528 1014 523 978 c 128,-1,32
 518 942 518 942 515.5 895 c 128,-1,33
 513 848 513 848 512.5 818 c 128,-1,34
 512 788 512 788 512 748 c 0,35,36
 512 636 512 636 527 550.5 c 128,-1,37
 542 465 542 465 576 396.5 c 128,-1,38
 610 328 610 328 671 292 c 128,-1,39
 732 256 732 256 819 256 c 0,40,41
 1000 256 1000 256 1098 428 c 1,42,43
 1178 378 1178 378 1178 279 c 0,44,45
 1178 200 1178 200 1135.5 136 c 128,-1,46
 1093 72 1093 72 1023 33.5 c 128,-1,47
 953 -5 953 -5 870.5 -25 c 128,-1,48
 788 -45 788 -45 702 -45 c 2,49,-1
 698 -45 l 1,50,-1
 668 -119 l 1,51,52
 678 -119 678 -119 695 -118 c 128,-1,53
 712 -117 712 -117 719 -117 c 0,54,55
 836 -117 836 -117 905.5 -164.5 c 128,-1,56
 975 -212 975 -212 975 -315 c 0,57,58
 975 -384 975 -384 929.5 -434 c 128,-1,59
 884 -484 884 -484 818 -506 c 128,-1,60
 752 -528 752 -528 676 -528 c 0,61,62
 640 -528 640 -528 606 -522.5 c 128,-1,63
 572 -517 572 -517 536.5 -504.5 c 128,-1,64
 501 -492 501 -492 479 -466 c 128,-1,65
 457 -440 457 -440 457 -403 c 0,66,67
 457 -352 457 -352 481 -322 c 1,68,69
 535 -389 535 -389 643 -389 c 0,70,71
 676 -389 676 -389 700.5 -366 c 128,-1,72
 725 -343 725 -343 725 -309 c 0,73,74
 725 -225 725 -225 588 -225 c 0,75,76
 560 -225 560 -225 506 -229 c 1,77,-1
 575 -37 l 1,0,1
EndSplineSet
Validated: 8388609
Position2: "'cpsp' Capital Spacing lookup 3 subtable" dx=10 dy=0 dh=20 dv=0
EndChar

StartChar: Ccircumflex
Encoding: 264 264 19
Width: 1206
Flags: MW
HStem: -45 301<700 814> 1241 152<602 744>
VStem: 41 471<606 831 606 896> 823 350<1042 1068>
LayerCount: 2
Fore
SplineSet
686 1241 m 0,0,1
 655 1241 655 1241 630 1227.5 c 128,-1,2
 605 1214 605 1214 587.5 1187 c 128,-1,3
 570 1160 570 1160 557 1129.5 c 128,-1,4
 544 1099 544 1099 536 1056.5 c 128,-1,5
 528 1014 528 1014 523 978 c 128,-1,6
 518 942 518 942 515.5 895 c 128,-1,7
 513 848 513 848 512.5 818 c 128,-1,8
 512 788 512 788 512 748 c 0,9,10
 512 636 512 636 527 550.5 c 128,-1,11
 542 465 542 465 576 396.5 c 128,-1,12
 610 328 610 328 671 292 c 128,-1,13
 732 256 732 256 819 256 c 0,14,15
 1000 256 1000 256 1098 428 c 1,16,17
 1178 378 1178 378 1178 279 c 0,18,19
 1178 200 1178 200 1135.5 136 c 128,-1,20
 1093 72 1093 72 1023 33.5 c 128,-1,21
 953 -5 953 -5 870.5 -25 c 128,-1,22
 788 -45 788 -45 702 -45 c 0,23,24
 532 -45 532 -45 402.5 10 c 128,-1,25
 273 65 273 65 195.5 163.5 c 128,-1,26
 118 262 118 262 79.5 388.5 c 128,-1,27
 41 515 41 515 41 668 c 0,28,29
 41 1017 41 1017 210 1205 c 128,-1,30
 379 1393 379 1393 715 1393 c 0,31,32
 785 1393 785 1393 847 1385.5 c 128,-1,33
 909 1378 909 1378 970.5 1358.5 c 128,-1,34
 1032 1339 1032 1339 1076 1308.5 c 128,-1,35
 1120 1278 1120 1278 1147 1228.5 c 128,-1,36
 1174 1179 1174 1179 1174 1116 c 0,37,38
 1174 1009 1174 1009 1100.5 947 c 128,-1,39
 1027 885 1027 885 918 885 c 0,40,41
 851 885 851 885 811 897 c 1,42,43
 823 958 823 958 823 1010 c 0,44,45
 823 1059 823 1059 817.5 1096.5 c 128,-1,46
 812 1134 812 1134 798.5 1168.5 c 128,-1,47
 785 1203 785 1203 756.5 1222 c 128,-1,48
 728 1241 728 1241 686 1241 c 0,0,1
328 1497 m 1,49,-1
 639 1733 l 1,50,-1
 727 1733 l 1,51,-1
 1042 1497 l 1,52,-1
 963 1401 l 1,53,-1
 686 1505 l 1,54,-1
 408 1401 l 1,55,-1
 328 1497 l 1,49,-1
EndSplineSet
Validated: 1
Position2: "'cpsp' Capital Spacing lookup 3 subtable" dx=10 dy=0 dh=20 dv=0
EndChar

StartChar: Cdotaccent
Encoding: 266 266 20
Width: 1206
Flags: MW
HStem: -45 301<700 814> 1241 152<602 744> 1516 328<631 751>
VStem: 41 471<606 831 606 896> 467 444<1625 1730> 823 350<1042 1068>
LayerCount: 2
Fore
SplineSet
686 1241 m 0,0,1
 655 1241 655 1241 630 1227.5 c 128,-1,2
 605 1214 605 1214 587.5 1187 c 128,-1,3
 570 1160 570 1160 557 1129.5 c 128,-1,4
 544 1099 544 1099 536 1056.5 c 128,-1,5
 528 1014 528 1014 523 978 c 128,-1,6
 518 942 518 942 515.5 895 c 128,-1,7
 513 848 513 848 512.5 818 c 128,-1,8
 512 788 512 788 512 748 c 0,9,10
 512 636 512 636 527 550.5 c 128,-1,11
 542 465 542 465 576 396.5 c 128,-1,12
 610 328 610 328 671 292 c 128,-1,13
 732 256 732 256 819 256 c 0,14,15
 1000 256 1000 256 1098 428 c 1,16,17
 1178 378 1178 378 1178 279 c 0,18,19
 1178 200 1178 200 1135.5 136 c 128,-1,20
 1093 72 1093 72 1023 33.5 c 128,-1,21
 953 -5 953 -5 870.5 -25 c 128,-1,22
 788 -45 788 -45 702 -45 c 0,23,24
 532 -45 532 -45 402.5 10 c 128,-1,25
 273 65 273 65 195.5 163.5 c 128,-1,26
 118 262 118 262 79.5 388.5 c 128,-1,27
 41 515 41 515 41 668 c 0,28,29
 41 1017 41 1017 210 1205 c 128,-1,30
 379 1393 379 1393 715 1393 c 0,31,32
 785 1393 785 1393 847 1385.5 c 128,-1,33
 909 1378 909 1378 970.5 1358.5 c 128,-1,34
 1032 1339 1032 1339 1076 1308.5 c 128,-1,35
 1120 1278 1120 1278 1147 1228.5 c 128,-1,36
 1174 1179 1174 1179 1174 1116 c 0,37,38
 1174 1009 1174 1009 1100.5 947 c 128,-1,39
 1027 885 1027 885 918 885 c 0,40,41
 851 885 851 885 811 897 c 1,42,43
 823 958 823 958 823 1010 c 0,44,45
 823 1059 823 1059 817.5 1096.5 c 128,-1,46
 812 1134 812 1134 798.5 1168.5 c 128,-1,47
 785 1203 785 1203 756.5 1222 c 128,-1,48
 728 1241 728 1241 686 1241 c 0,0,1
694 1843 m 0,49,50
 792 1843 792 1843 851.5 1799.5 c 128,-1,51
 911 1756 911 1756 911 1679 c 0,52,53
 911 1600 911 1600 849 1558 c 128,-1,54
 787 1516 787 1516 686 1516 c 0,55,56
 588 1516 588 1516 527.5 1557.5 c 128,-1,57
 467 1599 467 1599 467 1675 c 0,58,59
 467 1754 467 1754 531 1798.5 c 128,-1,60
 595 1843 595 1843 694 1843 c 0,49,50
EndSplineSet
Validated: 8388609
Position2: "'cpsp' Capital Spacing lookup 3 subtable" dx=10 dy=0 dh=20 dv=0
EndChar

StartChar: D
Encoding: 68 68 21
Width: 1359
Flags: MW
HStem: -20 152<629 735 629 849> 1210 152<624 734>
VStem: 102 438<145 145 145 1194> 848 473<559 806>
LayerCount: 2
Fore
SplineSet
541 145 m 1,0,1
 593 131 593 131 647 131 c 0,2,3
 698 131 698 131 735.5 166 c 128,-1,4
 773 201 773 201 794 253.5 c 128,-1,5
 815 306 815 306 827.5 383 c 128,-1,6
 840 460 840 460 844 529 c 128,-1,7
 848 598 848 598 848 682 c 0,8,9
 848 751 848 751 845 808 c 128,-1,10
 842 865 842 865 835 928.5 c 128,-1,11
 828 992 828 992 813 1039.5 c 128,-1,12
 798 1087 798 1087 776.5 1127.5 c 128,-1,13
 755 1168 755 1168 721.5 1189 c 128,-1,14
 688 1210 688 1210 645 1210 c 0,15,16
 598 1210 598 1210 541 1194 c 1,17,-1
 541 145 l 1,0,1
102 1337 m 1,18,19
 395 1362 395 1362 645 1362 c 0,20,21
 989 1362 989 1362 1155 1199 c 128,-1,22
 1321 1036 1321 1036 1321 694 c 0,23,24
 1321 344 1321 344 1142.5 162 c 128,-1,25
 964 -20 964 -20 616 -20 c 0,26,27
 382 -20 382 -20 102 8 c 1,28,-1
 102 1337 l 1,18,19
EndSplineSet
Validated: 1
Position2: "'cpsp' Capital Spacing lookup 3 subtable" dx=10 dy=0 dh=20 dv=0
EndChar

StartChar: DZ
Encoding: 497 497 22
Width: 2342
Flags: MW
HStem: -20 152<629 735 629 849> 0 184<1843 2327> 1167 184<1415 1853 1415 2308> 1210 152<624 734>
VStem: 102 438<145 145 145 1194> 848 473<559 806>
LayerCount: 2
Fore
SplineSet
541 145 m 1,0,1
 593 131 593 131 647 131 c 0,2,3
 698 131 698 131 735.5 166 c 128,-1,4
 773 201 773 201 794 253.5 c 128,-1,5
 815 306 815 306 827.5 383 c 128,-1,6
 840 460 840 460 844 529 c 128,-1,7
 848 598 848 598 848 682 c 0,8,9
 848 751 848 751 845 808 c 128,-1,10
 842 865 842 865 835 928.5 c 128,-1,11
 828 992 828 992 813 1039.5 c 128,-1,12
 798 1087 798 1087 776.5 1127.5 c 128,-1,13
 755 1168 755 1168 721.5 1189 c 128,-1,14
 688 1210 688 1210 645 1210 c 0,15,16
 598 1210 598 1210 541 1194 c 1,17,-1
 541 145 l 1,0,1
2322 1196 m 1,18,-1
 1843 184 l 1,19,-1
 2349 184 l 1,20,-1
 2327 0 l 1,21,-1
 1389 0 l 1,22,-1
 1374 156 l 1,23,-1
 1853 1167 l 1,24,-1
 1415 1167 l 1,25,-1
 1415 1352 l 1,26,-1
 2308 1352 l 1,27,-1
 2322 1196 l 1,18,-1
102 1337 m 1,28,29
 395 1362 395 1362 645 1362 c 0,30,31
 989 1362 989 1362 1155 1199 c 128,-1,32
 1321 1036 1321 1036 1321 694 c 0,33,34
 1321 344 1321 344 1142.5 162 c 128,-1,35
 964 -20 964 -20 616 -20 c 0,36,37
 382 -20 382 -20 102 8 c 1,38,-1
 102 1337 l 1,28,29
EndSplineSet
Validated: 8388609
Position2: "'cpsp' Capital Spacing lookup 3 subtable" dx=10 dy=0 dh=20 dv=0
EndChar

StartChar: DZcaron
Encoding: 452 452 23
Width: 2342
Flags: MW
HStem: -20 152<629 735 629 849> 0 184<1843 2327> 1167 184<1415 1853 1415 2308> 1210 152<624 734>
VStem: 102 438<145 145 145 1194> 848 473<559 806>
LayerCount: 2
Fore
SplineSet
541 145 m 1,0,1
 593 131 593 131 647 131 c 0,2,3
 698 131 698 131 735.5 166 c 128,-1,4
 773 201 773 201 794 253.5 c 128,-1,5
 815 306 815 306 827.5 383 c 128,-1,6
 840 460 840 460 844 529 c 128,-1,7
 848 598 848 598 848 682 c 0,8,9
 848 751 848 751 845 808 c 128,-1,10
 842 865 842 865 835 928.5 c 128,-1,11
 828 992 828 992 813 1039.5 c 128,-1,12
 798 1087 798 1087 776.5 1127.5 c 128,-1,13
 755 1168 755 1168 721.5 1189 c 128,-1,14
 688 1210 688 1210 645 1210 c 0,15,16
 598 1210 598 1210 541 1194 c 1,17,-1
 541 145 l 1,0,1
2322 1196 m 1,18,-1
 1843 184 l 1,19,-1
 2349 184 l 1,20,-1
 2327 0 l 1,21,-1
 1389 0 l 1,22,-1
 1374 156 l 1,23,-1
 1853 1167 l 1,24,-1
 1415 1167 l 1,25,-1
 1415 1352 l 1,26,-1
 2308 1352 l 1,27,-1
 2322 1196 l 1,18,-1
102 1337 m 1,28,29
 395 1362 395 1362 645 1362 c 0,30,31
 989 1362 989 1362 1155 1199 c 128,-1,32
 1321 1036 1321 1036 1321 694 c 0,33,34
 1321 344 1321 344 1142.5 162 c 128,-1,35
 964 -20 964 -20 616 -20 c 0,36,37
 382 -20 382 -20 102 8 c 1,38,-1
 102 1337 l 1,28,29
2206 1661 m 1,39,-1
 1917 1423 l 1,40,-1
 1786 1423 l 1,41,-1
 1489 1661 l 1,42,-1
 1571 1755 l 1,43,-1
 1847 1649 l 1,44,-1
 2126 1755 l 1,45,-1
 2206 1661 l 1,39,-1
EndSplineSet
Validated: 8388609
Position2: "'cpsp' Capital Spacing lookup 3 subtable" dx=10 dy=0 dh=20 dv=0
EndChar

StartChar: Eth
Encoding: 208 208 24
Width: 1359
Flags: MW
HStem: -20 152<629 735 629 849> 594 188<541 727 541 594> 1210 152<624 734>
VStem: 102 438<145 145 145 594 782 1194> 848 473<559 806>
LayerCount: 2
Fore
SplineSet
541 145 m 1,0,1
 593 131 593 131 647 131 c 0,2,3
 698 131 698 131 735.5 166 c 128,-1,4
 773 201 773 201 794 253.5 c 128,-1,5
 815 306 815 306 827.5 383 c 128,-1,6
 840 460 840 460 844 529 c 128,-1,7
 848 598 848 598 848 682 c 0,8,9
 848 751 848 751 845 808 c 128,-1,10
 842 865 842 865 835 928.5 c 128,-1,11
 828 992 828 992 813 1039.5 c 128,-1,12
 798 1087 798 1087 776.5 1127.5 c 128,-1,13
 755 1168 755 1168 721.5 1189 c 128,-1,14
 688 1210 688 1210 645 1210 c 0,15,16
 598 1210 598 1210 541 1194 c 1,17,-1
 541 782 l 1,18,-1
 727 782 l 1,19,20
 735 758 735 758 735 721 c 0,21,22
 735 658 735 658 698 626 c 128,-1,23
 661 594 661 594 594 594 c 2,24,-1
 541 594 l 1,25,-1
 541 145 l 1,0,1
102 1337 m 1,26,27
 395 1362 395 1362 645 1362 c 0,28,29
 989 1362 989 1362 1155 1199 c 128,-1,30
 1321 1036 1321 1036 1321 694 c 0,31,32
 1321 344 1321 344 1142.5 162 c 128,-1,33
 964 -20 964 -20 616 -20 c 0,34,35
 382 -20 382 -20 102 8 c 1,36,-1
 102 594 l 1,37,-1
 -6 594 l 1,38,39
 -14 618 -14 618 -14 655 c 0,40,41
 -14 771 -14 771 102 780 c 1,42,-1
 102 1337 l 1,26,27
EndSplineSet
Validated: 1
Position2: "'cpsp' Capital Spacing lookup 3 subtable" dx=10 dy=0 dh=20 dv=0
EndChar

StartChar: Dcaron
Encoding: 270 270 25
Width: 1359
Flags: MW
HStem: -20 152<629 735 629 849> 1210 152<624 734>
VStem: 102 438<145 145 145 1194> 848 473<559 806>
LayerCount: 2
Fore
SplineSet
541 145 m 1,0,1
 593 131 593 131 647 131 c 0,2,3
 698 131 698 131 735.5 166 c 128,-1,4
 773 201 773 201 794 253.5 c 128,-1,5
 815 306 815 306 827.5 383 c 128,-1,6
 840 460 840 460 844 529 c 128,-1,7
 848 598 848 598 848 682 c 0,8,9
 848 751 848 751 845 808 c 128,-1,10
 842 865 842 865 835 928.5 c 128,-1,11
 828 992 828 992 813 1039.5 c 128,-1,12
 798 1087 798 1087 776.5 1127.5 c 128,-1,13
 755 1168 755 1168 721.5 1189 c 128,-1,14
 688 1210 688 1210 645 1210 c 0,15,16
 598 1210 598 1210 541 1194 c 1,17,-1
 541 145 l 1,0,1
102 1337 m 1,18,19
 395 1362 395 1362 645 1362 c 0,20,21
 989 1362 989 1362 1155 1199 c 128,-1,22
 1321 1036 1321 1036 1321 694 c 0,23,24
 1321 344 1321 344 1142.5 162 c 128,-1,25
 964 -20 964 -20 616 -20 c 0,26,27
 382 -20 382 -20 102 8 c 1,28,-1
 102 1337 l 1,18,19
999 1661 m 1,29,-1
 711 1423 l 1,30,-1
 580 1423 l 1,31,-1
 283 1661 l 1,32,-1
 365 1755 l 1,33,-1
 641 1649 l 1,34,-1
 920 1755 l 1,35,-1
 999 1661 l 1,29,-1
EndSplineSet
Validated: 1
Position2: "'cpsp' Capital Spacing lookup 3 subtable" dx=10 dy=0 dh=20 dv=0
EndChar

StartChar: Dcroat
Encoding: 272 272 26
Width: 1359
Flags: MW
HStem: -20 152<629 735 629 849> 594 188<541 725 541 594> 1210 152<624 734>
VStem: 102 438<145 145 145 594 782 1194> 848 473<559 806>
LayerCount: 2
Fore
SplineSet
541 145 m 1,0,1
 593 131 593 131 647 131 c 0,2,3
 698 131 698 131 735.5 166 c 128,-1,4
 773 201 773 201 794 253.5 c 128,-1,5
 815 306 815 306 827.5 383 c 128,-1,6
 840 460 840 460 844 529 c 128,-1,7
 848 598 848 598 848 682 c 0,8,9
 848 751 848 751 845 808 c 128,-1,10
 842 865 842 865 835 928.5 c 128,-1,11
 828 992 828 992 813 1039.5 c 128,-1,12
 798 1087 798 1087 776.5 1127.5 c 128,-1,13
 755 1168 755 1168 721.5 1189 c 128,-1,14
 688 1210 688 1210 645 1210 c 0,15,16
 598 1210 598 1210 541 1194 c 1,17,-1
 541 782 l 1,18,-1
 725 782 l 1,19,20
 735 752 735 752 735 721 c 0,21,22
 735 658 735 658 698 626 c 128,-1,23
 661 594 661 594 594 594 c 2,24,-1
 541 594 l 1,25,-1
 541 145 l 1,0,1
102 1337 m 1,26,27
 395 1362 395 1362 645 1362 c 0,28,29
 989 1362 989 1362 1155 1199 c 128,-1,30
 1321 1036 1321 1036 1321 694 c 0,31,32
 1321 344 1321 344 1142.5 162 c 128,-1,33
 964 -20 964 -20 616 -20 c 0,34,35
 382 -20 382 -20 102 8 c 1,36,-1
 102 594 l 1,37,-1
 -6 594 l 1,38,39
 -14 618 -14 618 -14 655 c 0,40,41
 -14 771 -14 771 102 780 c 1,42,-1
 102 1337 l 1,26,27
EndSplineSet
Validated: 1
Position2: "'cpsp' Capital Spacing lookup 3 subtable" dx=10 dy=0 dh=20 dv=0
EndChar

StartChar: Ddotbelow
Encoding: 7692 7692 27
Width: 1359
Flags: MW
HStem: -412 328<573 693> -20 152<629 735 629 849> 1210 152<624 734>
VStem: 102 438<145 145 145 1194> 410 444<-302 -198> 848 473<559 806>
LayerCount: 2
Fore
SplineSet
637 -84 m 0,0,1
 735 -84 735 -84 794.5 -127.5 c 128,-1,2
 854 -171 854 -171 854 -248 c 0,3,4
 854 -327 854 -327 792 -369.5 c 128,-1,5
 730 -412 730 -412 629 -412 c 0,6,7
 531 -412 531 -412 470.5 -370 c 128,-1,8
 410 -328 410 -328 410 -252 c 0,9,10
 410 -173 410 -173 474 -128.5 c 128,-1,11
 538 -84 538 -84 637 -84 c 0,0,1
541 145 m 1,12,13
 593 131 593 131 647 131 c 0,14,15
 698 131 698 131 735.5 166 c 128,-1,16
 773 201 773 201 794 253.5 c 128,-1,17
 815 306 815 306 827.5 383 c 128,-1,18
 840 460 840 460 844 529 c 128,-1,19
 848 598 848 598 848 682 c 0,20,21
 848 751 848 751 845 808 c 128,-1,22
 842 865 842 865 835 928.5 c 128,-1,23
 828 992 828 992 813 1039.5 c 128,-1,24
 798 1087 798 1087 776.5 1127.5 c 128,-1,25
 755 1168 755 1168 721.5 1189 c 128,-1,26
 688 1210 688 1210 645 1210 c 0,27,28
 598 1210 598 1210 541 1194 c 1,29,-1
 541 145 l 1,12,13
102 1337 m 1,30,31
 395 1362 395 1362 645 1362 c 0,32,33
 989 1362 989 1362 1155 1199 c 128,-1,34
 1321 1036 1321 1036 1321 694 c 0,35,36
 1321 344 1321 344 1142.5 162 c 128,-1,37
 964 -20 964 -20 616 -20 c 0,38,39
 382 -20 382 -20 102 8 c 1,40,-1
 102 1337 l 1,30,31
EndSplineSet
Validated: 8388609
Position2: "'cpsp' Capital Spacing lookup 3 subtable" dx=10 dy=0 dh=20 dv=0
EndChar

StartChar: Dz
Encoding: 498 498 28
Width: 2246
Flags: MW
HStem: -20 152<629 735 629 849> 0 188 856 188 1210 152<624 734>
VStem: 102 438<145 145 145 1194> 848 473<559 806>
LayerCount: 2
Fore
SplineSet
2214 924 m 1,0,-1
 1819 172 l 1,1,-1
 2218 203 l 1,2,-1
 2198 0 l 1,3,-1
 1374 0 l 1,4,-1
 1362 121 l 1,5,-1
 1755 870 l 1,6,-1
 1401 844 l 1,7,-1
 1421 1044 l 1,8,-1
 2202 1044 l 1,9,-1
 2214 924 l 1,0,-1
541 145 m 1,10,11
 593 131 593 131 647 131 c 0,12,13
 698 131 698 131 735.5 166 c 128,-1,14
 773 201 773 201 794 253.5 c 128,-1,15
 815 306 815 306 827.5 383 c 128,-1,16
 840 460 840 460 844 529 c 128,-1,17
 848 598 848 598 848 682 c 0,18,19
 848 751 848 751 845 808 c 128,-1,20
 842 865 842 865 835 928.5 c 128,-1,21
 828 992 828 992 813 1039.5 c 128,-1,22
 798 1087 798 1087 776.5 1127.5 c 128,-1,23
 755 1168 755 1168 721.5 1189 c 128,-1,24
 688 1210 688 1210 645 1210 c 0,25,26
 598 1210 598 1210 541 1194 c 1,27,-1
 541 145 l 1,10,11
102 1337 m 1,28,29
 395 1362 395 1362 645 1362 c 0,30,31
 989 1362 989 1362 1155 1199 c 128,-1,32
 1321 1036 1321 1036 1321 694 c 0,33,34
 1321 344 1321 344 1142.5 162 c 128,-1,35
 964 -20 964 -20 616 -20 c 0,36,37
 382 -20 382 -20 102 8 c 1,38,-1
 102 1337 l 1,28,29
EndSplineSet
Validated: 8388609
Position2: "'cpsp' Capital Spacing lookup 3 subtable" dx=10 dy=0 dh=20 dv=0
EndChar

StartChar: Dzcaron
Encoding: 453 453 29
Width: 2246
Flags: MW
HStem: -20 152<629 735 629 849> 0 188 856 188 1210 152<624 734> 1313 41G<1442 1442 2159 2159> 1407 41G<1524 1524 2079 2079>
VStem: 102 438<145 145 145 1194> 848 473<559 806>
LayerCount: 2
Fore
SplineSet
2214 924 m 1,0,-1
 1819 172 l 1,1,-1
 2218 203 l 1,2,-1
 2198 0 l 1,3,-1
 1374 0 l 1,4,-1
 1362 121 l 1,5,-1
 1755 870 l 1,6,-1
 1401 844 l 1,7,-1
 1421 1044 l 1,8,-1
 2202 1044 l 1,9,-1
 2214 924 l 1,0,-1
541 145 m 1,10,11
 593 131 593 131 647 131 c 0,12,13
 698 131 698 131 735.5 166 c 128,-1,14
 773 201 773 201 794 253.5 c 128,-1,15
 815 306 815 306 827.5 383 c 128,-1,16
 840 460 840 460 844 529 c 128,-1,17
 848 598 848 598 848 682 c 0,18,19
 848 751 848 751 845 808 c 128,-1,20
 842 865 842 865 835 928.5 c 128,-1,21
 828 992 828 992 813 1039.5 c 128,-1,22
 798 1087 798 1087 776.5 1127.5 c 128,-1,23
 755 1168 755 1168 721.5 1189 c 128,-1,24
 688 1210 688 1210 645 1210 c 0,25,26
 598 1210 598 1210 541 1194 c 1,27,-1
 541 145 l 1,10,11
102 1337 m 1,28,29
 395 1362 395 1362 645 1362 c 0,30,31
 989 1362 989 1362 1155 1199 c 128,-1,32
 1321 1036 1321 1036 1321 694 c 0,33,34
 1321 344 1321 344 1142.5 162 c 128,-1,35
 964 -20 964 -20 616 -20 c 0,36,37
 382 -20 382 -20 102 8 c 1,38,-1
 102 1337 l 1,28,29
2159 1354 m 1,39,-1
 1870 1116 l 1,40,-1
 1739 1116 l 1,41,-1
 1442 1354 l 1,42,-1
 1524 1448 l 1,43,-1
 1800 1341 l 1,44,-1
 2079 1448 l 1,45,-1
 2159 1354 l 1,39,-1
EndSplineSet
Validated: 8388609
Position2: "'cpsp' Capital Spacing lookup 3 subtable" dx=10 dy=0 dh=20 dv=0
EndChar

StartChar: E
Encoding: 69 69 30
Width: 933
Flags: MW
HStem: 0 172<541 918> 608 172<541 842 541 842> 1180 172<541 903 541 541>
VStem: 102 438<172 608 780 1180>
LayerCount: 2
Fore
SplineSet
903 1180 m 1,0,-1
 541 1180 l 1,1,-1
 541 780 l 1,2,-1
 842 780 l 1,3,-1
 842 608 l 1,4,-1
 541 608 l 1,5,-1
 541 172 l 1,6,-1
 934 172 l 1,7,-1
 918 0 l 1,8,-1
 102 0 l 1,9,-1
 102 1352 l 1,10,-1
 903 1352 l 1,11,-1
 903 1180 l 1,0,-1
EndSplineSet
Validated: 1
Position2: "'cpsp' Capital Spacing lookup 3 subtable" dx=10 dy=0 dh=20 dv=0
EndChar

StartChar: Eacute
Encoding: 201 201 31
Width: 933
Flags: MW
HStem: 0 172<541 918> 608 172<541 842 541 842> 1180 172<541 541 541 903>
VStem: 102 438<172 608 780 1180>
LayerCount: 2
Fore
SplineSet
541 1180 m 1,0,-1
 541 780 l 1,1,-1
 842 780 l 1,2,-1
 842 608 l 1,3,-1
 541 608 l 1,4,-1
 541 172 l 1,5,-1
 934 172 l 1,6,-1
 918 0 l 1,7,-1
 102 0 l 1,8,-1
 102 1352 l 1,9,-1
 903 1352 l 1,10,-1
 903 1180 l 1,11,-1
 541 1180 l 1,0,-1
793 1765 m 1,12,13
 827 1736 827 1736 848.5 1695 c 128,-1,14
 870 1654 870 1654 870 1614 c 0,15,16
 870 1588 870 1588 860.5 1567 c 128,-1,17
 851 1546 851 1546 839 1532.5 c 128,-1,18
 827 1519 827 1519 802 1508.5 c 128,-1,19
 777 1498 777 1498 760.5 1492.5 c 128,-1,20
 744 1487 744 1487 710 1482.5 c 128,-1,21
 676 1478 676 1478 661 1477 c 128,-1,22
 646 1476 646 1476 610 1473 c 2,23,-1
 311 1452 l 1,24,-1
 287 1556 l 1,25,-1
 793 1765 l 1,12,13
EndSplineSet
Validated: 1
Position2: "'cpsp' Capital Spacing lookup 3 subtable" dx=10 dy=0 dh=20 dv=0
EndChar

StartChar: Ebreve
Encoding: 276 276 32
Width: 933
Flags: MW
HStem: 0 172<541 918> 608 172<541 842 541 842> 1180 172<541 541 541 903> 1434 106<460 559 460 656>
VStem: 102 438<172 608 780 1180> 106 299<1634 1660 1619 1714> 598 301<1673 1714>
LayerCount: 2
Fore
SplineSet
541 1180 m 1,0,-1
 541 780 l 1,1,-1
 842 780 l 1,2,-1
 842 608 l 1,3,-1
 541 608 l 1,4,-1
 541 172 l 1,5,-1
 934 172 l 1,6,-1
 918 0 l 1,7,-1
 102 0 l 1,8,-1
 102 1352 l 1,9,-1
 903 1352 l 1,10,-1
 903 1180 l 1,11,-1
 541 1180 l 1,0,-1
899 1714 m 1,12,13
 899 1651 899 1651 880 1602.5 c 128,-1,14
 861 1554 861 1554 817 1514.5 c 128,-1,15
 773 1475 773 1475 693.5 1454.5 c 128,-1,16
 614 1434 614 1434 502 1434 c 128,-1,17
 390 1434 390 1434 310.5 1454.5 c 128,-1,18
 231 1475 231 1475 187.5 1514.5 c 128,-1,19
 144 1554 144 1554 125 1602.5 c 128,-1,20
 106 1651 106 1651 106 1714 c 1,21,-1
 408 1714 l 1,22,23
 408 1702 408 1702 407 1681 c 128,-1,24
 406 1660 406 1660 406 1649 c 0,25,26
 406 1597 406 1597 425 1568.5 c 128,-1,27
 444 1540 444 1540 502 1540 c 0,28,29
 561 1540 561 1540 580.5 1570 c 128,-1,30
 600 1600 600 1600 600 1655 c 0,31,32
 600 1665 600 1665 599 1684.5 c 128,-1,33
 598 1704 598 1704 598 1714 c 1,34,-1
 899 1714 l 1,12,13
EndSplineSet
Validated: 8388609
Position2: "'cpsp' Capital Spacing lookup 3 subtable" dx=10 dy=0 dh=20 dv=0
EndChar

StartChar: Ecaron
Encoding: 282 282 33
Width: 933
Flags: MW
HStem: 0 172<541 918> 608 172<541 842 541 842> 1180 172<541 541 541 903>
VStem: 102 438<172 608 780 1180>
LayerCount: 2
Fore
SplineSet
541 1180 m 1,0,-1
 541 780 l 1,1,-1
 842 780 l 1,2,-1
 842 608 l 1,3,-1
 541 608 l 1,4,-1
 541 172 l 1,5,-1
 934 172 l 1,6,-1
 918 0 l 1,7,-1
 102 0 l 1,8,-1
 102 1352 l 1,9,-1
 903 1352 l 1,10,-1
 903 1180 l 1,11,-1
 541 1180 l 1,0,-1
856 1661 m 1,12,-1
 567 1423 l 1,13,-1
 436 1423 l 1,14,-1
 139 1661 l 1,15,-1
 221 1755 l 1,16,-1
 498 1649 l 1,17,-1
 776 1755 l 1,18,-1
 856 1661 l 1,12,-1
EndSplineSet
Validated: 1
Position2: "'cpsp' Capital Spacing lookup 3 subtable" dx=10 dy=0 dh=20 dv=0
EndChar

StartChar: Ecircumflex
Encoding: 202 202 34
Width: 933
Flags: MW
HStem: 0 172<541 918> 608 172<541 842 541 842> 1180 172<541 541 541 903>
VStem: 102 438<172 608 780 1180>
LayerCount: 2
Fore
SplineSet
541 1180 m 1,0,-1
 541 780 l 1,1,-1
 842 780 l 1,2,-1
 842 608 l 1,3,-1
 541 608 l 1,4,-1
 541 172 l 1,5,-1
 934 172 l 1,6,-1
 918 0 l 1,7,-1
 102 0 l 1,8,-1
 102 1352 l 1,9,-1
 903 1352 l 1,10,-1
 903 1180 l 1,11,-1
 541 1180 l 1,0,-1
143 1497 m 1,12,-1
 455 1733 l 1,13,-1
 543 1733 l 1,14,-1
 858 1497 l 1,15,-1
 778 1401 l 1,16,-1
 502 1505 l 1,17,-1
 223 1401 l 1,18,-1
 143 1497 l 1,12,-1
EndSplineSet
Validated: 1
Position2: "'cpsp' Capital Spacing lookup 3 subtable" dx=10 dy=0 dh=20 dv=0
EndChar

StartChar: Edieresis
Encoding: 203 203 35
Width: 933
Flags: MW
HStem: 0 172<541 918> 608 172<541 842 541 842> 1180 172<541 541 541 903> 1456 328<209 329 680 800>
VStem: 45 444<1566 1670> 102 438<172 608 780 1180> 516 444<1566 1670>
LayerCount: 2
Fore
SplineSet
541 1180 m 1,0,-1
 541 780 l 1,1,-1
 842 780 l 1,2,-1
 842 608 l 1,3,-1
 541 608 l 1,4,-1
 541 172 l 1,5,-1
 934 172 l 1,6,-1
 918 0 l 1,7,-1
 102 0 l 1,8,-1
 102 1352 l 1,9,-1
 903 1352 l 1,10,-1
 903 1180 l 1,11,-1
 541 1180 l 1,0,-1
743 1784 m 0,12,13
 841 1784 841 1784 901 1740.5 c 128,-1,14
 961 1697 961 1697 961 1620 c 0,15,16
 961 1541 961 1541 898.5 1498.5 c 128,-1,17
 836 1456 836 1456 735 1456 c 0,18,19
 637 1456 637 1456 576.5 1498 c 128,-1,20
 516 1540 516 1540 516 1616 c 0,21,22
 516 1695 516 1695 580 1739.5 c 128,-1,23
 644 1784 644 1784 743 1784 c 0,12,13
272 1784 m 0,24,25
 370 1784 370 1784 429.5 1740.5 c 128,-1,26
 489 1697 489 1697 489 1620 c 0,27,28
 489 1541 489 1541 427 1498.5 c 128,-1,29
 365 1456 365 1456 264 1456 c 0,30,31
 166 1456 166 1456 105.5 1498 c 128,-1,32
 45 1540 45 1540 45 1616 c 0,33,34
 45 1695 45 1695 109 1739.5 c 128,-1,35
 173 1784 173 1784 272 1784 c 0,24,25
EndSplineSet
Validated: 8388609
Position2: "'cpsp' Capital Spacing lookup 3 subtable" dx=10 dy=0 dh=20 dv=0
EndChar

StartChar: Edotaccent
Encoding: 278 278 36
Width: 933
Flags: MW
HStem: 0 172<541 918> 608 172<541 842 541 842> 1180 172<541 541 541 903> 1452 328<449 568>
VStem: 102 438<172 608 780 1180> 285 444<1562 1666>
LayerCount: 2
Fore
SplineSet
541 1180 m 1,0,-1
 541 780 l 1,1,-1
 842 780 l 1,2,-1
 842 608 l 1,3,-1
 541 608 l 1,4,-1
 541 172 l 1,5,-1
 934 172 l 1,6,-1
 918 0 l 1,7,-1
 102 0 l 1,8,-1
 102 1352 l 1,9,-1
 903 1352 l 1,10,-1
 903 1180 l 1,11,-1
 541 1180 l 1,0,-1
512 1780 m 0,12,13
 610 1780 610 1780 669.5 1736.5 c 128,-1,14
 729 1693 729 1693 729 1616 c 0,15,16
 729 1537 729 1537 667 1494.5 c 128,-1,17
 605 1452 605 1452 504 1452 c 0,18,19
 406 1452 406 1452 345.5 1494 c 128,-1,20
 285 1536 285 1536 285 1612 c 0,21,22
 285 1691 285 1691 349 1735.5 c 128,-1,23
 413 1780 413 1780 512 1780 c 0,12,13
EndSplineSet
Validated: 8388609
Position2: "'cpsp' Capital Spacing lookup 3 subtable" dx=10 dy=0 dh=20 dv=0
EndChar

StartChar: Edotbelow
Encoding: 7864 7864 37
Width: 933
Flags: MW
HStem: -412 328<414 534> 0 172<541 918> 608 172<541 842 541 842> 1180 172<541 541 541 903>
VStem: 102 438<172 608 780 1180> 250 444<-302 -198>
LayerCount: 2
Fore
SplineSet
477 -84 m 0,0,1
 575 -84 575 -84 634.5 -127.5 c 128,-1,2
 694 -171 694 -171 694 -248 c 0,3,4
 694 -327 694 -327 632 -369.5 c 128,-1,5
 570 -412 570 -412 469 -412 c 0,6,7
 371 -412 371 -412 310.5 -370 c 128,-1,8
 250 -328 250 -328 250 -252 c 0,9,10
 250 -173 250 -173 314 -128.5 c 128,-1,11
 378 -84 378 -84 477 -84 c 0,0,1
541 1180 m 1,12,-1
 541 780 l 1,13,-1
 842 780 l 1,14,-1
 842 608 l 1,15,-1
 541 608 l 1,16,-1
 541 172 l 1,17,-1
 934 172 l 1,18,-1
 918 0 l 1,19,-1
 102 0 l 1,20,-1
 102 1352 l 1,21,-1
 903 1352 l 1,22,-1
 903 1180 l 1,23,-1
 541 1180 l 1,12,-1
EndSplineSet
Validated: 8388609
Position2: "'cpsp' Capital Spacing lookup 3 subtable" dx=10 dy=0 dh=20 dv=0
EndChar

StartChar: Egrave
Encoding: 200 200 38
Width: 933
Flags: MW
HStem: 0 172<541 918> 608 172<541 842 541 842> 1180 172<541 541 541 903>
VStem: 102 438<172 608 780 1180>
LayerCount: 2
Fore
SplineSet
541 1180 m 1,0,-1
 541 780 l 1,1,-1
 842 780 l 1,2,-1
 842 608 l 1,3,-1
 541 608 l 1,4,-1
 541 172 l 1,5,-1
 934 172 l 1,6,-1
 918 0 l 1,7,-1
 102 0 l 1,8,-1
 102 1352 l 1,9,-1
 903 1352 l 1,10,-1
 903 1180 l 1,11,-1
 541 1180 l 1,0,-1
395 1475 m 2,12,13
 359 1478 359 1478 344 1479 c 128,-1,14
 329 1480 329 1480 295 1484.5 c 128,-1,15
 261 1489 261 1489 244.5 1494.5 c 128,-1,16
 228 1500 228 1500 203 1510.5 c 128,-1,17
 178 1521 178 1521 166 1534.5 c 128,-1,18
 154 1548 154 1548 144.5 1569 c 128,-1,19
 135 1590 135 1590 135 1616 c 0,20,21
 135 1656 135 1656 157 1697 c 128,-1,22
 179 1738 179 1738 213 1767 c 1,23,-1
 719 1559 l 1,24,-1
 694 1454 l 1,25,-1
 395 1475 l 2,12,13
EndSplineSet
Validated: 1
Position2: "'cpsp' Capital Spacing lookup 3 subtable" dx=10 dy=0 dh=20 dv=0
EndChar

StartChar: Emacron
Encoding: 274 274 39
Width: 933
Flags: MW
HStem: 0 172<541 918> 608 172<541 842 541 842> 1180 172<541 541 541 903> 1503 188<336 733 238 831>
VStem: 102 438<172 608 780 1180>
LayerCount: 2
Fore
SplineSet
541 1180 m 1,0,-1
 541 780 l 1,1,-1
 842 780 l 1,2,-1
 842 608 l 1,3,-1
 541 608 l 1,4,-1
 541 172 l 1,5,-1
 934 172 l 1,6,-1
 918 0 l 1,7,-1
 102 0 l 1,8,-1
 102 1352 l 1,9,-1
 903 1352 l 1,10,-1
 903 1180 l 1,11,-1
 541 1180 l 1,0,-1
831 1692 m 1,12,13
 850 1660 850 1660 850 1612 c 0,14,15
 850 1562 850 1562 818.5 1532.5 c 128,-1,16
 787 1503 787 1503 733 1503 c 2,17,-1
 238 1503 l 1,18,19
 219 1535 219 1535 219 1583 c 0,20,21
 219 1633 219 1633 250.5 1662.5 c 128,-1,22
 282 1692 282 1692 336 1692 c 2,23,-1
 831 1692 l 1,12,13
EndSplineSet
Validated: 1
Position2: "'cpsp' Capital Spacing lookup 3 subtable" dx=10 dy=0 dh=20 dv=0
EndChar

StartChar: Eogonek
Encoding: 280 280 40
Width: 933
Flags: MW
HStem: -541 176<825 846> 0 172<541 754 903 918 903 903> 608 172<541 842 541 842> 1180 172<541 903 541 541>
VStem: 102 438<172 608 780 1180> 502 248<-300 -255>
LayerCount: 2
Fore
SplineSet
903 0 m 1,0,1
 750 -121 750 -121 750 -258 c 0,2,3
 750 -319 750 -319 776.5 -342 c 128,-1,4
 803 -365 803 -365 864 -365 c 0,5,6
 896 -365 896 -365 929.5 -351.5 c 128,-1,7
 963 -338 963 -338 977 -313 c 1,8,9
 1030 -352 1030 -352 1030 -401 c 0,10,11
 1030 -438 1030 -438 1007 -466.5 c 128,-1,12
 984 -495 984 -495 948 -510.5 c 128,-1,13
 912 -526 912 -526 875.5 -533.5 c 128,-1,14
 839 -541 839 -541 805 -541 c 0,15,16
 744 -541 744 -541 691.5 -529.5 c 128,-1,17
 639 -518 639 -518 595.5 -494.5 c 128,-1,18
 552 -471 552 -471 527 -428.5 c 128,-1,19
 502 -386 502 -386 502 -330 c 0,20,21
 502 -136 502 -136 754 0 c 1,22,-1
 102 0 l 1,23,-1
 102 1352 l 1,24,-1
 903 1352 l 1,25,-1
 903 1180 l 1,26,-1
 541 1180 l 1,27,-1
 541 780 l 1,28,-1
 842 780 l 1,29,-1
 842 608 l 1,30,-1
 541 608 l 1,31,-1
 541 172 l 1,32,-1
 934 172 l 1,33,-1
 920 23 l 1,34,-1
 932 20 l 1,35,-1
 920 10 l 1,36,-1
 918 0 l 1,37,-1
 903 0 l 1,0,1
EndSplineSet
Validated: 8388609
Position2: "'cpsp' Capital Spacing lookup 3 subtable" dx=10 dy=0 dh=20 dv=0
EndChar

StartChar: Etilde
Encoding: 7868 7868 41
Width: 933
Flags: MW
HStem: 0 172<541 918> 608 172<541 842 541 842> 1180 172<541 541 541 903> 1456 213<676 757 676 762> 1497 213<251 333>
VStem: 102 438<172 608 780 1180>
LayerCount: 2
Fore
SplineSet
541 1180 m 1,0,-1
 541 780 l 1,1,-1
 842 780 l 1,2,-1
 842 608 l 1,3,-1
 541 608 l 1,4,-1
 541 172 l 1,5,-1
 934 172 l 1,6,-1
 918 0 l 1,7,-1
 102 0 l 1,8,-1
 102 1352 l 1,9,-1
 903 1352 l 1,10,-1
 903 1180 l 1,11,-1
 541 1180 l 1,0,-1
864 1710 m 1,12,13
 911 1653 911 1653 911 1587 c 0,14,15
 911 1512 911 1512 857 1484 c 128,-1,16
 803 1456 803 1456 707 1456 c 0,17,18
 651 1456 651 1456 492 1476.5 c 128,-1,19
 333 1497 333 1497 274 1497 c 0,20,21
 184 1497 184 1497 143 1456 c 1,22,23
 96 1513 96 1513 96 1579 c 0,24,25
 96 1654 96 1654 150.5 1682 c 128,-1,26
 205 1710 205 1710 301 1710 c 0,27,28
 357 1710 357 1710 516 1689.5 c 128,-1,29
 675 1669 675 1669 733 1669 c 0,30,31
 823 1669 823 1669 864 1710 c 1,12,13
EndSplineSet
Validated: 8388609
Position2: "'cpsp' Capital Spacing lookup 3 subtable" dx=10 dy=0 dh=20 dv=0
EndChar

StartChar: F
Encoding: 70 70 42
Width: 905
Flags: MW
HStem: 580 172<541 842 541 842> 1180 172<541 903 541 541>
VStem: 102 438<0 580 752 1180>
LayerCount: 2
Fore
SplineSet
903 1180 m 1,0,-1
 541 1180 l 1,1,-1
 541 752 l 1,2,-1
 842 752 l 1,3,-1
 842 580 l 1,4,-1
 541 580 l 1,5,-1
 541 0 l 1,6,-1
 102 0 l 1,7,-1
 102 1352 l 1,8,-1
 903 1352 l 1,9,-1
 903 1180 l 1,0,-1
EndSplineSet
Validated: 1
Position2: "'cpsp' Capital Spacing lookup 3 subtable" dx=10 dy=0 dh=20 dv=0
EndChar

StartChar: G
Encoding: 71 71 43
Width: 1251
Flags: MW
HStem: -45 258<656 785> 1241 152<617 767>
VStem: 41 471<617 837 617 901> 864 350<1042 1070> 872 311
LayerCount: 2
Fore
SplineSet
1184 39 m 1,0,1
 969 -45 969 -45 702 -45 c 0,2,3
 565 -45 565 -45 454 -9 c 128,-1,4
 343 27 343 27 266.5 91 c 128,-1,5
 190 155 190 155 139 245.5 c 128,-1,6
 88 336 88 336 64.5 441 c 128,-1,7
 41 546 41 546 41 668 c 0,8,9
 41 1022 41 1022 215.5 1207.5 c 128,-1,10
 390 1393 390 1393 735 1393 c 0,11,12
 1214 1393 1214 1393 1214 1116 c 0,13,14
 1214 1009 1214 1009 1140.5 947 c 128,-1,15
 1067 885 1067 885 958 885 c 0,16,17
 892 885 892 885 852 897 c 1,18,19
 864 958 864 958 864 1010 c 0,20,21
 864 1112 864 1112 827.5 1176.5 c 128,-1,22
 791 1241 791 1241 707 1241 c 0,23,24
 512 1241 512 1241 512 748 c 0,25,26
 512 685 512 685 514 636 c 128,-1,27
 516 587 516 587 522.5 529 c 128,-1,28
 529 471 529 471 540 428 c 128,-1,29
 551 385 551 385 571 342.5 c 128,-1,30
 591 300 591 300 618.5 273 c 128,-1,31
 646 246 646 246 686 229.5 c 128,-1,32
 726 213 726 213 776 213 c 0,33,34
 831 213 831 213 881 229 c 1,35,-1
 866 621 l 1,36,-1
 1184 649 l 1,37,-1
 1184 39 l 1,0,1
EndSplineSet
Validated: 8388609
Position2: "'cpsp' Capital Spacing lookup 3 subtable" dx=10 dy=0 dh=20 dv=0
EndChar

StartChar: Gbreve
Encoding: 286 286 44
Width: 1251
Flags: MW
HStem: -45 258<656 785> 1241 152<617 767> 1434 106<667 766 667 863>
VStem: 41 471<617 837 617 901> 313 299<1634 1660 1619 1714> 805 301<1673 1714> 864 350<1042 1070> 872 311
LayerCount: 2
Fore
SplineSet
1184 39 m 1,0,1
 969 -45 969 -45 702 -45 c 0,2,3
 565 -45 565 -45 454 -9 c 128,-1,4
 343 27 343 27 266.5 91 c 128,-1,5
 190 155 190 155 139 245.5 c 128,-1,6
 88 336 88 336 64.5 441 c 128,-1,7
 41 546 41 546 41 668 c 0,8,9
 41 1022 41 1022 215.5 1207.5 c 128,-1,10
 390 1393 390 1393 735 1393 c 0,11,12
 1214 1393 1214 1393 1214 1116 c 0,13,14
 1214 1009 1214 1009 1140.5 947 c 128,-1,15
 1067 885 1067 885 958 885 c 0,16,17
 892 885 892 885 852 897 c 1,18,19
 864 958 864 958 864 1010 c 0,20,21
 864 1112 864 1112 827.5 1176.5 c 128,-1,22
 791 1241 791 1241 707 1241 c 0,23,24
 512 1241 512 1241 512 748 c 0,25,26
 512 685 512 685 514 636 c 128,-1,27
 516 587 516 587 522.5 529 c 128,-1,28
 529 471 529 471 540 428 c 128,-1,29
 551 385 551 385 571 342.5 c 128,-1,30
 591 300 591 300 618.5 273 c 128,-1,31
 646 246 646 246 686 229.5 c 128,-1,32
 726 213 726 213 776 213 c 0,33,34
 831 213 831 213 881 229 c 1,35,-1
 866 621 l 1,36,-1
 1184 649 l 1,37,-1
 1184 39 l 1,0,1
1106 1714 m 1,38,39
 1106 1651 1106 1651 1087 1602.5 c 128,-1,40
 1068 1554 1068 1554 1024 1514.5 c 128,-1,41
 980 1475 980 1475 900.5 1454.5 c 128,-1,42
 821 1434 821 1434 709 1434 c 128,-1,43
 597 1434 597 1434 517.5 1454.5 c 128,-1,44
 438 1475 438 1475 394.5 1514.5 c 128,-1,45
 351 1554 351 1554 332 1602.5 c 128,-1,46
 313 1651 313 1651 313 1714 c 1,47,-1
 614 1714 l 1,48,49
 614 1702 614 1702 613 1681 c 128,-1,50
 612 1660 612 1660 612 1649 c 0,51,52
 612 1597 612 1597 631.5 1568.5 c 128,-1,53
 651 1540 651 1540 709 1540 c 0,54,55
 768 1540 768 1540 787.5 1570 c 128,-1,56
 807 1600 807 1600 807 1655 c 0,57,58
 807 1665 807 1665 806 1684.5 c 128,-1,59
 805 1704 805 1704 805 1714 c 1,60,-1
 1106 1714 l 1,38,39
EndSplineSet
Validated: 8388609
Position2: "'cpsp' Capital Spacing lookup 3 subtable" dx=10 dy=0 dh=20 dv=0
EndChar

StartChar: Gcircumflex
Encoding: 284 284 45
Width: 1251
Flags: MW
HStem: -45 258<656 785> 1241 152<617 767>
VStem: 41 471<617 837 617 901> 864 350<1042 1070> 872 311
LayerCount: 2
Fore
SplineSet
1184 39 m 1,0,1
 969 -45 969 -45 702 -45 c 0,2,3
 565 -45 565 -45 454 -9 c 128,-1,4
 343 27 343 27 266.5 91 c 128,-1,5
 190 155 190 155 139 245.5 c 128,-1,6
 88 336 88 336 64.5 441 c 128,-1,7
 41 546 41 546 41 668 c 0,8,9
 41 1022 41 1022 215.5 1207.5 c 128,-1,10
 390 1393 390 1393 735 1393 c 0,11,12
 1214 1393 1214 1393 1214 1116 c 0,13,14
 1214 1009 1214 1009 1140.5 947 c 128,-1,15
 1067 885 1067 885 958 885 c 0,16,17
 892 885 892 885 852 897 c 1,18,19
 864 958 864 958 864 1010 c 0,20,21
 864 1112 864 1112 827.5 1176.5 c 128,-1,22
 791 1241 791 1241 707 1241 c 0,23,24
 512 1241 512 1241 512 748 c 0,25,26
 512 685 512 685 514 636 c 128,-1,27
 516 587 516 587 522.5 529 c 128,-1,28
 529 471 529 471 540 428 c 128,-1,29
 551 385 551 385 571 342.5 c 128,-1,30
 591 300 591 300 618.5 273 c 128,-1,31
 646 246 646 246 686 229.5 c 128,-1,32
 726 213 726 213 776 213 c 0,33,34
 831 213 831 213 881 229 c 1,35,-1
 866 621 l 1,36,-1
 1184 649 l 1,37,-1
 1184 39 l 1,0,1
350 1497 m 1,38,-1
 662 1733 l 1,39,-1
 750 1733 l 1,40,-1
 1065 1497 l 1,41,-1
 985 1401 l 1,42,-1
 709 1505 l 1,43,-1
 430 1401 l 1,44,-1
 350 1497 l 1,38,-1
EndSplineSet
Validated: 8388609
Position2: "'cpsp' Capital Spacing lookup 3 subtable" dx=10 dy=0 dh=20 dv=0
EndChar

StartChar: Gcommaaccent
Encoding: 290 290 46
Width: 1251
Flags: MW
HStem: -528 424<714 727> -45 258<656 785> 1241 152<617 767>
VStem: 41 471<617 837 617 901> 649 281<-338 -275> 864 350<1042 1070> 872 311
LayerCount: 2
Fore
SplineSet
737 -104 m 0,0,1
 838 -104 838 -104 884 -144 c 128,-1,2
 930 -184 930 -184 930 -270 c 0,3,4
 930 -373 930 -373 847.5 -450.5 c 128,-1,5
 765 -528 765 -528 647 -528 c 0,6,7
 640 -528 640 -528 565 -522 c 1,8,9
 649 -414 649 -414 649 -307 c 0,10,11
 649 -210 649 -210 602 -135 c 1,12,13
 620 -122 620 -122 660.5 -113 c 128,-1,14
 701 -104 701 -104 737 -104 c 0,0,1
1184 39 m 1,15,16
 969 -45 969 -45 702 -45 c 0,17,18
 565 -45 565 -45 454 -9 c 128,-1,19
 343 27 343 27 266.5 91 c 128,-1,20
 190 155 190 155 139 245.5 c 128,-1,21
 88 336 88 336 64.5 441 c 128,-1,22
 41 546 41 546 41 668 c 0,23,24
 41 1022 41 1022 215.5 1207.5 c 128,-1,25
 390 1393 390 1393 735 1393 c 0,26,27
 1214 1393 1214 1393 1214 1116 c 0,28,29
 1214 1009 1214 1009 1140.5 947 c 128,-1,30
 1067 885 1067 885 958 885 c 0,31,32
 892 885 892 885 852 897 c 1,33,34
 864 958 864 958 864 1010 c 0,35,36
 864 1112 864 1112 827.5 1176.5 c 128,-1,37
 791 1241 791 1241 707 1241 c 0,38,39
 512 1241 512 1241 512 748 c 0,40,41
 512 685 512 685 514 636 c 128,-1,42
 516 587 516 587 522.5 529 c 128,-1,43
 529 471 529 471 540 428 c 128,-1,44
 551 385 551 385 571 342.5 c 128,-1,45
 591 300 591 300 618.5 273 c 128,-1,46
 646 246 646 246 686 229.5 c 128,-1,47
 726 213 726 213 776 213 c 0,48,49
 831 213 831 213 881 229 c 1,50,-1
 866 621 l 1,51,-1
 1184 649 l 1,52,-1
 1184 39 l 1,15,16
EndSplineSet
Validated: 8388609
Position2: "'cpsp' Capital Spacing lookup 3 subtable" dx=10 dy=0 dh=20 dv=0
EndChar

StartChar: Gdotaccent
Encoding: 288 288 47
Width: 1251
Flags: MW
HStem: -45 258<656 785> 1241 152<617 767> 1516 328<647 767>
VStem: 41 471<617 837 617 901> 483 444<1625 1730> 864 350<1042 1070> 872 311
LayerCount: 2
Fore
SplineSet
1184 39 m 1,0,1
 969 -45 969 -45 702 -45 c 0,2,3
 565 -45 565 -45 454 -9 c 128,-1,4
 343 27 343 27 266.5 91 c 128,-1,5
 190 155 190 155 139 245.5 c 128,-1,6
 88 336 88 336 64.5 441 c 128,-1,7
 41 546 41 546 41 668 c 0,8,9
 41 1022 41 1022 215.5 1207.5 c 128,-1,10
 390 1393 390 1393 735 1393 c 0,11,12
 1214 1393 1214 1393 1214 1116 c 0,13,14
 1214 1009 1214 1009 1140.5 947 c 128,-1,15
 1067 885 1067 885 958 885 c 0,16,17
 892 885 892 885 852 897 c 1,18,19
 864 958 864 958 864 1010 c 0,20,21
 864 1112 864 1112 827.5 1176.5 c 128,-1,22
 791 1241 791 1241 707 1241 c 0,23,24
 512 1241 512 1241 512 748 c 0,25,26
 512 685 512 685 514 636 c 128,-1,27
 516 587 516 587 522.5 529 c 128,-1,28
 529 471 529 471 540 428 c 128,-1,29
 551 385 551 385 571 342.5 c 128,-1,30
 591 300 591 300 618.5 273 c 128,-1,31
 646 246 646 246 686 229.5 c 128,-1,32
 726 213 726 213 776 213 c 0,33,34
 831 213 831 213 881 229 c 1,35,-1
 866 621 l 1,36,-1
 1184 649 l 1,37,-1
 1184 39 l 1,0,1
711 1843 m 0,38,39
 809 1843 809 1843 868.5 1799.5 c 128,-1,40
 928 1756 928 1756 928 1679 c 0,41,42
 928 1600 928 1600 865.5 1558 c 128,-1,43
 803 1516 803 1516 702 1516 c 0,44,45
 604 1516 604 1516 543.5 1557.5 c 128,-1,46
 483 1599 483 1599 483 1675 c 0,47,48
 483 1754 483 1754 547.5 1798.5 c 128,-1,49
 612 1843 612 1843 711 1843 c 0,38,39
EndSplineSet
Validated: 8388609
Position2: "'cpsp' Capital Spacing lookup 3 subtable" dx=10 dy=0 dh=20 dv=0
EndChar

StartChar: H
Encoding: 72 72 48
Width: 1380
Flags: MW
HStem: 598 172<541 840 541 840> 1311 41G<102 541 541 541 840 1278 1278 1278>
VStem: 102 438<0 598 0 770 770 1352> 840 438<0 598 598 598 770 1352>
LayerCount: 2
Fore
SplineSet
1278 0 m 1,0,-1
 840 0 l 1,1,-1
 840 598 l 1,2,-1
 541 598 l 1,3,-1
 541 0 l 1,4,-1
 102 0 l 1,5,-1
 102 1352 l 1,6,-1
 541 1352 l 1,7,-1
 541 770 l 1,8,-1
 840 770 l 1,9,-1
 840 1352 l 1,10,-1
 1278 1352 l 1,11,-1
 1278 0 l 1,0,-1
EndSplineSet
Validated: 1
Position2: "'cpsp' Capital Spacing lookup 3 subtable" dx=10 dy=0 dh=20 dv=0
EndChar

StartChar: Hbar
Encoding: 294 294 49
Width: 1456
Flags: MW
HStem: 598 172<578 879 578 879> 991 188<97 139 97 139 10 139 578 879 1317 1358> 991 360<10 578 10 578 139 578 139 879>
VStem: 139 438<0 598 0 770 770 991 0 991 1180 1352> 879 438<0 598 598 598 770 991 0 991 1180 1352 0 1352>
LayerCount: 2
Fore
SplineSet
879 991 m 1,0,-1
 578 991 l 1,1,-1
 578 770 l 1,2,-1
 879 770 l 1,3,-1
 879 991 l 1,0,-1
1448 1180 m 1,4,5
 1456 1144 1456 1144 1456 1118 c 0,6,7
 1456 1055 1456 1055 1418.5 1023 c 128,-1,8
 1381 991 1381 991 1317 991 c 1,9,-1
 1317 0 l 1,10,-1
 879 0 l 1,11,-1
 879 598 l 1,12,-1
 578 598 l 1,13,-1
 578 0 l 1,14,-1
 139 0 l 1,15,-1
 139 991 l 1,16,-1
 10 991 l 1,17,18
 2 1015 2 1015 2 1053 c 0,19,20
 2 1116 2 1116 38 1148 c 128,-1,21
 74 1180 74 1180 139 1180 c 1,22,-1
 139 1352 l 1,23,-1
 578 1352 l 1,24,-1
 578 1180 l 1,25,-1
 879 1180 l 1,26,-1
 879 1352 l 1,27,-1
 1317 1352 l 1,28,-1
 1317 1180 l 1,29,-1
 1448 1180 l 1,4,5
EndSplineSet
Validated: 8388609
Position2: "'cpsp' Capital Spacing lookup 3 subtable" dx=10 dy=0 dh=20 dv=0
EndChar

StartChar: Hcircumflex
Encoding: 292 292 50
Width: 1380
Flags: MW
HStem: 598 172<541 840 541 840> 1311 41G<102 541 541 541 840 1278 1278 1278>
VStem: 102 438<0 598 0 770 770 1352> 840 438<0 598 598 598 770 1352 0 1352>
LayerCount: 2
Fore
SplineSet
840 0 m 1,0,-1
 840 598 l 1,1,-1
 541 598 l 1,2,-1
 541 0 l 1,3,-1
 102 0 l 1,4,-1
 102 1352 l 1,5,-1
 541 1352 l 1,6,-1
 541 770 l 1,7,-1
 840 770 l 1,8,-1
 840 1352 l 1,9,-1
 1278 1352 l 1,10,-1
 1278 0 l 1,11,-1
 840 0 l 1,0,-1
332 1497 m 1,12,-1
 643 1733 l 1,13,-1
 731 1733 l 1,14,-1
 1047 1497 l 1,15,-1
 967 1401 l 1,16,-1
 690 1505 l 1,17,-1
 412 1401 l 1,18,-1
 332 1497 l 1,12,-1
EndSplineSet
Validated: 1
Position2: "'cpsp' Capital Spacing lookup 3 subtable" dx=10 dy=0 dh=20 dv=0
EndChar

StartChar: Hdotbelow
Encoding: 7716 7716 51
Width: 1380
Flags: MW
HStem: -412 328<623 742> 598 172<541 840 541 840> 1311 41G<102 541 541 541 840 1278 1278 1278>
VStem: 102 438<0 598 0 770 770 1352> 459 444<-302 -198> 840 438<0 598 598 598 770 1352 0 1352>
LayerCount: 2
Fore
SplineSet
686 -84 m 0,0,1
 784 -84 784 -84 843.5 -127.5 c 128,-1,2
 903 -171 903 -171 903 -248 c 0,3,4
 903 -327 903 -327 841 -369.5 c 128,-1,5
 779 -412 779 -412 678 -412 c 0,6,7
 580 -412 580 -412 519.5 -370 c 128,-1,8
 459 -328 459 -328 459 -252 c 0,9,10
 459 -173 459 -173 523 -128.5 c 128,-1,11
 587 -84 587 -84 686 -84 c 0,0,1
840 0 m 1,12,-1
 840 598 l 1,13,-1
 541 598 l 1,14,-1
 541 0 l 1,15,-1
 102 0 l 1,16,-1
 102 1352 l 1,17,-1
 541 1352 l 1,18,-1
 541 770 l 1,19,-1
 840 770 l 1,20,-1
 840 1352 l 1,21,-1
 1278 1352 l 1,22,-1
 1278 0 l 1,23,-1
 840 0 l 1,12,-1
EndSplineSet
Validated: 8388609
Position2: "'cpsp' Capital Spacing lookup 3 subtable" dx=10 dy=0 dh=20 dv=0
EndChar

StartChar: I
Encoding: 73 73 52
Width: 643
Flags: MW
HStem: 1311 41G<102 541 541 541>
VStem: 102 438<0 1352>
LayerCount: 2
Fore
SplineSet
541 0 m 1,0,-1
 102 0 l 1,1,-1
 102 1352 l 1,2,-1
 541 1352 l 1,3,-1
 541 0 l 1,0,-1
EndSplineSet
Validated: 1
Position2: "'cpsp' Capital Spacing lookup 3 subtable" dx=10 dy=0 dh=20 dv=0
EndChar

StartChar: IJ
Encoding: 306 306 53
Width: 1286
Flags: MW
HStem: 1311 41G<102 541 541 541 745 1184 1184 1184>
VStem: 102 438<0 1352 0 1352> 745 438<106 162 162 1352>
LayerCount: 2
Fore
SplineSet
1184 162 m 2,0,1
 1184 67 1184 67 1174.5 -10 c 128,-1,2
 1165 -87 1165 -87 1140 -160 c 128,-1,3
 1115 -233 1115 -233 1074.5 -282.5 c 128,-1,4
 1034 -332 1034 -332 969 -361.5 c 128,-1,5
 904 -391 904 -391 817 -391 c 0,6,7
 732 -391 732 -391 660.5 -365 c 128,-1,8
 589 -339 589 -339 561 -279 c 1,9,10
 599 -274 599 -274 628 -259 c 128,-1,11
 657 -244 657 -244 676 -225 c 128,-1,12
 695 -206 695 -206 708.5 -174 c 128,-1,13
 722 -142 722 -142 729 -115 c 128,-1,14
 736 -88 736 -88 740 -44.5 c 128,-1,15
 744 -1 744 -1 744.5 28.5 c 128,-1,16
 745 58 745 58 745 106 c 2,17,-1
 745 1352 l 1,18,-1
 1184 1352 l 1,19,-1
 1184 162 l 2,0,1
102 0 m 1,20,-1
 102 1352 l 1,21,-1
 541 1352 l 1,22,-1
 541 0 l 1,23,-1
 102 0 l 1,20,-1
EndSplineSet
Validated: 1
Position2: "'cpsp' Capital Spacing lookup 3 subtable" dx=10 dy=0 dh=20 dv=0
EndChar

StartChar: Iacute
Encoding: 205 205 54
Width: 643
Flags: MW
HStem: 1311 41G<102 541 541 541>
VStem: 102 438<0 1352 0 1352>
LayerCount: 2
Fore
SplineSet
102 0 m 1,0,-1
 102 1352 l 1,1,-1
 541 1352 l 1,2,-1
 541 0 l 1,3,-1
 102 0 l 1,0,-1
610 1765 m 1,4,5
 644 1736 644 1736 666 1695 c 128,-1,6
 688 1654 688 1654 688 1614 c 0,7,8
 688 1588 688 1588 678.5 1567 c 128,-1,9
 669 1546 669 1546 657 1532.5 c 128,-1,10
 645 1519 645 1519 620 1508.5 c 128,-1,11
 595 1498 595 1498 578.5 1492.5 c 128,-1,12
 562 1487 562 1487 528 1482.5 c 128,-1,13
 494 1478 494 1478 479 1477 c 128,-1,14
 464 1476 464 1476 428 1473 c 2,15,-1
 129 1452 l 1,16,-1
 104 1556 l 1,17,-1
 610 1765 l 1,4,5
EndSplineSet
Validated: 1
Position2: "'cpsp' Capital Spacing lookup 3 subtable" dx=10 dy=0 dh=20 dv=0
EndChar

StartChar: Ibreve
Encoding: 300 300 55
Width: 643
Flags: MW
HStem: 1311 41G<102 541 541 541> 1434 106<280 379 280 476>
VStem: -74 299<1634 1660 1619 1714> 102 438<0 1352 0 1352> 418 301<1673 1714>
LayerCount: 2
Fore
SplineSet
102 0 m 1,0,-1
 102 1352 l 1,1,-1
 541 1352 l 1,2,-1
 541 0 l 1,3,-1
 102 0 l 1,0,-1
719 1714 m 1,4,5
 719 1651 719 1651 700 1602.5 c 128,-1,6
 681 1554 681 1554 637 1514.5 c 128,-1,7
 593 1475 593 1475 513.5 1454.5 c 128,-1,8
 434 1434 434 1434 322 1434 c 128,-1,9
 210 1434 210 1434 130.5 1454.5 c 128,-1,10
 51 1475 51 1475 7.5 1514.5 c 128,-1,11
 -36 1554 -36 1554 -55 1602.5 c 128,-1,12
 -74 1651 -74 1651 -74 1714 c 1,13,-1
 227 1714 l 1,14,15
 227 1702 227 1702 226 1681 c 128,-1,16
 225 1660 225 1660 225 1649 c 0,17,18
 225 1597 225 1597 244.5 1568.5 c 128,-1,19
 264 1540 264 1540 322 1540 c 0,20,21
 381 1540 381 1540 400.5 1570 c 128,-1,22
 420 1600 420 1600 420 1655 c 0,23,24
 420 1665 420 1665 419 1684.5 c 128,-1,25
 418 1704 418 1704 418 1714 c 1,26,-1
 719 1714 l 1,4,5
EndSplineSet
Validated: 8388609
Position2: "'cpsp' Capital Spacing lookup 3 subtable" dx=10 dy=0 dh=20 dv=0
EndChar

StartChar: Icircumflex
Encoding: 206 206 56
Width: 643
Flags: MW
HStem: 1311 41G<102 541 541 541>
VStem: 102 438<0 1352 0 1352>
LayerCount: 2
Fore
SplineSet
102 0 m 1,0,-1
 102 1352 l 1,1,-1
 541 1352 l 1,2,-1
 541 0 l 1,3,-1
 102 0 l 1,0,-1
-39 1497 m 1,4,-1
 272 1733 l 1,5,-1
 360 1733 l 1,6,-1
 676 1497 l 1,7,-1
 596 1401 l 1,8,-1
 319 1505 l 1,9,-1
 41 1401 l 1,10,-1
 -39 1497 l 1,4,-1
EndSplineSet
Validated: 1
Position2: "'cpsp' Capital Spacing lookup 3 subtable" dx=10 dy=0 dh=20 dv=0
EndChar

StartChar: Idieresis
Encoding: 207 207 57
Width: 643
Flags: MW
HStem: 1311 41G<102 541 541 541> 1456 328<27 146 498 617>
VStem: 102 438<0 1352 0 1352>
LayerCount: 2
Fore
SplineSet
102 0 m 1,0,-1
 102 1352 l 1,1,-1
 541 1352 l 1,2,-1
 541 0 l 1,3,-1
 102 0 l 1,0,-1
561 1784 m 0,4,5
 659 1784 659 1784 718.5 1740.5 c 128,-1,6
 778 1697 778 1697 778 1620 c 0,7,8
 778 1541 778 1541 716 1498.5 c 128,-1,9
 654 1456 654 1456 553 1456 c 0,10,11
 455 1456 455 1456 394.5 1498 c 128,-1,12
 334 1540 334 1540 334 1616 c 0,13,14
 334 1695 334 1695 398 1739.5 c 128,-1,15
 462 1784 462 1784 561 1784 c 0,4,5
90 1784 m 0,16,17
 188 1784 188 1784 247.5 1740.5 c 128,-1,18
 307 1697 307 1697 307 1620 c 0,19,20
 307 1541 307 1541 245 1498.5 c 128,-1,21
 183 1456 183 1456 82 1456 c 0,22,23
 -16 1456 -16 1456 -76.5 1498 c 128,-1,24
 -137 1540 -137 1540 -137 1616 c 0,25,26
 -137 1695 -137 1695 -73 1739.5 c 128,-1,27
 -9 1784 -9 1784 90 1784 c 0,16,17
EndSplineSet
Validated: 1
Position2: "'cpsp' Capital Spacing lookup 3 subtable" dx=10 dy=0 dh=20 dv=0
EndChar

StartChar: Idotaccent
Encoding: 304 304 58
Width: 643
Flags: MW
HStem: 1311 41G<102 541 541 541> 1516 328<270 390>
VStem: 102 438<0 1352 0 1352> 106 444<1625 1730>
LayerCount: 2
Fore
SplineSet
102 0 m 1,0,-1
 102 1352 l 1,1,-1
 541 1352 l 1,2,-1
 541 0 l 1,3,-1
 102 0 l 1,0,-1
334 1843 m 0,4,5
 432 1843 432 1843 491.5 1799.5 c 128,-1,6
 551 1756 551 1756 551 1679 c 0,7,8
 551 1600 551 1600 489 1558 c 128,-1,9
 427 1516 427 1516 326 1516 c 0,10,11
 228 1516 228 1516 167 1557.5 c 128,-1,12
 106 1599 106 1599 106 1675 c 0,13,14
 106 1754 106 1754 170.5 1798.5 c 128,-1,15
 235 1843 235 1843 334 1843 c 0,4,5
EndSplineSet
Validated: 8388609
Position2: "'cpsp' Capital Spacing lookup 3 subtable" dx=10 dy=0 dh=20 dv=0
EndChar

StartChar: Idotbelow
Encoding: 7882 7882 59
Width: 643
Flags: MW
HStem: -412 328<262 382> 1311 41G<102 541 541 541>
VStem: 102 438<0 1352 0 1352>
LayerCount: 2
Fore
SplineSet
326 -84 m 0,0,1
 424 -84 424 -84 483.5 -127.5 c 128,-1,2
 543 -171 543 -171 543 -248 c 0,3,4
 543 -327 543 -327 480.5 -369.5 c 128,-1,5
 418 -412 418 -412 317 -412 c 0,6,7
 219 -412 219 -412 158.5 -370 c 128,-1,8
 98 -328 98 -328 98 -252 c 0,9,10
 98 -173 98 -173 162.5 -128.5 c 128,-1,11
 227 -84 227 -84 326 -84 c 0,0,1
102 0 m 1,12,-1
 102 1352 l 1,13,-1
 541 1352 l 1,14,-1
 541 0 l 1,15,-1
 102 0 l 1,12,-1
EndSplineSet
Validated: 1
Position2: "'cpsp' Capital Spacing lookup 3 subtable" dx=10 dy=0 dh=20 dv=0
EndChar

StartChar: Igrave
Encoding: 204 204 60
Width: 643
Flags: MW
HStem: 1311 41G<102 541 541 541>
VStem: 102 438<0 1352 0 1352>
LayerCount: 2
Fore
SplineSet
102 0 m 1,0,-1
 102 1352 l 1,1,-1
 541 1352 l 1,2,-1
 541 0 l 1,3,-1
 102 0 l 1,0,-1
215 1475 m 2,4,5
 179 1478 179 1478 164 1479 c 128,-1,6
 149 1480 149 1480 115 1484.5 c 128,-1,7
 81 1489 81 1489 64.5 1494.5 c 128,-1,8
 48 1500 48 1500 23 1510.5 c 128,-1,9
 -2 1521 -2 1521 -14 1534.5 c 128,-1,10
 -26 1548 -26 1548 -35.5 1569 c 128,-1,11
 -45 1590 -45 1590 -45 1616 c 0,12,13
 -45 1656 -45 1656 -23 1697 c 128,-1,14
 -1 1738 -1 1738 33 1767 c 1,15,-1
 539 1559 l 1,16,-1
 514 1454 l 1,17,-1
 215 1475 l 2,4,5
EndSplineSet
Validated: 1
Position2: "'cpsp' Capital Spacing lookup 3 subtable" dx=10 dy=0 dh=20 dv=0
EndChar

StartChar: Imacron
Encoding: 298 298 61
Width: 643
Flags: MW
HStem: 1311 41G<102 541 541 541> 1579 188<123 520 25 618>
VStem: 102 438<0 1352 0 1352>
LayerCount: 2
Fore
SplineSet
102 0 m 1,0,-1
 102 1352 l 1,1,-1
 541 1352 l 1,2,-1
 541 0 l 1,3,-1
 102 0 l 1,0,-1
618 1767 m 1,4,5
 637 1735 637 1735 637 1688 c 0,6,7
 637 1638 637 1638 605.5 1608.5 c 128,-1,8
 574 1579 574 1579 520 1579 c 2,9,-1
 25 1579 l 1,10,11
 6 1611 6 1611 6 1659 c 0,12,13
 6 1709 6 1709 37.5 1738 c 128,-1,14
 69 1767 69 1767 123 1767 c 2,15,-1
 618 1767 l 1,4,5
EndSplineSet
Validated: 1
Position2: "'cpsp' Capital Spacing lookup 3 subtable" dx=10 dy=0 dh=20 dv=0
EndChar

StartChar: Iogonek
Encoding: 302 302 62
Width: 643
Flags: MW
HStem: -541 176<446 467> 0 20 1311 41G<102 541 541 541>
VStem: 102 438<0 12 23 1352> 123 248<-300 -255>
LayerCount: 2
Fore
SplineSet
524 0 m 1,0,1
 371 -121 371 -121 371 -258 c 0,2,3
 371 -319 371 -319 397.5 -342 c 128,-1,4
 424 -365 424 -365 485 -365 c 0,5,6
 517 -365 517 -365 550.5 -351.5 c 128,-1,7
 584 -338 584 -338 598 -313 c 1,8,9
 651 -352 651 -352 651 -401 c 0,10,11
 651 -438 651 -438 628 -466.5 c 128,-1,12
 605 -495 605 -495 569 -510.5 c 128,-1,13
 533 -526 533 -526 496.5 -533.5 c 128,-1,14
 460 -541 460 -541 426 -541 c 0,15,16
 365 -541 365 -541 312.5 -529.5 c 128,-1,17
 260 -518 260 -518 216.5 -494.5 c 128,-1,18
 173 -471 173 -471 148 -428.5 c 128,-1,19
 123 -386 123 -386 123 -330 c 0,20,21
 123 -136 123 -136 375 0 c 1,22,-1
 102 0 l 1,23,-1
 102 1352 l 1,24,-1
 541 1352 l 1,25,-1
 541 23 l 1,26,-1
 553 20 l 1,27,-1
 541 12 l 1,28,-1
 541 0 l 1,29,-1
 524 0 l 1,0,1
EndSplineSet
Validated: 8388609
Position2: "'cpsp' Capital Spacing lookup 3 subtable" dx=10 dy=0 dh=20 dv=0
EndChar

StartChar: Itilde
Encoding: 296 296 63
Width: 643
Flags: MW
HStem: 1311 41G<102 541 541 541> 1456 213<496 577 496 582> 1497 213<71 153>
VStem: 102 438<0 1352 0 1352>
LayerCount: 2
Fore
SplineSet
102 0 m 1,0,-1
 102 1352 l 1,1,-1
 541 1352 l 1,2,-1
 541 0 l 1,3,-1
 102 0 l 1,0,-1
684 1710 m 1,4,5
 731 1653 731 1653 731 1587 c 0,6,7
 731 1512 731 1512 676.5 1484 c 128,-1,8
 622 1456 622 1456 526 1456 c 0,9,10
 470 1456 470 1456 311.5 1476.5 c 128,-1,11
 153 1497 153 1497 94 1497 c 0,12,13
 4 1497 4 1497 -37 1456 c 1,14,15
 -84 1513 -84 1513 -84 1579 c 0,16,17
 -84 1654 -84 1654 -29.5 1682 c 128,-1,18
 25 1710 25 1710 121 1710 c 0,19,20
 177 1710 177 1710 336 1689.5 c 128,-1,21
 495 1669 495 1669 553 1669 c 0,22,23
 643 1669 643 1669 684 1710 c 1,4,5
EndSplineSet
Validated: 8388609
Position2: "'cpsp' Capital Spacing lookup 3 subtable" dx=10 dy=0 dh=20 dv=0
EndChar

StartChar: J
Encoding: 74 74 64
Width: 643
Flags: MW
HStem: 1311 41G<102 541 541 541>
VStem: 102 438<106 162 162 1352>
LayerCount: 2
Fore
SplineSet
541 162 m 2,0,1
 541 67 541 67 531.5 -10 c 128,-1,2
 522 -87 522 -87 497 -160 c 128,-1,3
 472 -233 472 -233 431.5 -282.5 c 128,-1,4
 391 -332 391 -332 326 -361.5 c 128,-1,5
 261 -391 261 -391 174 -391 c 0,6,7
 89 -391 89 -391 17.5 -365 c 128,-1,8
 -54 -339 -54 -339 -82 -279 c 1,9,10
 -44 -274 -44 -274 -15 -259 c 128,-1,11
 14 -244 14 -244 33 -225 c 128,-1,12
 52 -206 52 -206 65.5 -174 c 128,-1,13
 79 -142 79 -142 86 -115 c 128,-1,14
 93 -88 93 -88 97 -44.5 c 128,-1,15
 101 -1 101 -1 101.5 28.5 c 128,-1,16
 102 58 102 58 102 106 c 2,17,-1
 102 1352 l 1,18,-1
 541 1352 l 1,19,-1
 541 162 l 2,0,1
EndSplineSet
Validated: 1
Position2: "'cpsp' Capital Spacing lookup 3 subtable" dx=10 dy=0 dh=20 dv=0
EndChar

StartChar: Jcircumflex
Encoding: 308 308 65
Width: 643
Flags: MW
HStem: 1311 41G<102 541 541 541>
VStem: 102 438<106 162 162 1352>
LayerCount: 2
Fore
SplineSet
541 162 m 2,0,1
 541 67 541 67 531.5 -10 c 128,-1,2
 522 -87 522 -87 497 -160 c 128,-1,3
 472 -233 472 -233 431.5 -282.5 c 128,-1,4
 391 -332 391 -332 326 -361.5 c 128,-1,5
 261 -391 261 -391 174 -391 c 0,6,7
 89 -391 89 -391 17.5 -365 c 128,-1,8
 -54 -339 -54 -339 -82 -279 c 1,9,10
 -44 -274 -44 -274 -15 -259 c 128,-1,11
 14 -244 14 -244 33 -225 c 128,-1,12
 52 -206 52 -206 65.5 -174 c 128,-1,13
 79 -142 79 -142 86 -115 c 128,-1,14
 93 -88 93 -88 97 -44.5 c 128,-1,15
 101 -1 101 -1 101.5 28.5 c 128,-1,16
 102 58 102 58 102 106 c 2,17,-1
 102 1352 l 1,18,-1
 541 1352 l 1,19,-1
 541 162 l 2,0,1
-39 1497 m 1,20,-1
 272 1733 l 1,21,-1
 360 1733 l 1,22,-1
 676 1497 l 1,23,-1
 596 1401 l 1,24,-1
 319 1505 l 1,25,-1
 41 1401 l 1,26,-1
 -39 1497 l 1,20,-1
EndSplineSet
Validated: 1
Position2: "'cpsp' Capital Spacing lookup 3 subtable" dx=10 dy=0 dh=20 dv=0
EndChar

StartChar: K
Encoding: 75 75 66
Width: 1318
Flags: MW
HStem: 1311 41G<102 541 541 541 885 1319 1319 1319>
VStem: 102 438<0 1352 0 1352>
LayerCount: 2
Fore
SplineSet
1319 1352 m 1,0,-1
 997 723 l 1,1,-1
 1348 0 l 1,2,-1
 899 0 l 1,3,-1
 582 684 l 1,4,-1
 885 1352 l 1,5,-1
 1319 1352 l 1,0,-1
102 0 m 1,6,-1
 102 1352 l 1,7,-1
 541 1352 l 1,8,-1
 541 0 l 1,9,-1
 102 0 l 1,6,-1
EndSplineSet
Validated: 1
Position2: "'cpsp' Capital Spacing lookup 3 subtable" dx=10 dy=0 dh=20 dv=0
EndChar

StartChar: Kcommaaccent
Encoding: 310 310 67
Width: 1318
Flags: MW
HStem: -528 424<654 668> 1311 41G<102 541 541 541 885 1319 1319 1319>
VStem: 102 438<0 1352 0 1352> 590 281<-338 -275>
LayerCount: 2
Fore
SplineSet
678 -104 m 0,0,1
 779 -104 779 -104 824.5 -143.5 c 128,-1,2
 870 -183 870 -183 870 -270 c 0,3,4
 870 -373 870 -373 788 -450.5 c 128,-1,5
 706 -528 706 -528 588 -528 c 0,6,7
 581 -528 581 -528 506 -522 c 1,8,9
 590 -414 590 -414 590 -307 c 0,10,11
 590 -210 590 -210 543 -135 c 1,12,13
 561 -122 561 -122 601.5 -113 c 128,-1,14
 642 -104 642 -104 678 -104 c 0,0,1
997 723 m 1,15,-1
 1348 0 l 1,16,-1
 899 0 l 1,17,-1
 582 684 l 1,18,-1
 885 1352 l 1,19,-1
 1319 1352 l 1,20,-1
 997 723 l 1,15,-1
102 1352 m 1,21,-1
 541 1352 l 1,22,-1
 541 0 l 1,23,-1
 102 0 l 1,24,-1
 102 1352 l 1,21,-1
EndSplineSet
Validated: 1
Position2: "'cpsp' Capital Spacing lookup 3 subtable" dx=10 dy=0 dh=20 dv=0
EndChar

StartChar: L
Encoding: 76 76 68
Width: 919
Flags: MW
HStem: 0 184<541 889> 1311 41G<102 541 541 541>
VStem: 102 438<184 1352 184 1352 184 1352>
LayerCount: 2
Fore
SplineSet
541 1352 m 1,0,-1
 541 184 l 1,1,-1
 909 184 l 1,2,-1
 889 0 l 1,3,-1
 102 0 l 1,4,-1
 102 1352 l 1,5,-1
 541 1352 l 1,0,-1
EndSplineSet
Validated: 1
Position2: "'cpsp' Capital Spacing lookup 3 subtable" dx=10 dy=0 dh=20 dv=0
EndChar

StartChar: LJ
Encoding: 455 455 69
Width: 1562
Flags: MW
HStem: 0 184<541 889> 1311 41G<102 541 541 541 1022 1460 1460 1460>
VStem: 102 438<184 184 184 1352> 1022 438<106 162 162 1352>
LayerCount: 2
Fore
SplineSet
1460 162 m 2,0,1
 1460 67 1460 67 1450.5 -10 c 128,-1,2
 1441 -87 1441 -87 1416.5 -160 c 128,-1,3
 1392 -233 1392 -233 1351.5 -282.5 c 128,-1,4
 1311 -332 1311 -332 1246 -361.5 c 128,-1,5
 1181 -391 1181 -391 1094 -391 c 0,6,7
 1009 -391 1009 -391 937.5 -365 c 128,-1,8
 866 -339 866 -339 838 -279 c 1,9,10
 876 -274 876 -274 905 -259 c 128,-1,11
 934 -244 934 -244 953 -225 c 128,-1,12
 972 -206 972 -206 985.5 -174 c 128,-1,13
 999 -142 999 -142 1006 -115 c 128,-1,14
 1013 -88 1013 -88 1017 -44.5 c 128,-1,15
 1021 -1 1021 -1 1021.5 28.5 c 128,-1,16
 1022 58 1022 58 1022 106 c 2,17,-1
 1022 1352 l 1,18,-1
 1460 1352 l 1,19,-1
 1460 162 l 2,0,1
541 184 m 1,20,-1
 909 184 l 1,21,-1
 889 0 l 1,22,-1
 102 0 l 1,23,-1
 102 1352 l 1,24,-1
 541 1352 l 1,25,-1
 541 184 l 1,20,-1
EndSplineSet
Validated: 1
Position2: "'cpsp' Capital Spacing lookup 3 subtable" dx=10 dy=0 dh=20 dv=0
EndChar

StartChar: Lacute
Encoding: 313 313 70
Width: 919
Flags: MW
HStem: 0 184<541 889> 1311 41G<102 541 541 541>
VStem: 102 438<184 184 184 1352>
LayerCount: 2
Fore
SplineSet
541 184 m 1,0,-1
 909 184 l 1,1,-1
 889 0 l 1,2,-1
 102 0 l 1,3,-1
 102 1352 l 1,4,-1
 541 1352 l 1,5,-1
 541 184 l 1,0,-1
610 1765 m 1,6,7
 644 1736 644 1736 666 1695 c 128,-1,8
 688 1654 688 1654 688 1614 c 0,9,10
 688 1588 688 1588 678.5 1567 c 128,-1,11
 669 1546 669 1546 657 1532.5 c 128,-1,12
 645 1519 645 1519 620 1508.5 c 128,-1,13
 595 1498 595 1498 578.5 1492.5 c 128,-1,14
 562 1487 562 1487 528 1482.5 c 128,-1,15
 494 1478 494 1478 479 1477 c 128,-1,16
 464 1476 464 1476 428 1473 c 2,17,-1
 129 1452 l 1,18,-1
 104 1556 l 1,19,-1
 610 1765 l 1,6,7
EndSplineSet
Validated: 1
Position2: "'cpsp' Capital Spacing lookup 3 subtable" dx=10 dy=0 dh=20 dv=0
EndChar

StartChar: Lcaron
Encoding: 317 317 71
Width: 919
Flags: MW
HStem: 0 184<541 889> 1077 274<102 785> 1434 41G<760 827>
VStem: 102 438<184 184 184 1352> 694 246<1252 1305>
LayerCount: 2
Fore
SplineSet
541 184 m 1,0,-1
 909 184 l 1,1,-1
 889 0 l 1,2,-1
 102 0 l 1,3,-1
 102 1352 l 1,4,-1
 541 1352 l 1,5,-1
 541 184 l 1,0,-1
647 1444 m 1,6,7
 665 1457 665 1457 705.5 1466 c 128,-1,8
 746 1475 746 1475 784 1475 c 0,9,10
 853 1475 853 1475 896.5 1431 c 128,-1,11
 940 1387 940 1387 940 1300 c 0,12,13
 940 1218 940 1218 878 1147.5 c 128,-1,14
 816 1077 816 1077 707 1077 c 0,15,16
 672 1077 672 1077 635 1090 c 1,17,18
 667 1130 667 1130 680.5 1172 c 128,-1,19
 694 1214 694 1214 694 1274 c 0,20,21
 694 1369 694 1369 647 1444 c 1,6,7
EndSplineSet
Validated: 1
Position2: "'cpsp' Capital Spacing lookup 3 subtable" dx=10 dy=0 dh=20 dv=0
EndChar

StartChar: Lcommaaccent
Encoding: 315 315 72
Width: 919
Flags: MW
HStem: -528 424<445 459> 0 184<541 889> 1311 41G<102 541 541 541>
VStem: 102 438<184 184 184 1352> 381 281<-338 -275>
LayerCount: 2
Fore
SplineSet
469 -104 m 0,0,1
 570 -104 570 -104 616 -144 c 128,-1,2
 662 -184 662 -184 662 -270 c 0,3,4
 662 -373 662 -373 579.5 -450.5 c 128,-1,5
 497 -528 497 -528 379 -528 c 0,6,7
 372 -528 372 -528 297 -522 c 1,8,9
 381 -414 381 -414 381 -307 c 0,10,11
 381 -210 381 -210 334 -135 c 1,12,13
 352 -122 352 -122 392.5 -113 c 128,-1,14
 433 -104 433 -104 469 -104 c 0,0,1
541 184 m 1,15,-1
 909 184 l 1,16,-1
 889 0 l 1,17,-1
 102 0 l 1,18,-1
 102 1352 l 1,19,-1
 541 1352 l 1,20,-1
 541 184 l 1,15,-1
EndSplineSet
Validated: 8388609
Position2: "'cpsp' Capital Spacing lookup 3 subtable" dx=10 dy=0 dh=20 dv=0
EndChar

StartChar: Ldot
Encoding: 319 319 73
Width: 997
Flags: MW
HStem: 0 184<541 889> 522 287<753 829> 1311 41G<102 541 541 541>
VStem: 102 438<184 184 184 1352> 651 274<623 705>
LayerCount: 2
Fore
SplineSet
795 809 m 0,0,1
 856 809 856 809 891 770 c 128,-1,2
 926 731 926 731 926 666 c 128,-1,3
 926 601 926 601 888 561.5 c 128,-1,4
 850 522 850 522 786 522 c 0,5,6
 723 522 723 522 687 560 c 128,-1,7
 651 598 651 598 651 659 c 0,8,9
 651 726 651 726 691.5 767.5 c 128,-1,10
 732 809 732 809 795 809 c 0,0,1
541 184 m 1,11,-1
 909 184 l 1,12,-1
 889 0 l 1,13,-1
 102 0 l 1,14,-1
 102 1352 l 1,15,-1
 541 1352 l 1,16,-1
 541 184 l 1,11,-1
EndSplineSet
Validated: 1
Ligature2: "Ligature Substitution lookup 20 subtable" L periodcentered
Position2: "'cpsp' Capital Spacing lookup 3 subtable" dx=10 dy=0 dh=20 dv=0
EndChar

StartChar: Lj
Encoding: 456 456 74
Width: 1540
Flags: MW
HStem: 0 184<541 889> 1004 41G<1030 1432 1432 1432> 1208 328<1176 1295> 1311 41G<102 541 541 541>
VStem: 102 438<184 184 184 1352> 1012 444<1318 1422> 1030 401<43 94 94 1044>
LayerCount: 2
Fore
SplineSet
1432 94 m 2,0,1
 1432 -14 1432 -14 1417 -99 c 128,-1,2
 1402 -184 1402 -184 1366 -257 c 128,-1,3
 1330 -330 1330 -330 1262.5 -370 c 128,-1,4
 1195 -410 1195 -410 1098 -410 c 0,5,6
 1020 -410 1020 -410 953.5 -386 c 128,-1,7
 887 -362 887 -362 862 -307 c 1,8,9
 892 -303 892 -303 916 -293.5 c 128,-1,10
 940 -284 940 -284 957.5 -266.5 c 128,-1,11
 975 -249 975 -249 987.5 -231 c 128,-1,12
 1000 -213 1000 -213 1007.5 -185.5 c 128,-1,13
 1015 -158 1015 -158 1020 -135 c 128,-1,14
 1025 -112 1025 -112 1027 -77.5 c 128,-1,15
 1029 -43 1029 -43 1029.5 -19 c 128,-1,16
 1030 5 1030 5 1030 43 c 2,17,-1
 1030 1044 l 1,18,-1
 1432 1044 l 1,19,-1
 1432 94 l 2,0,1
541 184 m 1,20,-1
 909 184 l 1,21,-1
 889 0 l 1,22,-1
 102 0 l 1,23,-1
 102 1352 l 1,24,-1
 541 1352 l 1,25,-1
 541 184 l 1,20,-1
1239 1536 m 0,26,27
 1337 1536 1337 1536 1396.5 1492.5 c 128,-1,28
 1456 1449 1456 1449 1456 1372 c 0,29,30
 1456 1293 1456 1293 1394 1250.5 c 128,-1,31
 1332 1208 1332 1208 1231 1208 c 0,32,33
 1133 1208 1133 1208 1072.5 1250 c 128,-1,34
 1012 1292 1012 1292 1012 1368 c 0,35,36
 1012 1447 1012 1447 1076 1491.5 c 128,-1,37
 1140 1536 1140 1536 1239 1536 c 0,26,27
EndSplineSet
Validated: 8388609
Position2: "'cpsp' Capital Spacing lookup 3 subtable" dx=10 dy=0 dh=20 dv=0
EndChar

StartChar: Lslash
Encoding: 321 321 75
Width: 1044
Flags: MW
HStem: 0 184<664 1014> 1311 41G<225 664 664 664>
VStem: 225 438<184 473 473 473 836 1352>
LayerCount: 2
Fore
SplineSet
49 410 m 1,0,1
 10 460 10 460 10 518 c 0,2,3
 10 561 10 561 35 587.5 c 128,-1,4
 60 614 60 614 109 633 c 1,5,-1
 225 674 l 1,6,-1
 225 1352 l 1,7,-1
 664 1352 l 1,8,-1
 664 836 l 1,9,-1
 879 913 l 1,10,11
 918 861 918 861 918 805 c 0,12,13
 918 761 918 761 893.5 733.5 c 128,-1,14
 869 706 869 706 819 688 c 2,15,-1
 664 633 l 1,16,-1
 664 184 l 1,17,-1
 1034 184 l 1,18,-1
 1014 0 l 1,19,-1
 225 0 l 1,20,-1
 225 473 l 1,21,-1
 49 410 l 1,0,1
EndSplineSet
Validated: 1
Position2: "'cpsp' Capital Spacing lookup 3 subtable" dx=10 dy=0 dh=20 dv=0
EndChar

StartChar: M
Encoding: 77 77 76
Width: 1775
Flags: MW
HStem: 1047 305<334 334 1235 1235>
VStem: 102 231<0 1047 0 1352> 1235 438<0 1047 1047 1047>
LayerCount: 2
Fore
SplineSet
1673 0 m 1,0,-1
 1235 0 l 1,1,-1
 1235 1047 l 1,2,-1
 903 0 l 1,3,-1
 666 0 l 1,4,-1
 334 1047 l 1,5,-1
 334 0 l 1,6,-1
 102 0 l 1,7,-1
 102 1352 l 1,8,-1
 668 1352 l 1,9,-1
 891 598 l 1,10,-1
 1112 1352 l 1,11,-1
 1673 1352 l 1,12,-1
 1673 0 l 1,0,-1
EndSplineSet
Validated: 1
Position2: "'cpsp' Capital Spacing lookup 3 subtable" dx=10 dy=0 dh=20 dv=0
EndChar

StartChar: N
Encoding: 78 78 77
Width: 1368
Flags: MW
HStem: 1001 350<334 334>
VStem: 102 231<0 1001 0 1352> 1034 233<350 1352 0 1352>
LayerCount: 2
Fore
SplineSet
334 1001 m 1,0,-1
 334 0 l 1,1,-1
 102 0 l 1,2,-1
 102 1352 l 1,3,-1
 616 1352 l 1,4,-1
 1034 350 l 1,5,-1
 1034 1352 l 1,6,-1
 1268 1352 l 1,7,-1
 1268 0 l 1,8,-1
 754 0 l 1,9,-1
 334 1001 l 1,0,-1
EndSplineSet
Validated: 1
Position2: "'cpsp' Capital Spacing lookup 3 subtable" dx=10 dy=0 dh=20 dv=0
EndChar

StartChar: NJ
Encoding: 458 458 78
Width: 2011
Flags: MW
HStem: 1001 350<334 334> 1311 41G<102 616 616 616 1034 1268 1268 1268 1470 1909 1909 1909>
VStem: 102 231<0 1001> 1034 233<350 1352 0 1352> 1470 438<106 162 162 1352>
LayerCount: 2
Fore
SplineSet
1909 162 m 2,0,1
 1909 67 1909 67 1899.5 -10 c 128,-1,2
 1890 -87 1890 -87 1865 -160 c 128,-1,3
 1840 -233 1840 -233 1799.5 -282.5 c 128,-1,4
 1759 -332 1759 -332 1694 -361.5 c 128,-1,5
 1629 -391 1629 -391 1542 -391 c 0,6,7
 1457 -391 1457 -391 1385.5 -365 c 128,-1,8
 1314 -339 1314 -339 1286 -279 c 1,9,10
 1324 -274 1324 -274 1353 -259 c 128,-1,11
 1382 -244 1382 -244 1401 -225 c 128,-1,12
 1420 -206 1420 -206 1433.5 -174 c 128,-1,13
 1447 -142 1447 -142 1454 -115 c 128,-1,14
 1461 -88 1461 -88 1465 -44.5 c 128,-1,15
 1469 -1 1469 -1 1469.5 28.5 c 128,-1,16
 1470 58 1470 58 1470 106 c 2,17,-1
 1470 1352 l 1,18,-1
 1909 1352 l 1,19,-1
 1909 162 l 2,0,1
334 0 m 1,20,-1
 102 0 l 1,21,-1
 102 1352 l 1,22,-1
 616 1352 l 1,23,-1
 1034 350 l 1,24,-1
 1034 1352 l 1,25,-1
 1268 1352 l 1,26,-1
 1268 0 l 1,27,-1
 754 0 l 1,28,-1
 334 1001 l 1,29,-1
 334 0 l 1,20,-1
EndSplineSet
Validated: 8388609
Position2: "'cpsp' Capital Spacing lookup 3 subtable" dx=10 dy=0 dh=20 dv=0
EndChar

StartChar: Nacute
Encoding: 323 323 79
Width: 1368
Flags: MW
HStem: 1001 350<334 334> 1311 41G<102 616 616 616 1034 1268 1268 1268>
VStem: 102 231<0 1001> 1034 233<350 1352 0 1352>
LayerCount: 2
Fore
SplineSet
334 0 m 1,0,-1
 102 0 l 1,1,-1
 102 1352 l 1,2,-1
 616 1352 l 1,3,-1
 1034 350 l 1,4,-1
 1034 1352 l 1,5,-1
 1268 1352 l 1,6,-1
 1268 0 l 1,7,-1
 754 0 l 1,8,-1
 334 1001 l 1,9,-1
 334 0 l 1,0,-1
975 1765 m 1,10,11
 1009 1736 1009 1736 1031 1695 c 128,-1,12
 1053 1654 1053 1654 1053 1614 c 0,13,14
 1053 1588 1053 1588 1043.5 1567 c 128,-1,15
 1034 1546 1034 1546 1022 1532.5 c 128,-1,16
 1010 1519 1010 1519 985 1508.5 c 128,-1,17
 960 1498 960 1498 943.5 1492.5 c 128,-1,18
 927 1487 927 1487 893 1482.5 c 128,-1,19
 859 1478 859 1478 844 1477 c 128,-1,20
 829 1476 829 1476 793 1473 c 2,21,-1
 494 1452 l 1,22,-1
 469 1556 l 1,23,-1
 975 1765 l 1,10,11
EndSplineSet
Validated: 8388609
Substitution2: "'locl' Localized Forms in Latin lookup 13 subtable" Nacute.loclPLK
Substitution2: "'aalt' Access All Alternates lookup 0 subtable" Nacute.loclPLK
Position2: "'cpsp' Capital Spacing lookup 3 subtable" dx=10 dy=0 dh=20 dv=0
EndChar

StartChar: Ncaron
Encoding: 327 327 80
Width: 1368
Flags: MW
HStem: 1001 350<334 334> 1311 41G<102 616 616 616 1034 1268 1268 1268>
VStem: 102 231<0 1001> 1034 233<350 1352 0 1352>
LayerCount: 2
Fore
SplineSet
334 0 m 1,0,-1
 102 0 l 1,1,-1
 102 1352 l 1,2,-1
 616 1352 l 1,3,-1
 1034 350 l 1,4,-1
 1034 1352 l 1,5,-1
 1268 1352 l 1,6,-1
 1268 0 l 1,7,-1
 754 0 l 1,8,-1
 334 1001 l 1,9,-1
 334 0 l 1,0,-1
1038 1661 m 1,10,-1
 750 1423 l 1,11,-1
 618 1423 l 1,12,-1
 322 1661 l 1,13,-1
 403 1755 l 1,14,-1
 680 1649 l 1,15,-1
 958 1755 l 1,16,-1
 1038 1661 l 1,10,-1
EndSplineSet
Validated: 8388609
Position2: "'cpsp' Capital Spacing lookup 3 subtable" dx=10 dy=0 dh=20 dv=0
EndChar

StartChar: Ncommaaccent
Encoding: 325 325 81
Width: 1368
Flags: MW
HStem: -528 424<622 635> 1001 350<334 334> 1311 41G<102 616 616 616 1034 1268 1268 1268>
VStem: 102 231<0 1001> 557 281<-338 -275> 1034 233<350 1352 0 1352>
LayerCount: 2
Fore
SplineSet
645 -104 m 0,0,1
 746 -104 746 -104 792 -144 c 128,-1,2
 838 -184 838 -184 838 -270 c 0,3,4
 838 -373 838 -373 755.5 -450.5 c 128,-1,5
 673 -528 673 -528 555 -528 c 0,6,7
 548 -528 548 -528 473 -522 c 1,8,9
 557 -414 557 -414 557 -307 c 0,10,11
 557 -210 557 -210 510 -135 c 1,12,13
 528 -122 528 -122 568.5 -113 c 128,-1,14
 609 -104 609 -104 645 -104 c 0,0,1
334 0 m 1,15,-1
 102 0 l 1,16,-1
 102 1352 l 1,17,-1
 616 1352 l 1,18,-1
 1034 350 l 1,19,-1
 1034 1352 l 1,20,-1
 1268 1352 l 1,21,-1
 1268 0 l 1,22,-1
 754 0 l 1,23,-1
 334 1001 l 1,24,-1
 334 0 l 1,15,-1
EndSplineSet
Validated: 8388609
Position2: "'cpsp' Capital Spacing lookup 3 subtable" dx=10 dy=0 dh=20 dv=0
EndChar

StartChar: Ndotaccent
Encoding: 7748 7748 82
Width: 1368
Flags: MW
HStem: 1001 350<334 334> 1311 41G<102 616 616 616 1034 1268 1268 1268> 1516 328<633 753>
VStem: 102 231<0 1001> 469 444<1625 1730> 1034 233<350 1352 0 1352>
LayerCount: 2
Fore
SplineSet
334 0 m 1,0,-1
 102 0 l 1,1,-1
 102 1352 l 1,2,-1
 616 1352 l 1,3,-1
 1034 350 l 1,4,-1
 1034 1352 l 1,5,-1
 1268 1352 l 1,6,-1
 1268 0 l 1,7,-1
 754 0 l 1,8,-1
 334 1001 l 1,9,-1
 334 0 l 1,0,-1
696 1843 m 0,10,11
 794 1843 794 1843 853.5 1799.5 c 128,-1,12
 913 1756 913 1756 913 1679 c 0,13,14
 913 1600 913 1600 851 1558 c 128,-1,15
 789 1516 789 1516 688 1516 c 0,16,17
 590 1516 590 1516 529.5 1557.5 c 128,-1,18
 469 1599 469 1599 469 1675 c 0,19,20
 469 1754 469 1754 533 1798.5 c 128,-1,21
 597 1843 597 1843 696 1843 c 0,10,11
EndSplineSet
Validated: 8388609
Position2: "'cpsp' Capital Spacing lookup 3 subtable" dx=10 dy=0 dh=20 dv=0
EndChar

StartChar: Eng
Encoding: 330 330 83
Width: 1368
Flags: MW
HStem: 1001 350<334 334> 1311 41G<102 616 616 616 1034 1268 1268 1268>
VStem: 102 231<0 1001 0 1352> 1034 233<0 0 350 1352>
LayerCount: 2
Fore
SplineSet
1268 1352 m 1,0,-1
 1268 113 l 2,1,2
 1268 32 1268 32 1266.5 -11 c 128,-1,3
 1265 -54 1265 -54 1259 -127.5 c 128,-1,4
 1253 -201 1253 -201 1237.5 -241.5 c 128,-1,5
 1222 -282 1222 -282 1196.5 -327 c 128,-1,6
 1171 -372 1171 -372 1127.5 -392 c 128,-1,7
 1084 -412 1084 -412 1026 -412 c 0,8,9
 911 -412 911 -412 866 -342 c 1,10,11
 903 -337 903 -337 931.5 -321.5 c 128,-1,12
 960 -306 960 -306 977.5 -279 c 128,-1,13
 995 -252 995 -252 1006.5 -223.5 c 128,-1,14
 1018 -195 1018 -195 1023.5 -153.5 c 128,-1,15
 1029 -112 1029 -112 1031 -79.5 c 128,-1,16
 1033 -47 1033 -47 1034 0 c 1,17,-1
 754 0 l 1,18,-1
 334 1001 l 1,19,-1
 334 0 l 1,20,-1
 102 0 l 1,21,-1
 102 1352 l 1,22,-1
 616 1352 l 1,23,-1
 1034 350 l 1,24,-1
 1034 1352 l 1,25,-1
 1268 1352 l 1,0,-1
EndSplineSet
Validated: 8388609
Position2: "'cpsp' Capital Spacing lookup 3 subtable" dx=10 dy=0 dh=20 dv=0
EndChar

StartChar: Nj
Encoding: 459 459 84
Width: 1990
Flags: MW
HStem: 1004 41G<1479 1880 1880 1880> 1208 328<1624 1744> 1311 41G<102 616 616 616 1034 1268 1268 1268>
VStem: 102 231<0 1001> 1034 233<350 1352 0 1352> 1460 444<1318 1422> 1479 401<43 94 94 1044>
LayerCount: 2
Fore
SplineSet
1880 94 m 2,0,1
 1880 -14 1880 -14 1865 -99 c 128,-1,2
 1850 -184 1850 -184 1814 -257 c 128,-1,3
 1778 -330 1778 -330 1710.5 -370 c 128,-1,4
 1643 -410 1643 -410 1546 -410 c 0,5,6
 1468 -410 1468 -410 1402 -386 c 128,-1,7
 1336 -362 1336 -362 1311 -307 c 1,8,9
 1341 -303 1341 -303 1365 -293.5 c 128,-1,10
 1389 -284 1389 -284 1406.5 -266.5 c 128,-1,11
 1424 -249 1424 -249 1436.5 -231 c 128,-1,12
 1449 -213 1449 -213 1456.5 -185.5 c 128,-1,13
 1464 -158 1464 -158 1469 -135 c 128,-1,14
 1474 -112 1474 -112 1476 -77.5 c 128,-1,15
 1478 -43 1478 -43 1478.5 -19 c 128,-1,16
 1479 5 1479 5 1479 43 c 2,17,-1
 1479 1044 l 1,18,-1
 1880 1044 l 1,19,-1
 1880 94 l 2,0,1
334 0 m 1,20,-1
 102 0 l 1,21,-1
 102 1352 l 1,22,-1
 616 1352 l 1,23,-1
 1034 350 l 1,24,-1
 1034 1352 l 1,25,-1
 1268 1352 l 1,26,-1
 1268 0 l 1,27,-1
 754 0 l 1,28,-1
 334 1001 l 1,29,-1
 334 0 l 1,20,-1
1688 1536 m 0,30,31
 1786 1536 1786 1536 1845.5 1492.5 c 128,-1,32
 1905 1449 1905 1449 1905 1372 c 0,33,34
 1905 1293 1905 1293 1842.5 1250.5 c 128,-1,35
 1780 1208 1780 1208 1679 1208 c 0,36,37
 1581 1208 1581 1208 1520.5 1250 c 128,-1,38
 1460 1292 1460 1292 1460 1368 c 0,39,40
 1460 1447 1460 1447 1524.5 1491.5 c 128,-1,41
 1589 1536 1589 1536 1688 1536 c 0,30,31
EndSplineSet
Validated: 8388609
Position2: "'cpsp' Capital Spacing lookup 3 subtable" dx=10 dy=0 dh=20 dv=0
EndChar

StartChar: Ntilde
Encoding: 209 209 85
Width: 1368
Flags: MW
HStem: 1001 350<334 334> 1311 41G<102 616 616 616 1034 1268 1268 1268> 1456 213<858 939 858 944> 1497 213<433 515>
VStem: 102 231<0 1001> 1034 233<350 1352 0 1352>
LayerCount: 2
Fore
SplineSet
334 0 m 1,0,-1
 102 0 l 1,1,-1
 102 1352 l 1,2,-1
 616 1352 l 1,3,-1
 1034 350 l 1,4,-1
 1034 1352 l 1,5,-1
 1268 1352 l 1,6,-1
 1268 0 l 1,7,-1
 754 0 l 1,8,-1
 334 1001 l 1,9,-1
 334 0 l 1,0,-1
1047 1710 m 1,10,11
 1094 1653 1094 1653 1094 1587 c 0,12,13
 1094 1512 1094 1512 1039.5 1484 c 128,-1,14
 985 1456 985 1456 889 1456 c 0,15,16
 833 1456 833 1456 674.5 1476.5 c 128,-1,17
 516 1497 516 1497 457 1497 c 0,18,19
 367 1497 367 1497 326 1456 c 1,20,21
 279 1513 279 1513 279 1579 c 0,22,23
 279 1654 279 1654 333 1682 c 128,-1,24
 387 1710 387 1710 483 1710 c 0,25,26
 539 1710 539 1710 698 1689.5 c 128,-1,27
 857 1669 857 1669 915 1669 c 0,28,29
 1006 1669 1006 1669 1047 1710 c 1,10,11
EndSplineSet
Validated: 8388609
Position2: "'cpsp' Capital Spacing lookup 3 subtable" dx=10 dy=0 dh=20 dv=0
EndChar

StartChar: O
Encoding: 79 79 86
Width: 1372
Flags: MW
HStem: -45 152<604 768 604 903> 1241 152<604 768>
VStem: 41 471<565 799 565 888> 860 471<565 799>
LayerCount: 2
Fore
SplineSet
686 106 m 128,-1,1
 720 106 720 106 747 126.5 c 128,-1,2
 774 147 774 147 792 178.5 c 128,-1,3
 810 210 810 210 823 260 c 128,-1,4
 836 310 836 310 843 357 c 128,-1,5
 850 404 850 404 854 467 c 128,-1,6
 858 530 858 530 859 576 c 128,-1,7
 860 622 860 622 860 682 c 128,-1,8
 860 742 860 742 859 787.5 c 128,-1,9
 858 833 858 833 854 894 c 128,-1,10
 850 955 850 955 843 1000.5 c 128,-1,11
 836 1046 836 1046 823 1093.5 c 128,-1,12
 810 1141 810 1141 792 1171.5 c 128,-1,13
 774 1202 774 1202 747 1221.5 c 128,-1,14
 720 1241 720 1241 686 1241 c 128,-1,15
 652 1241 652 1241 625 1221.5 c 128,-1,16
 598 1202 598 1202 580 1171.5 c 128,-1,17
 562 1141 562 1141 549 1093.5 c 128,-1,18
 536 1046 536 1046 529 1000.5 c 128,-1,19
 522 955 522 955 518 894 c 128,-1,20
 514 833 514 833 513 787.5 c 128,-1,21
 512 742 512 742 512 682 c 128,-1,22
 512 622 512 622 513 576 c 128,-1,23
 514 530 514 530 518 467 c 128,-1,24
 522 404 522 404 529 357 c 128,-1,25
 536 310 536 310 549 260 c 128,-1,26
 562 210 562 210 580 178.5 c 128,-1,27
 598 147 598 147 625 126.5 c 128,-1,0
 652 106 652 106 686 106 c 128,-1,1
686 1393 m 0,28,29
 1011 1393 1011 1393 1171 1212 c 128,-1,30
 1331 1031 1331 1031 1331 694 c 0,31,32
 1331 530 1331 530 1290.5 395.5 c 128,-1,33
 1250 261 1250 261 1171.5 162 c 128,-1,34
 1093 63 1093 63 969.5 9 c 128,-1,35
 846 -45 846 -45 686 -45 c 0,36,37
 531 -45 531 -45 408.5 7 c 128,-1,38
 286 59 286 59 205.5 154 c 128,-1,39
 125 249 125 249 83 379.5 c 128,-1,40
 41 510 41 510 41 668 c 0,41,42
 41 1008 41 1008 203 1200.5 c 128,-1,43
 365 1393 365 1393 686 1393 c 0,28,29
EndSplineSet
Validated: 1
Substitution2: "Single Substitution lookup 21 subtable" ordmasculine
Substitution2: "'aalt' Access All Alternates lookup 0 subtable" ordmasculine
Position2: "'cpsp' Capital Spacing lookup 3 subtable" dx=10 dy=0 dh=20 dv=0
EndChar

StartChar: Oacute
Encoding: 211 211 87
Width: 1372
Flags: MW
HStem: -45 152<604 768 604 903> 1241 152<604 768>
VStem: 41 471<565 799 565 888> 860 471<565 799>
LayerCount: 2
Fore
SplineSet
686 106 m 128,-1,1
 720 106 720 106 747 126.5 c 128,-1,2
 774 147 774 147 792 178.5 c 128,-1,3
 810 210 810 210 823 260 c 128,-1,4
 836 310 836 310 843 357 c 128,-1,5
 850 404 850 404 854 467 c 128,-1,6
 858 530 858 530 859 576 c 128,-1,7
 860 622 860 622 860 682 c 128,-1,8
 860 742 860 742 859 787.5 c 128,-1,9
 858 833 858 833 854 894 c 128,-1,10
 850 955 850 955 843 1000.5 c 128,-1,11
 836 1046 836 1046 823 1093.5 c 128,-1,12
 810 1141 810 1141 792 1171.5 c 128,-1,13
 774 1202 774 1202 747 1221.5 c 128,-1,14
 720 1241 720 1241 686 1241 c 128,-1,15
 652 1241 652 1241 625 1221.5 c 128,-1,16
 598 1202 598 1202 580 1171.5 c 128,-1,17
 562 1141 562 1141 549 1093.5 c 128,-1,18
 536 1046 536 1046 529 1000.5 c 128,-1,19
 522 955 522 955 518 894 c 128,-1,20
 514 833 514 833 513 787.5 c 128,-1,21
 512 742 512 742 512 682 c 128,-1,22
 512 622 512 622 513 576 c 128,-1,23
 514 530 514 530 518 467 c 128,-1,24
 522 404 522 404 529 357 c 128,-1,25
 536 310 536 310 549 260 c 128,-1,26
 562 210 562 210 580 178.5 c 128,-1,27
 598 147 598 147 625 126.5 c 128,-1,0
 652 106 652 106 686 106 c 128,-1,1
686 1393 m 0,28,29
 1011 1393 1011 1393 1171 1212 c 128,-1,30
 1331 1031 1331 1031 1331 694 c 0,31,32
 1331 530 1331 530 1290.5 395.5 c 128,-1,33
 1250 261 1250 261 1171.5 162 c 128,-1,34
 1093 63 1093 63 969.5 9 c 128,-1,35
 846 -45 846 -45 686 -45 c 0,36,37
 531 -45 531 -45 408.5 7 c 128,-1,38
 286 59 286 59 205.5 154 c 128,-1,39
 125 249 125 249 83 379.5 c 128,-1,40
 41 510 41 510 41 668 c 0,41,42
 41 1008 41 1008 203 1200.5 c 128,-1,43
 365 1393 365 1393 686 1393 c 0,28,29
975 1765 m 1,44,45
 1009 1736 1009 1736 1031 1695 c 128,-1,46
 1053 1654 1053 1654 1053 1614 c 0,47,48
 1053 1588 1053 1588 1043.5 1567 c 128,-1,49
 1034 1546 1034 1546 1022 1532.5 c 128,-1,50
 1010 1519 1010 1519 985 1508.5 c 128,-1,51
 960 1498 960 1498 943.5 1492.5 c 128,-1,52
 927 1487 927 1487 893 1482.5 c 128,-1,53
 859 1478 859 1478 844 1477 c 128,-1,54
 829 1476 829 1476 793 1473 c 2,55,-1
 494 1452 l 1,56,-1
 469 1556 l 1,57,-1
 975 1765 l 1,44,45
EndSplineSet
Validated: 1
Substitution2: "'locl' Localized Forms in Latin lookup 13 subtable" Oacute.loclPLK
Substitution2: "'aalt' Access All Alternates lookup 0 subtable" Oacute.loclPLK
Position2: "'cpsp' Capital Spacing lookup 3 subtable" dx=10 dy=0 dh=20 dv=0
EndChar

StartChar: Obreve
Encoding: 334 334 88
Width: 1372
Flags: MW
HStem: -45 152<604 768 604 903> 1241 152<604 768> 1434 106<644 743 644 841>
VStem: 41 471<565 799 565 888> 291 299<1634 1660 1619 1714> 782 301<1673 1714> 860 471<565 799>
LayerCount: 2
Fore
SplineSet
686 106 m 128,-1,1
 720 106 720 106 747 126.5 c 128,-1,2
 774 147 774 147 792 178.5 c 128,-1,3
 810 210 810 210 823 260 c 128,-1,4
 836 310 836 310 843 357 c 128,-1,5
 850 404 850 404 854 467 c 128,-1,6
 858 530 858 530 859 576 c 128,-1,7
 860 622 860 622 860 682 c 128,-1,8
 860 742 860 742 859 787.5 c 128,-1,9
 858 833 858 833 854 894 c 128,-1,10
 850 955 850 955 843 1000.5 c 128,-1,11
 836 1046 836 1046 823 1093.5 c 128,-1,12
 810 1141 810 1141 792 1171.5 c 128,-1,13
 774 1202 774 1202 747 1221.5 c 128,-1,14
 720 1241 720 1241 686 1241 c 128,-1,15
 652 1241 652 1241 625 1221.5 c 128,-1,16
 598 1202 598 1202 580 1171.5 c 128,-1,17
 562 1141 562 1141 549 1093.5 c 128,-1,18
 536 1046 536 1046 529 1000.5 c 128,-1,19
 522 955 522 955 518 894 c 128,-1,20
 514 833 514 833 513 787.5 c 128,-1,21
 512 742 512 742 512 682 c 128,-1,22
 512 622 512 622 513 576 c 128,-1,23
 514 530 514 530 518 467 c 128,-1,24
 522 404 522 404 529 357 c 128,-1,25
 536 310 536 310 549 260 c 128,-1,26
 562 210 562 210 580 178.5 c 128,-1,27
 598 147 598 147 625 126.5 c 128,-1,0
 652 106 652 106 686 106 c 128,-1,1
686 1393 m 0,28,29
 1011 1393 1011 1393 1171 1212 c 128,-1,30
 1331 1031 1331 1031 1331 694 c 0,31,32
 1331 530 1331 530 1290.5 395.5 c 128,-1,33
 1250 261 1250 261 1171.5 162 c 128,-1,34
 1093 63 1093 63 969.5 9 c 128,-1,35
 846 -45 846 -45 686 -45 c 0,36,37
 531 -45 531 -45 408.5 7 c 128,-1,38
 286 59 286 59 205.5 154 c 128,-1,39
 125 249 125 249 83 379.5 c 128,-1,40
 41 510 41 510 41 668 c 0,41,42
 41 1008 41 1008 203 1200.5 c 128,-1,43
 365 1393 365 1393 686 1393 c 0,28,29
1083 1714 m 1,44,45
 1083 1651 1083 1651 1064 1602.5 c 128,-1,46
 1045 1554 1045 1554 1001 1514.5 c 128,-1,47
 957 1475 957 1475 877.5 1454.5 c 128,-1,48
 798 1434 798 1434 686 1434 c 128,-1,49
 574 1434 574 1434 494.5 1454.5 c 128,-1,50
 415 1475 415 1475 372 1514.5 c 128,-1,51
 329 1554 329 1554 310 1602.5 c 128,-1,52
 291 1651 291 1651 291 1714 c 1,53,-1
 592 1714 l 1,54,55
 592 1702 592 1702 591 1681 c 128,-1,56
 590 1660 590 1660 590 1649 c 0,57,58
 590 1597 590 1597 609 1568.5 c 128,-1,59
 628 1540 628 1540 686 1540 c 0,60,61
 745 1540 745 1540 764.5 1570 c 128,-1,62
 784 1600 784 1600 784 1655 c 0,63,64
 784 1665 784 1665 783 1684.5 c 128,-1,65
 782 1704 782 1704 782 1714 c 1,66,-1
 1083 1714 l 1,44,45
EndSplineSet
Validated: 8388609
Position2: "'cpsp' Capital Spacing lookup 3 subtable" dx=10 dy=0 dh=20 dv=0
EndChar

StartChar: Ocircumflex
Encoding: 212 212 89
Width: 1372
Flags: MW
HStem: -45 152<604 768 604 903> 1241 152<604 768>
VStem: 41 471<565 799 565 888> 860 471<565 799>
LayerCount: 2
Fore
SplineSet
686 106 m 128,-1,1
 720 106 720 106 747 126.5 c 128,-1,2
 774 147 774 147 792 178.5 c 128,-1,3
 810 210 810 210 823 260 c 128,-1,4
 836 310 836 310 843 357 c 128,-1,5
 850 404 850 404 854 467 c 128,-1,6
 858 530 858 530 859 576 c 128,-1,7
 860 622 860 622 860 682 c 128,-1,8
 860 742 860 742 859 787.5 c 128,-1,9
 858 833 858 833 854 894 c 128,-1,10
 850 955 850 955 843 1000.5 c 128,-1,11
 836 1046 836 1046 823 1093.5 c 128,-1,12
 810 1141 810 1141 792 1171.5 c 128,-1,13
 774 1202 774 1202 747 1221.5 c 128,-1,14
 720 1241 720 1241 686 1241 c 128,-1,15
 652 1241 652 1241 625 1221.5 c 128,-1,16
 598 1202 598 1202 580 1171.5 c 128,-1,17
 562 1141 562 1141 549 1093.5 c 128,-1,18
 536 1046 536 1046 529 1000.5 c 128,-1,19
 522 955 522 955 518 894 c 128,-1,20
 514 833 514 833 513 787.5 c 128,-1,21
 512 742 512 742 512 682 c 128,-1,22
 512 622 512 622 513 576 c 128,-1,23
 514 530 514 530 518 467 c 128,-1,24
 522 404 522 404 529 357 c 128,-1,25
 536 310 536 310 549 260 c 128,-1,26
 562 210 562 210 580 178.5 c 128,-1,27
 598 147 598 147 625 126.5 c 128,-1,0
 652 106 652 106 686 106 c 128,-1,1
686 1393 m 0,28,29
 1011 1393 1011 1393 1171 1212 c 128,-1,30
 1331 1031 1331 1031 1331 694 c 0,31,32
 1331 530 1331 530 1290.5 395.5 c 128,-1,33
 1250 261 1250 261 1171.5 162 c 128,-1,34
 1093 63 1093 63 969.5 9 c 128,-1,35
 846 -45 846 -45 686 -45 c 0,36,37
 531 -45 531 -45 408.5 7 c 128,-1,38
 286 59 286 59 205.5 154 c 128,-1,39
 125 249 125 249 83 379.5 c 128,-1,40
 41 510 41 510 41 668 c 0,41,42
 41 1008 41 1008 203 1200.5 c 128,-1,43
 365 1393 365 1393 686 1393 c 0,28,29
328 1497 m 1,44,-1
 639 1733 l 1,45,-1
 727 1733 l 1,46,-1
 1042 1497 l 1,47,-1
 963 1401 l 1,48,-1
 686 1505 l 1,49,-1
 408 1401 l 1,50,-1
 328 1497 l 1,44,-1
EndSplineSet
Validated: 1
Position2: "'cpsp' Capital Spacing lookup 3 subtable" dx=10 dy=0 dh=20 dv=0
EndChar

StartChar: Odieresis
Encoding: 214 214 90
Width: 1372
Flags: MW
HStem: -45 152<604 768 604 903> 1241 152<604 768> 1456 328<393 513 864 984>
VStem: 41 471<565 799 565 888> 229 444<1566 1670> 700 444<1566 1670> 860 471<565 799>
LayerCount: 2
Fore
SplineSet
686 106 m 128,-1,1
 720 106 720 106 747 126.5 c 128,-1,2
 774 147 774 147 792 178.5 c 128,-1,3
 810 210 810 210 823 260 c 128,-1,4
 836 310 836 310 843 357 c 128,-1,5
 850 404 850 404 854 467 c 128,-1,6
 858 530 858 530 859 576 c 128,-1,7
 860 622 860 622 860 682 c 128,-1,8
 860 742 860 742 859 787.5 c 128,-1,9
 858 833 858 833 854 894 c 128,-1,10
 850 955 850 955 843 1000.5 c 128,-1,11
 836 1046 836 1046 823 1093.5 c 128,-1,12
 810 1141 810 1141 792 1171.5 c 128,-1,13
 774 1202 774 1202 747 1221.5 c 128,-1,14
 720 1241 720 1241 686 1241 c 128,-1,15
 652 1241 652 1241 625 1221.5 c 128,-1,16
 598 1202 598 1202 580 1171.5 c 128,-1,17
 562 1141 562 1141 549 1093.5 c 128,-1,18
 536 1046 536 1046 529 1000.5 c 128,-1,19
 522 955 522 955 518 894 c 128,-1,20
 514 833 514 833 513 787.5 c 128,-1,21
 512 742 512 742 512 682 c 128,-1,22
 512 622 512 622 513 576 c 128,-1,23
 514 530 514 530 518 467 c 128,-1,24
 522 404 522 404 529 357 c 128,-1,25
 536 310 536 310 549 260 c 128,-1,26
 562 210 562 210 580 178.5 c 128,-1,27
 598 147 598 147 625 126.5 c 128,-1,0
 652 106 652 106 686 106 c 128,-1,1
686 1393 m 0,28,29
 1011 1393 1011 1393 1171 1212 c 128,-1,30
 1331 1031 1331 1031 1331 694 c 0,31,32
 1331 530 1331 530 1290.5 395.5 c 128,-1,33
 1250 261 1250 261 1171.5 162 c 128,-1,34
 1093 63 1093 63 969.5 9 c 128,-1,35
 846 -45 846 -45 686 -45 c 0,36,37
 531 -45 531 -45 408.5 7 c 128,-1,38
 286 59 286 59 205.5 154 c 128,-1,39
 125 249 125 249 83 379.5 c 128,-1,40
 41 510 41 510 41 668 c 0,41,42
 41 1008 41 1008 203 1200.5 c 128,-1,43
 365 1393 365 1393 686 1393 c 0,28,29
928 1784 m 0,44,45
 1026 1784 1026 1784 1085.5 1740.5 c 128,-1,46
 1145 1697 1145 1697 1145 1620 c 0,47,48
 1145 1541 1145 1541 1083 1498.5 c 128,-1,49
 1021 1456 1021 1456 920 1456 c 0,50,51
 822 1456 822 1456 761 1498 c 128,-1,52
 700 1540 700 1540 700 1616 c 0,53,54
 700 1695 700 1695 764.5 1739.5 c 128,-1,55
 829 1784 829 1784 928 1784 c 0,44,45
457 1784 m 0,56,57
 555 1784 555 1784 614.5 1740.5 c 128,-1,58
 674 1697 674 1697 674 1620 c 0,59,60
 674 1541 674 1541 612 1498.5 c 128,-1,61
 550 1456 550 1456 449 1456 c 0,62,63
 351 1456 351 1456 290 1498 c 128,-1,64
 229 1540 229 1540 229 1616 c 0,65,66
 229 1695 229 1695 293.5 1739.5 c 128,-1,67
 358 1784 358 1784 457 1784 c 0,56,57
EndSplineSet
Validated: 8388609
Position2: "'cpsp' Capital Spacing lookup 3 subtable" dx=10 dy=0 dh=20 dv=0
EndChar

StartChar: Odotbelow
Encoding: 7884 7884 91
Width: 1372
Flags: MW
HStem: -412 328<633 753> -45 152<604 768 604 903> 1241 152<604 768>
VStem: 41 471<565 799 565 888> 469 444<-302 -198> 860 471<565 799>
LayerCount: 2
Fore
SplineSet
696 -84 m 0,0,1
 794 -84 794 -84 853.5 -127.5 c 128,-1,2
 913 -171 913 -171 913 -248 c 0,3,4
 913 -327 913 -327 851 -369.5 c 128,-1,5
 789 -412 789 -412 688 -412 c 0,6,7
 590 -412 590 -412 529.5 -370 c 128,-1,8
 469 -328 469 -328 469 -252 c 0,9,10
 469 -173 469 -173 533 -128.5 c 128,-1,11
 597 -84 597 -84 696 -84 c 0,0,1
686 106 m 128,-1,13
 720 106 720 106 747 126.5 c 128,-1,14
 774 147 774 147 792 178.5 c 128,-1,15
 810 210 810 210 823 260 c 128,-1,16
 836 310 836 310 843 357 c 128,-1,17
 850 404 850 404 854 467 c 128,-1,18
 858 530 858 530 859 576 c 128,-1,19
 860 622 860 622 860 682 c 128,-1,20
 860 742 860 742 859 787.5 c 128,-1,21
 858 833 858 833 854 894 c 128,-1,22
 850 955 850 955 843 1000.5 c 128,-1,23
 836 1046 836 1046 823 1093.5 c 128,-1,24
 810 1141 810 1141 792 1171.5 c 128,-1,25
 774 1202 774 1202 747 1221.5 c 128,-1,26
 720 1241 720 1241 686 1241 c 128,-1,27
 652 1241 652 1241 625 1221.5 c 128,-1,28
 598 1202 598 1202 580 1171.5 c 128,-1,29
 562 1141 562 1141 549 1093.5 c 128,-1,30
 536 1046 536 1046 529 1000.5 c 128,-1,31
 522 955 522 955 518 894 c 128,-1,32
 514 833 514 833 513 787.5 c 128,-1,33
 512 742 512 742 512 682 c 128,-1,34
 512 622 512 622 513 576 c 128,-1,35
 514 530 514 530 518 467 c 128,-1,36
 522 404 522 404 529 357 c 128,-1,37
 536 310 536 310 549 260 c 128,-1,38
 562 210 562 210 580 178.5 c 128,-1,39
 598 147 598 147 625 126.5 c 128,-1,12
 652 106 652 106 686 106 c 128,-1,13
686 1393 m 0,40,41
 1011 1393 1011 1393 1171 1212 c 128,-1,42
 1331 1031 1331 1031 1331 694 c 0,43,44
 1331 530 1331 530 1290.5 395.5 c 128,-1,45
 1250 261 1250 261 1171.5 162 c 128,-1,46
 1093 63 1093 63 969.5 9 c 128,-1,47
 846 -45 846 -45 686 -45 c 0,48,49
 531 -45 531 -45 408.5 7 c 128,-1,50
 286 59 286 59 205.5 154 c 128,-1,51
 125 249 125 249 83 379.5 c 128,-1,52
 41 510 41 510 41 668 c 0,53,54
 41 1008 41 1008 203 1200.5 c 128,-1,55
 365 1393 365 1393 686 1393 c 0,40,41
EndSplineSet
Validated: 8388609
Position2: "'cpsp' Capital Spacing lookup 3 subtable" dx=10 dy=0 dh=20 dv=0
EndChar

StartChar: Ograve
Encoding: 210 210 92
Width: 1372
Flags: MW
HStem: -45 152<604 768 604 903> 1241 152<604 768>
VStem: 41 471<565 799 565 888> 860 471<565 799>
LayerCount: 2
Fore
SplineSet
686 106 m 128,-1,1
 720 106 720 106 747 126.5 c 128,-1,2
 774 147 774 147 792 178.5 c 128,-1,3
 810 210 810 210 823 260 c 128,-1,4
 836 310 836 310 843 357 c 128,-1,5
 850 404 850 404 854 467 c 128,-1,6
 858 530 858 530 859 576 c 128,-1,7
 860 622 860 622 860 682 c 128,-1,8
 860 742 860 742 859 787.5 c 128,-1,9
 858 833 858 833 854 894 c 128,-1,10
 850 955 850 955 843 1000.5 c 128,-1,11
 836 1046 836 1046 823 1093.5 c 128,-1,12
 810 1141 810 1141 792 1171.5 c 128,-1,13
 774 1202 774 1202 747 1221.5 c 128,-1,14
 720 1241 720 1241 686 1241 c 128,-1,15
 652 1241 652 1241 625 1221.5 c 128,-1,16
 598 1202 598 1202 580 1171.5 c 128,-1,17
 562 1141 562 1141 549 1093.5 c 128,-1,18
 536 1046 536 1046 529 1000.5 c 128,-1,19
 522 955 522 955 518 894 c 128,-1,20
 514 833 514 833 513 787.5 c 128,-1,21
 512 742 512 742 512 682 c 128,-1,22
 512 622 512 622 513 576 c 128,-1,23
 514 530 514 530 518 467 c 128,-1,24
 522 404 522 404 529 357 c 128,-1,25
 536 310 536 310 549 260 c 128,-1,26
 562 210 562 210 580 178.5 c 128,-1,27
 598 147 598 147 625 126.5 c 128,-1,0
 652 106 652 106 686 106 c 128,-1,1
686 1393 m 0,28,29
 1011 1393 1011 1393 1171 1212 c 128,-1,30
 1331 1031 1331 1031 1331 694 c 0,31,32
 1331 530 1331 530 1290.5 395.5 c 128,-1,33
 1250 261 1250 261 1171.5 162 c 128,-1,34
 1093 63 1093 63 969.5 9 c 128,-1,35
 846 -45 846 -45 686 -45 c 0,36,37
 531 -45 531 -45 408.5 7 c 128,-1,38
 286 59 286 59 205.5 154 c 128,-1,39
 125 249 125 249 83 379.5 c 128,-1,40
 41 510 41 510 41 668 c 0,41,42
 41 1008 41 1008 203 1200.5 c 128,-1,43
 365 1393 365 1393 686 1393 c 0,28,29
580 1475 m 2,44,45
 551 1477 551 1477 540.5 1478 c 128,-1,46
 530 1479 530 1479 502 1482 c 128,-1,47
 474 1485 474 1485 461.5 1487.5 c 128,-1,48
 449 1490 449 1490 425.5 1496 c 128,-1,49
 402 1502 402 1502 390 1508.5 c 128,-1,50
 378 1515 378 1515 362 1525.5 c 128,-1,51
 346 1536 346 1536 338.5 1548.5 c 128,-1,52
 331 1561 331 1561 325 1578.5 c 128,-1,53
 319 1596 319 1596 319 1616 c 0,54,55
 319 1656 319 1656 341 1697 c 128,-1,56
 363 1738 363 1738 397 1767 c 1,57,-1
 903 1559 l 1,58,-1
 879 1454 l 1,59,-1
 580 1475 l 2,44,45
EndSplineSet
Validated: 1
Position2: "'cpsp' Capital Spacing lookup 3 subtable" dx=10 dy=0 dh=20 dv=0
EndChar

StartChar: Ohungarumlaut
Encoding: 336 336 93
Width: 1372
Flags: MW
HStem: -45 152<604 768 604 903> 1241 152<604 768>
VStem: 41 471<565 799 565 888> 860 471<565 799>
LayerCount: 2
Fore
SplineSet
686 106 m 128,-1,1
 720 106 720 106 747 126.5 c 128,-1,2
 774 147 774 147 792 178.5 c 128,-1,3
 810 210 810 210 823 260 c 128,-1,4
 836 310 836 310 843 357 c 128,-1,5
 850 404 850 404 854 467 c 128,-1,6
 858 530 858 530 859 576 c 128,-1,7
 860 622 860 622 860 682 c 128,-1,8
 860 742 860 742 859 787.5 c 128,-1,9
 858 833 858 833 854 894 c 128,-1,10
 850 955 850 955 843 1000.5 c 128,-1,11
 836 1046 836 1046 823 1093.5 c 128,-1,12
 810 1141 810 1141 792 1171.5 c 128,-1,13
 774 1202 774 1202 747 1221.5 c 128,-1,14
 720 1241 720 1241 686 1241 c 128,-1,15
 652 1241 652 1241 625 1221.5 c 128,-1,16
 598 1202 598 1202 580 1171.5 c 128,-1,17
 562 1141 562 1141 549 1093.5 c 128,-1,18
 536 1046 536 1046 529 1000.5 c 128,-1,19
 522 955 522 955 518 894 c 128,-1,20
 514 833 514 833 513 787.5 c 128,-1,21
 512 742 512 742 512 682 c 128,-1,22
 512 622 512 622 513 576 c 128,-1,23
 514 530 514 530 518 467 c 128,-1,24
 522 404 522 404 529 357 c 128,-1,25
 536 310 536 310 549 260 c 128,-1,26
 562 210 562 210 580 178.5 c 128,-1,27
 598 147 598 147 625 126.5 c 128,-1,0
 652 106 652 106 686 106 c 128,-1,1
686 1393 m 0,28,29
 1011 1393 1011 1393 1171 1212 c 128,-1,30
 1331 1031 1331 1031 1331 694 c 0,31,32
 1331 530 1331 530 1290.5 395.5 c 128,-1,33
 1250 261 1250 261 1171.5 162 c 128,-1,34
 1093 63 1093 63 969.5 9 c 128,-1,35
 846 -45 846 -45 686 -45 c 0,36,37
 531 -45 531 -45 408.5 7 c 128,-1,38
 286 59 286 59 205.5 154 c 128,-1,39
 125 249 125 249 83 379.5 c 128,-1,40
 41 510 41 510 41 668 c 0,41,42
 41 1008 41 1008 203 1200.5 c 128,-1,43
 365 1393 365 1393 686 1393 c 0,28,29
1161 1765 m 1,44,45
 1239 1715 1239 1715 1239 1636 c 0,46,47
 1239 1572 1239 1572 1196.5 1533 c 128,-1,48
 1154 1494 1154 1494 1061 1475 c 1,49,-1
 846 1434 l 1,50,-1
 803 1538 l 1,51,-1
 1161 1765 l 1,44,45
725 1765 m 1,52,53
 805 1716 805 1716 805 1636 c 0,54,55
 805 1572 805 1572 763 1532.5 c 128,-1,56
 721 1493 721 1493 627 1475 c 2,57,-1
 410 1434 l 1,58,-1
 367 1538 l 1,59,-1
 725 1765 l 1,52,53
EndSplineSet
Validated: 1
Position2: "'cpsp' Capital Spacing lookup 3 subtable" dx=10 dy=0 dh=20 dv=0
EndChar

StartChar: Omacron
Encoding: 332 332 94
Width: 1372
Flags: MW
HStem: -45 152<604 768 604 903> 1241 152<604 768> 1579 188<487 885 389 983>
VStem: 41 471<565 799 565 888> 860 471<565 799>
LayerCount: 2
Fore
SplineSet
686 106 m 128,-1,1
 720 106 720 106 747 126.5 c 128,-1,2
 774 147 774 147 792 178.5 c 128,-1,3
 810 210 810 210 823 260 c 128,-1,4
 836 310 836 310 843 357 c 128,-1,5
 850 404 850 404 854 467 c 128,-1,6
 858 530 858 530 859 576 c 128,-1,7
 860 622 860 622 860 682 c 128,-1,8
 860 742 860 742 859 787.5 c 128,-1,9
 858 833 858 833 854 894 c 128,-1,10
 850 955 850 955 843 1000.5 c 128,-1,11
 836 1046 836 1046 823 1093.5 c 128,-1,12
 810 1141 810 1141 792 1171.5 c 128,-1,13
 774 1202 774 1202 747 1221.5 c 128,-1,14
 720 1241 720 1241 686 1241 c 128,-1,15
 652 1241 652 1241 625 1221.5 c 128,-1,16
 598 1202 598 1202 580 1171.5 c 128,-1,17
 562 1141 562 1141 549 1093.5 c 128,-1,18
 536 1046 536 1046 529 1000.5 c 128,-1,19
 522 955 522 955 518 894 c 128,-1,20
 514 833 514 833 513 787.5 c 128,-1,21
 512 742 512 742 512 682 c 128,-1,22
 512 622 512 622 513 576 c 128,-1,23
 514 530 514 530 518 467 c 128,-1,24
 522 404 522 404 529 357 c 128,-1,25
 536 310 536 310 549 260 c 128,-1,26
 562 210 562 210 580 178.5 c 128,-1,27
 598 147 598 147 625 126.5 c 128,-1,0
 652 106 652 106 686 106 c 128,-1,1
686 1393 m 0,28,29
 1011 1393 1011 1393 1171 1212 c 128,-1,30
 1331 1031 1331 1031 1331 694 c 0,31,32
 1331 530 1331 530 1290.5 395.5 c 128,-1,33
 1250 261 1250 261 1171.5 162 c 128,-1,34
 1093 63 1093 63 969.5 9 c 128,-1,35
 846 -45 846 -45 686 -45 c 0,36,37
 531 -45 531 -45 408.5 7 c 128,-1,38
 286 59 286 59 205.5 154 c 128,-1,39
 125 249 125 249 83 379.5 c 128,-1,40
 41 510 41 510 41 668 c 0,41,42
 41 1008 41 1008 203 1200.5 c 128,-1,43
 365 1393 365 1393 686 1393 c 0,28,29
983 1767 m 1,44,45
 1001 1737 1001 1737 1001 1688 c 0,46,47
 1001 1638 1001 1638 970 1608.5 c 128,-1,48
 939 1579 939 1579 885 1579 c 2,49,-1
 389 1579 l 1,50,51
 371 1609 371 1609 371 1659 c 128,-1,52
 371 1709 371 1709 402 1738 c 128,-1,53
 433 1767 433 1767 487 1767 c 2,54,-1
 983 1767 l 1,44,45
EndSplineSet
Validated: 1
Position2: "'cpsp' Capital Spacing lookup 3 subtable" dx=10 dy=0 dh=20 dv=0
EndChar

StartChar: Oogonek
Encoding: 490 490 95
Width: 1372
Flags: MW
HStem: -561 176<840 860> -45 152<604 686 686 727> 1241 152<604 768>
VStem: 41 471<565 799 565 888> 516 248<-321 -283> 860 471<565 799>
LayerCount: 2
Fore
SplineSet
512 682 m 128,-1,1
 512 622 512 622 513 576 c 128,-1,2
 514 530 514 530 518 467 c 128,-1,3
 522 404 522 404 529 357 c 128,-1,4
 536 310 536 310 549 260 c 128,-1,5
 562 210 562 210 580 178.5 c 128,-1,6
 598 147 598 147 625 126.5 c 128,-1,7
 652 106 652 106 686 106 c 128,-1,8
 720 106 720 106 747 126.5 c 128,-1,9
 774 147 774 147 792 178.5 c 128,-1,10
 810 210 810 210 823 260 c 128,-1,11
 836 310 836 310 843 357 c 128,-1,12
 850 404 850 404 854 467 c 128,-1,13
 858 530 858 530 859 576 c 128,-1,14
 860 622 860 622 860 682 c 128,-1,15
 860 742 860 742 859 787.5 c 128,-1,16
 858 833 858 833 854 894 c 128,-1,17
 850 955 850 955 843 1000.5 c 128,-1,18
 836 1046 836 1046 823 1093.5 c 128,-1,19
 810 1141 810 1141 792 1171.5 c 128,-1,20
 774 1202 774 1202 747 1221.5 c 128,-1,21
 720 1241 720 1241 686 1241 c 128,-1,22
 652 1241 652 1241 625 1221.5 c 128,-1,23
 598 1202 598 1202 580 1171.5 c 128,-1,24
 562 1141 562 1141 549 1093.5 c 128,-1,25
 536 1046 536 1046 529 1000.5 c 128,-1,26
 522 955 522 955 518 894 c 128,-1,27
 514 833 514 833 513 787.5 c 128,-1,0
 512 742 512 742 512 682 c 128,-1,1
944 0 m 1,28,29
 764 -129 764 -129 764 -279 c 0,30,31
 764 -340 764 -340 791 -362.5 c 128,-1,32
 818 -385 818 -385 879 -385 c 0,33,34
 912 -385 912 -385 944.5 -372 c 128,-1,35
 977 -359 977 -359 991 -334 c 1,36,37
 1044 -373 1044 -373 1044 -422 c 0,38,39
 1044 -470 1044 -470 1003.5 -503.5 c 128,-1,40
 963 -537 963 -537 914.5 -549 c 128,-1,41
 866 -561 866 -561 819 -561 c 0,42,43
 758 -561 758 -561 705.5 -549.5 c 128,-1,44
 653 -538 653 -538 609.5 -514.5 c 128,-1,45
 566 -491 566 -491 541 -448.5 c 128,-1,46
 516 -406 516 -406 516 -350 c 0,47,48
 516 -175 516 -175 727 -45 c 1,49,-1
 686 -45 l 2,50,51
 531 -45 531 -45 408.5 7 c 128,-1,52
 286 59 286 59 205.5 154 c 128,-1,53
 125 249 125 249 83 379.5 c 128,-1,54
 41 510 41 510 41 668 c 0,55,56
 41 1008 41 1008 203 1200.5 c 128,-1,57
 365 1393 365 1393 686 1393 c 0,58,59
 1011 1393 1011 1393 1171 1212 c 128,-1,60
 1331 1031 1331 1031 1331 694 c 0,61,62
 1331 436 1331 436 1233 254 c 128,-1,63
 1135 72 1135 72 944 0 c 1,28,29
EndSplineSet
Validated: 1
Position2: "'cpsp' Capital Spacing lookup 3 subtable" dx=10 dy=0 dh=20 dv=0
EndChar

StartChar: Oslash
Encoding: 216 216 96
Width: 1372
Flags: MW
HStem: -45 152<641 768 641 903> 1241 152<604 719> 1434 41G<1057 1089>
VStem: 41 471<649 682 649 888> 860 471<565 707>
LayerCount: 2
Fore
SplineSet
530 344 m 1,0,1
 566 106 566 106 686 106 c 0,2,3
 720 106 720 106 747 126.5 c 128,-1,4
 774 147 774 147 792 178.5 c 128,-1,5
 810 210 810 210 823 260 c 128,-1,6
 836 310 836 310 843 357 c 128,-1,7
 850 404 850 404 854 467 c 128,-1,8
 858 530 858 530 859 576 c 128,-1,9
 860 622 860 622 860 682 c 0,10,11
 860 785 860 785 858 840 c 1,12,-1
 530 344 l 1,0,1
817 1112 m 1,13,14
 776 1241 776 1241 686 1241 c 0,15,16
 652 1241 652 1241 625 1221.5 c 128,-1,17
 598 1202 598 1202 580 1171.5 c 128,-1,18
 562 1141 562 1141 549 1093.5 c 128,-1,19
 536 1046 536 1046 529 1000.5 c 128,-1,20
 522 955 522 955 518 894 c 128,-1,21
 514 833 514 833 513 787.5 c 128,-1,22
 512 742 512 742 512 682 c 2,23,-1
 512 649 l 1,24,-1
 817 1112 l 1,13,14
1130 1253 m 1,25,26
 1331 1076 1331 1076 1331 694 c 0,27,28
 1331 530 1331 530 1290.5 395.5 c 128,-1,29
 1250 261 1250 261 1171.5 162 c 128,-1,30
 1093 63 1093 63 969.5 9 c 128,-1,31
 846 -45 846 -45 686 -45 c 0,32,33
 486 -45 486 -45 334 45 c 1,34,-1
 227 -117 l 1,35,36
 173 -117 173 -117 130.5 -94 c 128,-1,37
 88 -71 88 -71 88 -27 c 0,38,39
 88 5 88 5 121 55 c 2,40,-1
 195 168 l 1,41,42
 41 360 41 360 41 668 c 0,43,44
 41 1008 41 1008 203 1200.5 c 128,-1,45
 365 1393 365 1393 686 1393 c 0,46,47
 849 1393 849 1393 973 1346 c 1,48,-1
 1057 1475 l 1,49,50
 1111 1475 1111 1475 1153.5 1451.5 c 128,-1,51
 1196 1428 1196 1428 1196 1384 c 0,52,53
 1196 1352 1196 1352 1163 1303 c 2,54,-1
 1130 1253 l 1,25,26
EndSplineSet
Validated: 1
Position2: "'cpsp' Capital Spacing lookup 3 subtable" dx=10 dy=0 dh=20 dv=0
EndChar

StartChar: Oslashacute
Encoding: 510 510 97
Width: 1372
Flags: MW
HStem: -45 152<641 768 641 903> 1241 152<604 719> 1434 41G<791 791 1057 1089>
VStem: 41 471<649 682 649 888> 860 471<565 707>
LayerCount: 2
Fore
SplineSet
530 344 m 1,0,1
 566 106 566 106 686 106 c 0,2,3
 720 106 720 106 747 126.5 c 128,-1,4
 774 147 774 147 792 178.5 c 128,-1,5
 810 210 810 210 823 260 c 128,-1,6
 836 310 836 310 843 357 c 128,-1,7
 850 404 850 404 854 467 c 128,-1,8
 858 530 858 530 859 576 c 128,-1,9
 860 622 860 622 860 682 c 0,10,11
 860 785 860 785 858 840 c 1,12,-1
 530 344 l 1,0,1
817 1112 m 1,13,14
 776 1241 776 1241 686 1241 c 0,15,16
 652 1241 652 1241 625 1221.5 c 128,-1,17
 598 1202 598 1202 580 1171.5 c 128,-1,18
 562 1141 562 1141 549 1093.5 c 128,-1,19
 536 1046 536 1046 529 1000.5 c 128,-1,20
 522 955 522 955 518 894 c 128,-1,21
 514 833 514 833 513 787.5 c 128,-1,22
 512 742 512 742 512 682 c 2,23,-1
 512 649 l 1,24,-1
 817 1112 l 1,13,14
1130 1253 m 1,25,26
 1331 1076 1331 1076 1331 694 c 0,27,28
 1331 530 1331 530 1290.5 395.5 c 128,-1,29
 1250 261 1250 261 1171.5 162 c 128,-1,30
 1093 63 1093 63 969.5 9 c 128,-1,31
 846 -45 846 -45 686 -45 c 0,32,33
 486 -45 486 -45 334 45 c 1,34,-1
 227 -117 l 1,35,36
 173 -117 173 -117 130.5 -94 c 128,-1,37
 88 -71 88 -71 88 -27 c 0,38,39
 88 5 88 5 121 55 c 2,40,-1
 195 168 l 1,41,42
 41 360 41 360 41 668 c 0,43,44
 41 1008 41 1008 203 1200.5 c 128,-1,45
 365 1393 365 1393 686 1393 c 0,46,47
 849 1393 849 1393 973 1346 c 1,48,-1
 1057 1475 l 1,49,50
 1111 1475 1111 1475 1153.5 1451.5 c 128,-1,51
 1196 1428 1196 1428 1196 1384 c 0,52,53
 1196 1352 1196 1352 1163 1303 c 2,54,-1
 1130 1253 l 1,25,26
973 1767 m 1,55,56
 1007 1738 1007 1738 1029 1697 c 128,-1,57
 1051 1656 1051 1656 1051 1616 c 0,58,59
 1051 1590 1051 1590 1041.5 1569 c 128,-1,60
 1032 1548 1032 1548 1020 1534.5 c 128,-1,61
 1008 1521 1008 1521 983 1510.5 c 128,-1,62
 958 1500 958 1500 941.5 1494.5 c 128,-1,63
 925 1489 925 1489 891 1484.5 c 128,-1,64
 857 1480 857 1480 842 1479 c 128,-1,65
 827 1478 827 1478 791 1475 c 2,66,-1
 492 1454 l 1,67,-1
 467 1559 l 1,68,-1
 973 1767 l 1,55,56
EndSplineSet
Validated: 1
Position2: "'cpsp' Capital Spacing lookup 3 subtable" dx=10 dy=0 dh=20 dv=0
EndChar

StartChar: Otilde
Encoding: 213 213 98
Width: 1372
Flags: MW
HStem: -45 152<604 768 604 903> 1241 152<604 768> 1456 213<860 941 860 946> 1497 213<435 517>
VStem: 41 471<565 799 565 888> 860 471<565 799>
LayerCount: 2
Fore
SplineSet
686 106 m 128,-1,1
 720 106 720 106 747 126.5 c 128,-1,2
 774 147 774 147 792 178.5 c 128,-1,3
 810 210 810 210 823 260 c 128,-1,4
 836 310 836 310 843 357 c 128,-1,5
 850 404 850 404 854 467 c 128,-1,6
 858 530 858 530 859 576 c 128,-1,7
 860 622 860 622 860 682 c 128,-1,8
 860 742 860 742 859 787.5 c 128,-1,9
 858 833 858 833 854 894 c 128,-1,10
 850 955 850 955 843 1000.5 c 128,-1,11
 836 1046 836 1046 823 1093.5 c 128,-1,12
 810 1141 810 1141 792 1171.5 c 128,-1,13
 774 1202 774 1202 747 1221.5 c 128,-1,14
 720 1241 720 1241 686 1241 c 128,-1,15
 652 1241 652 1241 625 1221.5 c 128,-1,16
 598 1202 598 1202 580 1171.5 c 128,-1,17
 562 1141 562 1141 549 1093.5 c 128,-1,18
 536 1046 536 1046 529 1000.5 c 128,-1,19
 522 955 522 955 518 894 c 128,-1,20
 514 833 514 833 513 787.5 c 128,-1,21
 512 742 512 742 512 682 c 128,-1,22
 512 622 512 622 513 576 c 128,-1,23
 514 530 514 530 518 467 c 128,-1,24
 522 404 522 404 529 357 c 128,-1,25
 536 310 536 310 549 260 c 128,-1,26
 562 210 562 210 580 178.5 c 128,-1,27
 598 147 598 147 625 126.5 c 128,-1,0
 652 106 652 106 686 106 c 128,-1,1
686 1393 m 0,28,29
 1011 1393 1011 1393 1171 1212 c 128,-1,30
 1331 1031 1331 1031 1331 694 c 0,31,32
 1331 530 1331 530 1290.5 395.5 c 128,-1,33
 1250 261 1250 261 1171.5 162 c 128,-1,34
 1093 63 1093 63 969.5 9 c 128,-1,35
 846 -45 846 -45 686 -45 c 0,36,37
 531 -45 531 -45 408.5 7 c 128,-1,38
 286 59 286 59 205.5 154 c 128,-1,39
 125 249 125 249 83 379.5 c 128,-1,40
 41 510 41 510 41 668 c 0,41,42
 41 1008 41 1008 203 1200.5 c 128,-1,43
 365 1393 365 1393 686 1393 c 0,28,29
1049 1710 m 1,44,45
 1096 1653 1096 1653 1096 1587 c 0,46,47
 1096 1512 1096 1512 1041.5 1484 c 128,-1,48
 987 1456 987 1456 891 1456 c 0,49,50
 835 1456 835 1456 676.5 1476.5 c 128,-1,51
 518 1497 518 1497 459 1497 c 0,52,53
 369 1497 369 1497 328 1456 c 1,54,55
 281 1513 281 1513 281 1579 c 0,56,57
 281 1654 281 1654 335 1682 c 128,-1,58
 389 1710 389 1710 485 1710 c 0,59,60
 541 1710 541 1710 700.5 1689.5 c 128,-1,61
 860 1669 860 1669 918 1669 c 0,62,63
 1008 1669 1008 1669 1049 1710 c 1,44,45
EndSplineSet
Validated: 8388609
Position2: "'cpsp' Capital Spacing lookup 3 subtable" dx=10 dy=0 dh=20 dv=0
EndChar

StartChar: OE
Encoding: 338 338 99
Width: 1654
Flags: MW
HStem: -45 152<604 735> 0 172<1260 1638> 608 172<1260 1563 1260 1563> 1180 172<1260 1624 1260 1260> 1241 152<604 737 466 768>
VStem: 41 471<565 799 565 888> 860 399<565 608 780 799>
LayerCount: 2
Fore
SplineSet
686 106 m 128,-1,1
 720 106 720 106 747 126.5 c 128,-1,2
 774 147 774 147 792 178.5 c 128,-1,3
 810 210 810 210 823 260 c 128,-1,4
 836 310 836 310 843 357 c 128,-1,5
 850 404 850 404 854 467 c 128,-1,6
 858 530 858 530 859 576 c 128,-1,7
 860 622 860 622 860 682 c 128,-1,8
 860 742 860 742 859 787.5 c 128,-1,9
 858 833 858 833 854 894 c 128,-1,10
 850 955 850 955 843 1000.5 c 128,-1,11
 836 1046 836 1046 823 1093.5 c 128,-1,12
 810 1141 810 1141 792 1171.5 c 128,-1,13
 774 1202 774 1202 747 1221.5 c 128,-1,14
 720 1241 720 1241 686 1241 c 128,-1,15
 652 1241 652 1241 625 1221.5 c 128,-1,16
 598 1202 598 1202 580 1171.5 c 128,-1,17
 562 1141 562 1141 549 1093.5 c 128,-1,18
 536 1046 536 1046 529 1000.5 c 128,-1,19
 522 955 522 955 518 894 c 128,-1,20
 514 833 514 833 513 787.5 c 128,-1,21
 512 742 512 742 512 682 c 128,-1,22
 512 622 512 622 513 576 c 128,-1,23
 514 530 514 530 518 467 c 128,-1,24
 522 404 522 404 529 357 c 128,-1,25
 536 310 536 310 549 260 c 128,-1,26
 562 210 562 210 580 178.5 c 128,-1,27
 598 147 598 147 625 126.5 c 128,-1,0
 652 106 652 106 686 106 c 128,-1,1
1638 0 m 1,28,-1
 946 0 l 1,29,30
 828 -45 828 -45 686 -45 c 0,31,32
 531 -45 531 -45 408.5 7 c 128,-1,33
 286 59 286 59 205.5 154 c 128,-1,34
 125 249 125 249 83 379.5 c 128,-1,35
 41 510 41 510 41 668 c 0,36,37
 41 1008 41 1008 203 1200.5 c 128,-1,38
 365 1393 365 1393 686 1393 c 0,39,40
 838 1393 838 1393 956 1352 c 1,41,-1
 1624 1352 l 1,42,-1
 1624 1180 l 1,43,-1
 1260 1180 l 1,44,-1
 1260 780 l 1,45,-1
 1563 780 l 1,46,-1
 1563 608 l 1,47,-1
 1260 608 l 1,48,-1
 1260 172 l 1,49,-1
 1655 172 l 1,50,-1
 1638 0 l 1,28,-1
EndSplineSet
Validated: 8388609
Position2: "'cpsp' Capital Spacing lookup 3 subtable" dx=10 dy=0 dh=20 dv=0
EndChar

StartChar: P
Encoding: 80 80 100
Width: 1265
Flags: MW
HStem: 539 152<598 946> 1210 152<613 698>
VStem: 102 438<0 1198 0 1333 0 1333> 807 430<863 1019>
LayerCount: 2
Fore
SplineSet
102 1333 m 1,0,1
 398 1362 398 1362 625 1362 c 0,2,3
 731 1362 731 1362 817 1351.5 c 128,-1,4
 903 1341 903 1341 983.5 1312.5 c 128,-1,5
 1064 1284 1064 1284 1118 1239 c 128,-1,6
 1172 1194 1172 1194 1204.5 1121 c 128,-1,7
 1237 1048 1237 1048 1237 952 c 0,8,9
 1237 766 1237 766 1122.5 652.5 c 128,-1,10
 1008 539 1008 539 821 539 c 0,11,12
 598 539 598 539 598 690 c 1,13,14
 716 690 716 690 761.5 752 c 128,-1,15
 807 814 807 814 807 946 c 0,16,17
 807 1004 807 1004 798.5 1049 c 128,-1,18
 790 1094 790 1094 770.5 1132 c 128,-1,19
 751 1170 751 1170 715 1190 c 128,-1,20
 679 1210 679 1210 627 1210 c 0,21,22
 582 1210 582 1210 541 1198 c 1,23,-1
 541 0 l 1,24,-1
 102 0 l 1,25,-1
 102 1333 l 1,0,1
EndSplineSet
Validated: 1
Position2: "'cpsp' Capital Spacing lookup 3 subtable" dx=10 dy=0 dh=20 dv=0
EndChar

StartChar: Thorn
Encoding: 222 222 101
Width: 1265
Flags: MW
HStem: 276 152<598 946> 948 152<613 629 629 698> 1311 41G<102 541 541 541>
VStem: 102 438<0 936 1100 1352 0 1352 0 1352> 807 430<601 756>
LayerCount: 2
Fore
SplineSet
541 1100 m 1,0,-1
 629 1100 l 2,1,2
 735 1100 735 1100 820.5 1089.5 c 128,-1,3
 906 1079 906 1079 986 1050.5 c 128,-1,4
 1066 1022 1066 1022 1119.5 977 c 128,-1,5
 1173 932 1173 932 1205 859 c 128,-1,6
 1237 786 1237 786 1237 690 c 0,7,8
 1237 504 1237 504 1122.5 390 c 128,-1,9
 1008 276 1008 276 821 276 c 0,10,11
 723 276 723 276 660.5 312 c 128,-1,12
 598 348 598 348 598 428 c 1,13,14
 715 428 715 428 761 490.5 c 128,-1,15
 807 553 807 553 807 684 c 0,16,17
 807 948 807 948 627 948 c 0,18,19
 582 948 582 948 541 936 c 1,20,-1
 541 0 l 1,21,-1
 102 0 l 1,22,-1
 102 1352 l 1,23,-1
 541 1352 l 1,24,-1
 541 1100 l 1,0,-1
EndSplineSet
Validated: 1
Position2: "'cpsp' Capital Spacing lookup 3 subtable" dx=10 dy=0 dh=20 dv=0
EndChar

StartChar: Q
Encoding: 81 81 102
Width: 1372
Flags: MW
HStem: -387 285<1009 1102 1009 1179> -213 213<426 426> -78 41G -45 152<688 688> 1241 152<604 768>
VStem: 41 471<565 799 565 888> 860 471<565 799>
LayerCount: 2
Fore
SplineSet
686 1241 m 128,-1,1
 652 1241 652 1241 625 1221.5 c 128,-1,2
 598 1202 598 1202 580 1171.5 c 128,-1,3
 562 1141 562 1141 549 1093.5 c 128,-1,4
 536 1046 536 1046 529 1000.5 c 128,-1,5
 522 955 522 955 518 894 c 128,-1,6
 514 833 514 833 513 787.5 c 128,-1,7
 512 742 512 742 512 682 c 128,-1,8
 512 622 512 622 513 576 c 128,-1,9
 514 530 514 530 518 467 c 128,-1,10
 522 404 522 404 529 357 c 128,-1,11
 536 310 536 310 549 260 c 128,-1,12
 562 210 562 210 580 178.5 c 128,-1,13
 598 147 598 147 625 126.5 c 128,-1,14
 652 106 652 106 686 106 c 128,-1,15
 720 106 720 106 747 126.5 c 128,-1,16
 774 147 774 147 792 178.5 c 128,-1,17
 810 210 810 210 823 260 c 128,-1,18
 836 310 836 310 843 357 c 128,-1,19
 850 404 850 404 854 467 c 128,-1,20
 858 530 858 530 859 576 c 128,-1,21
 860 622 860 622 860 682 c 128,-1,22
 860 742 860 742 859 787.5 c 128,-1,23
 858 833 858 833 854 894 c 128,-1,24
 850 955 850 955 843 1000.5 c 128,-1,25
 836 1046 836 1046 823 1093.5 c 128,-1,26
 810 1141 810 1141 792 1171.5 c 128,-1,27
 774 1202 774 1202 747 1221.5 c 128,-1,0
 720 1241 720 1241 686 1241 c 128,-1,1
686 1393 m 0,28,29
 1011 1393 1011 1393 1171 1212 c 128,-1,30
 1331 1031 1331 1031 1331 694 c 0,31,32
 1331 483 1331 483 1244.5 313.5 c 128,-1,33
 1158 144 1158 144 1011.5 50.5 c 128,-1,34
 865 -43 865 -43 688 -45 c 1,35,36
 918 -102 918 -102 1065 -102 c 0,37,38
 1130 -102 1130 -102 1176.5 -89 c 128,-1,39
 1223 -76 1223 -76 1264 -37 c 1,40,41
 1319 -131 1319 -131 1319 -205 c 0,42,43
 1319 -387 1319 -387 1122 -387 c 0,44,45
 1044 -387 1044 -387 948 -360 c 128,-1,46
 852 -333 852 -333 775 -300 c 128,-1,47
 698 -267 698 -267 601.5 -240 c 128,-1,48
 505 -213 505 -213 426 -213 c 0,49,50
 311 -213 311 -213 260 -240 c 1,51,52
 217 -191 217 -191 217 -133 c 0,53,54
 217 -100 217 -100 228 -76 c 128,-1,55
 239 -52 239 -52 257 -38 c 128,-1,56
 275 -24 275 -24 303.5 -15.5 c 128,-1,57
 332 -7 332 -7 360 -4 c 128,-1,58
 388 -1 388 -1 426 0 c 1,59,60
 239 73 239 73 140 247.5 c 128,-1,61
 41 422 41 422 41 668 c 0,62,63
 41 1008 41 1008 203 1200.5 c 128,-1,64
 365 1393 365 1393 686 1393 c 0,28,29
EndSplineSet
Validated: 8388609
Position2: "'cpsp' Capital Spacing lookup 3 subtable" dx=10 dy=0 dh=20 dv=0
EndChar

StartChar: R
Encoding: 82 82 103
Width: 1273
Flags: MW
HStem: 1210 152<613 693>
VStem: 102 438<0 1198 0 1333 0 1333> 784 432<868 1014>
LayerCount: 2
Fore
SplineSet
102 1333 m 1,0,1
 398 1362 398 1362 625 1362 c 0,2,3
 732 1362 732 1362 816 1351.5 c 128,-1,4
 900 1341 900 1341 977.5 1313.5 c 128,-1,5
 1055 1286 1055 1286 1106 1241 c 128,-1,6
 1157 1196 1157 1196 1187 1123 c 128,-1,7
 1217 1050 1217 1050 1217 952 c 0,8,9
 1217 815 1217 815 1153.5 715.5 c 128,-1,10
 1090 616 1090 616 979 571 c 1,11,-1
 1303 0 l 1,12,-1
 854 0 l 1,13,-1
 616 610 l 1,14,15
 598 659 598 659 598 690 c 1,16,17
 706 690 706 690 745 753.5 c 128,-1,18
 784 817 784 817 784 946 c 0,19,20
 784 1002 784 1002 778 1045 c 128,-1,21
 772 1088 772 1088 756 1127.5 c 128,-1,22
 740 1167 740 1167 707.5 1188.5 c 128,-1,23
 675 1210 675 1210 627 1210 c 0,24,25
 582 1210 582 1210 541 1198 c 1,26,-1
 541 0 l 1,27,-1
 102 0 l 1,28,-1
 102 1333 l 1,0,1
EndSplineSet
Validated: 1
Position2: "'cpsp' Capital Spacing lookup 3 subtable" dx=10 dy=0 dh=20 dv=0
EndChar

StartChar: Racute
Encoding: 340 340 104
Width: 1273
Flags: MW
HStem: 1210 152<613 693>
VStem: 102 438<0 1198 0 1333 0 1333> 784 432<868 1014>
LayerCount: 2
Fore
SplineSet
102 1333 m 1,0,1
 398 1362 398 1362 625 1362 c 0,2,3
 732 1362 732 1362 816 1351.5 c 128,-1,4
 900 1341 900 1341 977.5 1313.5 c 128,-1,5
 1055 1286 1055 1286 1106 1241 c 128,-1,6
 1157 1196 1157 1196 1187 1123 c 128,-1,7
 1217 1050 1217 1050 1217 952 c 0,8,9
 1217 815 1217 815 1153.5 715.5 c 128,-1,10
 1090 616 1090 616 979 571 c 1,11,-1
 1303 0 l 1,12,-1
 854 0 l 1,13,-1
 616 610 l 1,14,15
 598 659 598 659 598 690 c 1,16,17
 706 690 706 690 745 753.5 c 128,-1,18
 784 817 784 817 784 946 c 0,19,20
 784 1002 784 1002 778 1045 c 128,-1,21
 772 1088 772 1088 756 1127.5 c 128,-1,22
 740 1167 740 1167 707.5 1188.5 c 128,-1,23
 675 1210 675 1210 627 1210 c 0,24,25
 582 1210 582 1210 541 1198 c 1,26,-1
 541 0 l 1,27,-1
 102 0 l 1,28,-1
 102 1333 l 1,0,1
915 1765 m 1,29,30
 949 1736 949 1736 971 1695 c 128,-1,31
 993 1654 993 1654 993 1614 c 0,32,33
 993 1588 993 1588 983.5 1567 c 128,-1,34
 974 1546 974 1546 962 1532.5 c 128,-1,35
 950 1519 950 1519 925 1508.5 c 128,-1,36
 900 1498 900 1498 883.5 1492.5 c 128,-1,37
 867 1487 867 1487 833 1482.5 c 128,-1,38
 799 1478 799 1478 784 1477 c 128,-1,39
 769 1476 769 1476 733 1473 c 2,40,-1
 434 1452 l 1,41,-1
 410 1556 l 1,42,-1
 915 1765 l 1,29,30
EndSplineSet
Validated: 1
Position2: "'cpsp' Capital Spacing lookup 3 subtable" dx=10 dy=0 dh=20 dv=0
EndChar

StartChar: Rcaron
Encoding: 344 344 105
Width: 1273
Flags: MW
HStem: 1210 152<613 693>
VStem: 102 438<0 1198 0 1333 0 1333> 784 432<868 1014>
LayerCount: 2
Fore
SplineSet
102 1333 m 1,0,1
 398 1362 398 1362 625 1362 c 0,2,3
 732 1362 732 1362 816 1351.5 c 128,-1,4
 900 1341 900 1341 977.5 1313.5 c 128,-1,5
 1055 1286 1055 1286 1106 1241 c 128,-1,6
 1157 1196 1157 1196 1187 1123 c 128,-1,7
 1217 1050 1217 1050 1217 952 c 0,8,9
 1217 815 1217 815 1153.5 715.5 c 128,-1,10
 1090 616 1090 616 979 571 c 1,11,-1
 1303 0 l 1,12,-1
 854 0 l 1,13,-1
 616 610 l 1,14,15
 598 659 598 659 598 690 c 1,16,17
 706 690 706 690 745 753.5 c 128,-1,18
 784 817 784 817 784 946 c 0,19,20
 784 1002 784 1002 778 1045 c 128,-1,21
 772 1088 772 1088 756 1127.5 c 128,-1,22
 740 1167 740 1167 707.5 1188.5 c 128,-1,23
 675 1210 675 1210 627 1210 c 0,24,25
 582 1210 582 1210 541 1198 c 1,26,-1
 541 0 l 1,27,-1
 102 0 l 1,28,-1
 102 1333 l 1,0,1
979 1661 m 1,29,-1
 690 1423 l 1,30,-1
 559 1423 l 1,31,-1
 262 1661 l 1,32,-1
 344 1755 l 1,33,-1
 621 1649 l 1,34,-1
 899 1755 l 1,35,-1
 979 1661 l 1,29,-1
EndSplineSet
Validated: 1
Position2: "'cpsp' Capital Spacing lookup 3 subtable" dx=10 dy=0 dh=20 dv=0
EndChar

StartChar: Rcommaaccent
Encoding: 342 342 106
Width: 1273
Flags: MW
HStem: -528 424<630 643> 1210 152<613 693>
VStem: 102 438<0 1198 0 1333 0 1333> 565 281<-338 -275> 784 432<868 1014>
LayerCount: 2
Fore
SplineSet
653 -104 m 0,0,1
 754 -104 754 -104 800 -144 c 128,-1,2
 846 -184 846 -184 846 -270 c 0,3,4
 846 -373 846 -373 763.5 -450.5 c 128,-1,5
 681 -528 681 -528 563 -528 c 0,6,7
 556 -528 556 -528 481 -522 c 1,8,9
 565 -414 565 -414 565 -307 c 0,10,11
 565 -210 565 -210 518 -135 c 1,12,13
 536 -122 536 -122 576.5 -113 c 128,-1,14
 617 -104 617 -104 653 -104 c 0,0,1
102 1333 m 1,15,16
 398 1362 398 1362 625 1362 c 0,17,18
 732 1362 732 1362 816 1351.5 c 128,-1,19
 900 1341 900 1341 977.5 1313.5 c 128,-1,20
 1055 1286 1055 1286 1106 1241 c 128,-1,21
 1157 1196 1157 1196 1187 1123 c 128,-1,22
 1217 1050 1217 1050 1217 952 c 0,23,24
 1217 815 1217 815 1153.5 715.5 c 128,-1,25
 1090 616 1090 616 979 571 c 1,26,-1
 1303 0 l 1,27,-1
 854 0 l 1,28,-1
 616 610 l 1,29,30
 598 659 598 659 598 690 c 1,31,32
 706 690 706 690 745 753.5 c 128,-1,33
 784 817 784 817 784 946 c 0,34,35
 784 1002 784 1002 778 1045 c 128,-1,36
 772 1088 772 1088 756 1127.5 c 128,-1,37
 740 1167 740 1167 707.5 1188.5 c 128,-1,38
 675 1210 675 1210 627 1210 c 0,39,40
 582 1210 582 1210 541 1198 c 1,41,-1
 541 0 l 1,42,-1
 102 0 l 1,43,-1
 102 1333 l 1,15,16
EndSplineSet
Validated: 8388609
Position2: "'cpsp' Capital Spacing lookup 3 subtable" dx=10 dy=0 dh=20 dv=0
EndChar

StartChar: Rdotbelow
Encoding: 7770 7770 107
Width: 1273
Flags: MW
HStem: -412 328<639 759> 1210 152<613 693>
VStem: 102 438<0 1198 0 1333 0 1333> 475 444<-302 -198> 784 432<868 1014>
LayerCount: 2
Fore
SplineSet
702 -84 m 0,0,1
 800 -84 800 -84 860 -127.5 c 128,-1,2
 920 -171 920 -171 920 -248 c 0,3,4
 920 -327 920 -327 857.5 -369.5 c 128,-1,5
 795 -412 795 -412 694 -412 c 0,6,7
 596 -412 596 -412 535.5 -370 c 128,-1,8
 475 -328 475 -328 475 -252 c 0,9,10
 475 -173 475 -173 539 -128.5 c 128,-1,11
 603 -84 603 -84 702 -84 c 0,0,1
102 1333 m 1,12,13
 398 1362 398 1362 625 1362 c 0,14,15
 732 1362 732 1362 816 1351.5 c 128,-1,16
 900 1341 900 1341 977.5 1313.5 c 128,-1,17
 1055 1286 1055 1286 1106 1241 c 128,-1,18
 1157 1196 1157 1196 1187 1123 c 128,-1,19
 1217 1050 1217 1050 1217 952 c 0,20,21
 1217 815 1217 815 1153.5 715.5 c 128,-1,22
 1090 616 1090 616 979 571 c 1,23,-1
 1303 0 l 1,24,-1
 854 0 l 1,25,-1
 616 610 l 1,26,27
 598 659 598 659 598 690 c 1,28,29
 706 690 706 690 745 753.5 c 128,-1,30
 784 817 784 817 784 946 c 0,31,32
 784 1002 784 1002 778 1045 c 128,-1,33
 772 1088 772 1088 756 1127.5 c 128,-1,34
 740 1167 740 1167 707.5 1188.5 c 128,-1,35
 675 1210 675 1210 627 1210 c 0,36,37
 582 1210 582 1210 541 1198 c 1,38,-1
 541 0 l 1,39,-1
 102 0 l 1,40,-1
 102 1333 l 1,12,13
EndSplineSet
Validated: 8388609
Position2: "'cpsp' Capital Spacing lookup 3 subtable" dx=10 dy=0 dh=20 dv=0
EndChar

StartChar: S
Encoding: 83 83 108
Width: 1136
Flags: MW
HStem: -45 152<479 595 479 674> 1241 152<537 628>
VStem: 29 350<272 305> 59 385<940 1115> 709 387<234 430> 715 350<1063 1122>
LayerCount: 2
Fore
SplineSet
606 1393 m 0,0,1
 670 1393 670 1393 730.5 1385.5 c 128,-1,2
 791 1378 791 1378 853 1359.5 c 128,-1,3
 915 1341 915 1341 961 1313 c 128,-1,4
 1007 1285 1007 1285 1036 1239.5 c 128,-1,5
 1065 1194 1065 1194 1065 1137 c 0,6,7
 1065 1032 1065 1032 993 979 c 128,-1,8
 921 926 921 926 809 926 c 0,9,10
 748 926 748 926 702 940 c 1,11,12
 715 1013 715 1013 715 1073 c 0,13,14
 715 1241 715 1241 578 1241 c 0,15,16
 516 1241 516 1241 480 1205 c 128,-1,17
 444 1169 444 1169 444 1108 c 0,18,19
 444 1040 444 1040 480 987 c 128,-1,20
 516 934 516 934 573.5 898 c 128,-1,21
 631 862 631 862 700.5 829 c 128,-1,22
 770 796 770 796 839.5 758 c 128,-1,23
 909 720 909 720 966.5 674.5 c 128,-1,24
 1024 629 1024 629 1060 557 c 128,-1,25
 1096 485 1096 485 1096 393 c 0,26,27
 1096 300 1096 300 1065.5 226 c 128,-1,28
 1035 152 1035 152 982.5 102 c 128,-1,29
 930 52 930 52 856 18.5 c 128,-1,30
 782 -15 782 -15 697.5 -30 c 128,-1,31
 613 -45 613 -45 516 -45 c 0,32,33
 446 -45 446 -45 381 -37.5 c 128,-1,34
 316 -30 316 -30 250.5 -10.5 c 128,-1,35
 185 9 185 9 137 39 c 128,-1,36
 89 69 89 69 59 118.5 c 128,-1,37
 29 168 29 168 29 231 c 0,38,39
 29 338 29 338 102 400.5 c 128,-1,40
 175 463 175 463 285 463 c 0,41,42
 351 463 351 463 391 451 c 1,43,44
 379 390 379 390 379 338 c 0,45,46
 379 229 379 229 416 167.5 c 128,-1,47
 453 106 453 106 545 106 c 0,48,49
 621 106 621 106 665 147 c 128,-1,50
 709 188 709 188 709 262 c 0,51,52
 709 330 709 330 673 383 c 128,-1,53
 637 436 637 436 580 472 c 128,-1,54
 523 508 523 508 453.5 541 c 128,-1,55
 384 574 384 574 314.5 612 c 128,-1,56
 245 650 245 650 188 695.5 c 128,-1,57
 131 741 131 741 95 813 c 128,-1,58
 59 885 59 885 59 977 c 0,59,60
 59 1057 59 1057 89.5 1126 c 128,-1,61
 120 1195 120 1195 172.5 1243 c 128,-1,62
 225 1291 225 1291 295 1325.5 c 128,-1,63
 365 1360 365 1360 444 1376.5 c 128,-1,64
 523 1393 523 1393 606 1393 c 0,0,1
EndSplineSet
Validated: 8388609
Position2: "'cpsp' Capital Spacing lookup 3 subtable" dx=10 dy=0 dh=20 dv=0
EndChar

StartChar: Sacute
Encoding: 346 346 109
Width: 1136
Flags: MW
HStem: -45 152<479 595 479 674> 1241 152<537 628>
VStem: 29 350<272 305> 59 385<940 1115> 709 387<234 430> 715 350<1063 1122>
LayerCount: 2
Fore
SplineSet
606 1393 m 0,0,1
 670 1393 670 1393 730.5 1385.5 c 128,-1,2
 791 1378 791 1378 853 1359.5 c 128,-1,3
 915 1341 915 1341 961 1313 c 128,-1,4
 1007 1285 1007 1285 1036 1239.5 c 128,-1,5
 1065 1194 1065 1194 1065 1137 c 0,6,7
 1065 1032 1065 1032 993 979 c 128,-1,8
 921 926 921 926 809 926 c 0,9,10
 748 926 748 926 702 940 c 1,11,12
 715 1013 715 1013 715 1073 c 0,13,14
 715 1241 715 1241 578 1241 c 0,15,16
 516 1241 516 1241 480 1205 c 128,-1,17
 444 1169 444 1169 444 1108 c 0,18,19
 444 1040 444 1040 480 987 c 128,-1,20
 516 934 516 934 573.5 898 c 128,-1,21
 631 862 631 862 700.5 829 c 128,-1,22
 770 796 770 796 839.5 758 c 128,-1,23
 909 720 909 720 966.5 674.5 c 128,-1,24
 1024 629 1024 629 1060 557 c 128,-1,25
 1096 485 1096 485 1096 393 c 0,26,27
 1096 300 1096 300 1065.5 226 c 128,-1,28
 1035 152 1035 152 982.5 102 c 128,-1,29
 930 52 930 52 856 18.5 c 128,-1,30
 782 -15 782 -15 697.5 -30 c 128,-1,31
 613 -45 613 -45 516 -45 c 0,32,33
 446 -45 446 -45 381 -37.5 c 128,-1,34
 316 -30 316 -30 250.5 -10.5 c 128,-1,35
 185 9 185 9 137 39 c 128,-1,36
 89 69 89 69 59 118.5 c 128,-1,37
 29 168 29 168 29 231 c 0,38,39
 29 338 29 338 102 400.5 c 128,-1,40
 175 463 175 463 285 463 c 0,41,42
 351 463 351 463 391 451 c 1,43,44
 379 390 379 390 379 338 c 0,45,46
 379 229 379 229 416 167.5 c 128,-1,47
 453 106 453 106 545 106 c 0,48,49
 621 106 621 106 665 147 c 128,-1,50
 709 188 709 188 709 262 c 0,51,52
 709 330 709 330 673 383 c 128,-1,53
 637 436 637 436 580 472 c 128,-1,54
 523 508 523 508 453.5 541 c 128,-1,55
 384 574 384 574 314.5 612 c 128,-1,56
 245 650 245 650 188 695.5 c 128,-1,57
 131 741 131 741 95 813 c 128,-1,58
 59 885 59 885 59 977 c 0,59,60
 59 1057 59 1057 89.5 1126 c 128,-1,61
 120 1195 120 1195 172.5 1243 c 128,-1,62
 225 1291 225 1291 295 1325.5 c 128,-1,63
 365 1360 365 1360 444 1376.5 c 128,-1,64
 523 1393 523 1393 606 1393 c 0,0,1
866 1765 m 1,65,66
 900 1736 900 1736 922 1695 c 128,-1,67
 944 1654 944 1654 944 1614 c 0,68,69
 944 1588 944 1588 934.5 1567 c 128,-1,70
 925 1546 925 1546 913 1532.5 c 128,-1,71
 901 1519 901 1519 876 1508.5 c 128,-1,72
 851 1498 851 1498 834.5 1492.5 c 128,-1,73
 818 1487 818 1487 784 1482.5 c 128,-1,74
 750 1478 750 1478 735 1477 c 128,-1,75
 720 1476 720 1476 684 1473 c 2,76,-1
 385 1452 l 1,77,-1
 360 1556 l 1,78,-1
 866 1765 l 1,65,66
EndSplineSet
Validated: 8388609
Substitution2: "'locl' Localized Forms in Latin lookup 13 subtable" Sacute.loclPLK
Substitution2: "'aalt' Access All Alternates lookup 0 subtable" Sacute.loclPLK
Position2: "'cpsp' Capital Spacing lookup 3 subtable" dx=10 dy=0 dh=20 dv=0
EndChar

StartChar: Scaron
Encoding: 352 352 110
Width: 1136
Flags: MW
HStem: -45 152<479 595 479 674> 1241 152<537 628>
VStem: 29 350<272 305> 59 385<940 1115> 709 387<234 430> 715 350<1063 1122>
LayerCount: 2
Fore
SplineSet
606 1393 m 0,0,1
 670 1393 670 1393 730.5 1385.5 c 128,-1,2
 791 1378 791 1378 853 1359.5 c 128,-1,3
 915 1341 915 1341 961 1313 c 128,-1,4
 1007 1285 1007 1285 1036 1239.5 c 128,-1,5
 1065 1194 1065 1194 1065 1137 c 0,6,7
 1065 1032 1065 1032 993 979 c 128,-1,8
 921 926 921 926 809 926 c 0,9,10
 748 926 748 926 702 940 c 1,11,12
 715 1013 715 1013 715 1073 c 0,13,14
 715 1241 715 1241 578 1241 c 0,15,16
 516 1241 516 1241 480 1205 c 128,-1,17
 444 1169 444 1169 444 1108 c 0,18,19
 444 1040 444 1040 480 987 c 128,-1,20
 516 934 516 934 573.5 898 c 128,-1,21
 631 862 631 862 700.5 829 c 128,-1,22
 770 796 770 796 839.5 758 c 128,-1,23
 909 720 909 720 966.5 674.5 c 128,-1,24
 1024 629 1024 629 1060 557 c 128,-1,25
 1096 485 1096 485 1096 393 c 0,26,27
 1096 300 1096 300 1065.5 226 c 128,-1,28
 1035 152 1035 152 982.5 102 c 128,-1,29
 930 52 930 52 856 18.5 c 128,-1,30
 782 -15 782 -15 697.5 -30 c 128,-1,31
 613 -45 613 -45 516 -45 c 0,32,33
 446 -45 446 -45 381 -37.5 c 128,-1,34
 316 -30 316 -30 250.5 -10.5 c 128,-1,35
 185 9 185 9 137 39 c 128,-1,36
 89 69 89 69 59 118.5 c 128,-1,37
 29 168 29 168 29 231 c 0,38,39
 29 338 29 338 102 400.5 c 128,-1,40
 175 463 175 463 285 463 c 0,41,42
 351 463 351 463 391 451 c 1,43,44
 379 390 379 390 379 338 c 0,45,46
 379 229 379 229 416 167.5 c 128,-1,47
 453 106 453 106 545 106 c 0,48,49
 621 106 621 106 665 147 c 128,-1,50
 709 188 709 188 709 262 c 0,51,52
 709 330 709 330 673 383 c 128,-1,53
 637 436 637 436 580 472 c 128,-1,54
 523 508 523 508 453.5 541 c 128,-1,55
 384 574 384 574 314.5 612 c 128,-1,56
 245 650 245 650 188 695.5 c 128,-1,57
 131 741 131 741 95 813 c 128,-1,58
 59 885 59 885 59 977 c 0,59,60
 59 1057 59 1057 89.5 1126 c 128,-1,61
 120 1195 120 1195 172.5 1243 c 128,-1,62
 225 1291 225 1291 295 1325.5 c 128,-1,63
 365 1360 365 1360 444 1376.5 c 128,-1,64
 523 1393 523 1393 606 1393 c 0,0,1
932 1661 m 1,65,-1
 643 1423 l 1,66,-1
 512 1423 l 1,67,-1
 215 1661 l 1,68,-1
 297 1755 l 1,69,-1
 573 1649 l 1,70,-1
 852 1755 l 1,71,-1
 932 1661 l 1,65,-1
EndSplineSet
Validated: 8388609
Position2: "'cpsp' Capital Spacing lookup 3 subtable" dx=10 dy=0 dh=20 dv=0
EndChar

StartChar: Scedilla
Encoding: 350 350 111
Width: 1136
Flags: MW
HStem: -528 139<446 476 414 560> -225 109<386 603> -45 152<510 516 510 510> 1241 152<537 628>
VStem: 29 350<272 305> 59 385<940 1115> 537 250<-333 -273> 709 387<234 430> 715 350<1063 1122>
LayerCount: 2
Fore
SplineSet
387 -39 m 1,0,1
 314 -30 314 -30 253.5 -11.5 c 128,-1,2
 193 7 193 7 140.5 37.5 c 128,-1,3
 88 68 88 68 58.5 117.5 c 128,-1,4
 29 167 29 167 29 231 c 0,5,6
 29 338 29 338 102 400.5 c 128,-1,7
 175 463 175 463 285 463 c 0,8,9
 351 463 351 463 391 451 c 1,10,11
 379 390 379 390 379 338 c 0,12,13
 379 229 379 229 416 167.5 c 128,-1,14
 453 106 453 106 545 106 c 0,15,16
 621 106 621 106 665 147 c 128,-1,17
 709 188 709 188 709 262 c 0,18,19
 709 330 709 330 673 383 c 128,-1,20
 637 436 637 436 580 472 c 128,-1,21
 523 508 523 508 453.5 541 c 128,-1,22
 384 574 384 574 314.5 612 c 128,-1,23
 245 650 245 650 188 695.5 c 128,-1,24
 131 741 131 741 95 813 c 128,-1,25
 59 885 59 885 59 977 c 0,26,27
 59 1057 59 1057 89.5 1126 c 128,-1,28
 120 1195 120 1195 172.5 1243 c 128,-1,29
 225 1291 225 1291 295 1325.5 c 128,-1,30
 365 1360 365 1360 444 1376.5 c 128,-1,31
 523 1393 523 1393 606 1393 c 0,32,33
 670 1393 670 1393 730.5 1385.5 c 128,-1,34
 791 1378 791 1378 853 1359.5 c 128,-1,35
 915 1341 915 1341 961 1313 c 128,-1,36
 1007 1285 1007 1285 1036 1239.5 c 128,-1,37
 1065 1194 1065 1194 1065 1137 c 0,38,39
 1065 1032 1065 1032 993 979 c 128,-1,40
 921 926 921 926 809 926 c 0,41,42
 748 926 748 926 702 940 c 1,43,44
 715 1013 715 1013 715 1073 c 0,45,46
 715 1241 715 1241 578 1241 c 0,47,48
 516 1241 516 1241 480 1205 c 128,-1,49
 444 1169 444 1169 444 1108 c 0,50,51
 444 1040 444 1040 480 987 c 128,-1,52
 516 934 516 934 573.5 898 c 128,-1,53
 631 862 631 862 700.5 829 c 128,-1,54
 770 796 770 796 839.5 758 c 128,-1,55
 909 720 909 720 966.5 674.5 c 128,-1,56
 1024 629 1024 629 1060 557 c 128,-1,57
 1096 485 1096 485 1096 393 c 0,58,59
 1096 300 1096 300 1065.5 226 c 128,-1,60
 1035 152 1035 152 982.5 102 c 128,-1,61
 930 52 930 52 856 18.5 c 128,-1,62
 782 -15 782 -15 697.5 -30 c 128,-1,63
 613 -45 613 -45 516 -45 c 2,64,-1
 510 -45 l 1,65,-1
 479 -119 l 1,66,67
 488 -119 488 -119 506 -118 c 128,-1,68
 524 -117 524 -117 530 -117 c 0,69,70
 647 -117 647 -117 716.5 -164.5 c 128,-1,71
 786 -212 786 -212 786 -315 c 0,72,73
 786 -384 786 -384 740.5 -434 c 128,-1,74
 695 -484 695 -484 629 -506 c 128,-1,75
 563 -528 563 -528 487 -528 c 0,76,77
 451 -528 451 -528 417 -522.5 c 128,-1,78
 383 -517 383 -517 347.5 -504.5 c 128,-1,79
 312 -492 312 -492 290 -466 c 128,-1,80
 268 -440 268 -440 268 -403 c 0,81,82
 268 -353 268 -353 293 -322 c 1,83,84
 347 -389 347 -389 455 -389 c 0,85,86
 488 -389 488 -389 512.5 -366 c 128,-1,87
 537 -343 537 -343 537 -309 c 0,88,89
 537 -225 537 -225 399 -225 c 0,90,91
 371 -225 371 -225 317 -229 c 1,92,-1
 387 -39 l 1,0,1
EndSplineSet
Validated: 8388609
Substitution2: "'locl' Localized Forms in Latin lookup 12 subtable" Scommaaccent
Substitution2: "'locl' Localized Forms in Latin lookup 11 subtable" Scommaaccent
Substitution2: "'aalt' Access All Alternates lookup 0 subtable" Scommaaccent
Position2: "'cpsp' Capital Spacing lookup 3 subtable" dx=10 dy=0 dh=20 dv=0
EndChar

StartChar: Scircumflex
Encoding: 348 348 112
Width: 1136
Flags: MW
HStem: -45 152<479 595 479 674> 1241 152<537 628>
VStem: 29 350<272 305> 59 385<940 1115> 709 387<234 430> 715 350<1063 1122>
LayerCount: 2
Fore
SplineSet
606 1393 m 0,0,1
 670 1393 670 1393 730.5 1385.5 c 128,-1,2
 791 1378 791 1378 853 1359.5 c 128,-1,3
 915 1341 915 1341 961 1313 c 128,-1,4
 1007 1285 1007 1285 1036 1239.5 c 128,-1,5
 1065 1194 1065 1194 1065 1137 c 0,6,7
 1065 1032 1065 1032 993 979 c 128,-1,8
 921 926 921 926 809 926 c 0,9,10
 748 926 748 926 702 940 c 1,11,12
 715 1013 715 1013 715 1073 c 0,13,14
 715 1241 715 1241 578 1241 c 0,15,16
 516 1241 516 1241 480 1205 c 128,-1,17
 444 1169 444 1169 444 1108 c 0,18,19
 444 1040 444 1040 480 987 c 128,-1,20
 516 934 516 934 573.5 898 c 128,-1,21
 631 862 631 862 700.5 829 c 128,-1,22
 770 796 770 796 839.5 758 c 128,-1,23
 909 720 909 720 966.5 674.5 c 128,-1,24
 1024 629 1024 629 1060 557 c 128,-1,25
 1096 485 1096 485 1096 393 c 0,26,27
 1096 300 1096 300 1065.5 226 c 128,-1,28
 1035 152 1035 152 982.5 102 c 128,-1,29
 930 52 930 52 856 18.5 c 128,-1,30
 782 -15 782 -15 697.5 -30 c 128,-1,31
 613 -45 613 -45 516 -45 c 0,32,33
 446 -45 446 -45 381 -37.5 c 128,-1,34
 316 -30 316 -30 250.5 -10.5 c 128,-1,35
 185 9 185 9 137 39 c 128,-1,36
 89 69 89 69 59 118.5 c 128,-1,37
 29 168 29 168 29 231 c 0,38,39
 29 338 29 338 102 400.5 c 128,-1,40
 175 463 175 463 285 463 c 0,41,42
 351 463 351 463 391 451 c 1,43,44
 379 390 379 390 379 338 c 0,45,46
 379 229 379 229 416 167.5 c 128,-1,47
 453 106 453 106 545 106 c 0,48,49
 621 106 621 106 665 147 c 128,-1,50
 709 188 709 188 709 262 c 0,51,52
 709 330 709 330 673 383 c 128,-1,53
 637 436 637 436 580 472 c 128,-1,54
 523 508 523 508 453.5 541 c 128,-1,55
 384 574 384 574 314.5 612 c 128,-1,56
 245 650 245 650 188 695.5 c 128,-1,57
 131 741 131 741 95 813 c 128,-1,58
 59 885 59 885 59 977 c 0,59,60
 59 1057 59 1057 89.5 1126 c 128,-1,61
 120 1195 120 1195 172.5 1243 c 128,-1,62
 225 1291 225 1291 295 1325.5 c 128,-1,63
 365 1360 365 1360 444 1376.5 c 128,-1,64
 523 1393 523 1393 606 1393 c 0,0,1
219 1497 m 1,65,-1
 530 1733 l 1,66,-1
 618 1733 l 1,67,-1
 934 1497 l 1,68,-1
 854 1401 l 1,69,-1
 578 1505 l 1,70,-1
 299 1401 l 1,71,-1
 219 1497 l 1,65,-1
EndSplineSet
Validated: 8388609
Position2: "'cpsp' Capital Spacing lookup 3 subtable" dx=10 dy=0 dh=20 dv=0
EndChar

StartChar: Scommaaccent
Encoding: 536 536 113
Width: 1136
Flags: MW
HStem: -528 424<454 467> -45 152<479 595 479 674> 1241 152<537 628>
VStem: 29 350<272 305> 59 385<940 1115> 389 281<-338 -275> 709 387<234 430> 715 350<1063 1122>
LayerCount: 2
Fore
SplineSet
477 -104 m 0,0,1
 578 -104 578 -104 624 -144 c 128,-1,2
 670 -184 670 -184 670 -270 c 0,3,4
 670 -373 670 -373 587.5 -450.5 c 128,-1,5
 505 -528 505 -528 387 -528 c 0,6,7
 380 -528 380 -528 305 -522 c 1,8,9
 389 -414 389 -414 389 -307 c 0,10,11
 389 -210 389 -210 342 -135 c 1,12,13
 360 -122 360 -122 400.5 -113 c 128,-1,14
 441 -104 441 -104 477 -104 c 0,0,1
606 1393 m 0,15,16
 670 1393 670 1393 730.5 1385.5 c 128,-1,17
 791 1378 791 1378 853 1359.5 c 128,-1,18
 915 1341 915 1341 961 1313 c 128,-1,19
 1007 1285 1007 1285 1036 1239.5 c 128,-1,20
 1065 1194 1065 1194 1065 1137 c 0,21,22
 1065 1032 1065 1032 993 979 c 128,-1,23
 921 926 921 926 809 926 c 0,24,25
 748 926 748 926 702 940 c 1,26,27
 715 1013 715 1013 715 1073 c 0,28,29
 715 1241 715 1241 578 1241 c 0,30,31
 516 1241 516 1241 480 1205 c 128,-1,32
 444 1169 444 1169 444 1108 c 0,33,34
 444 1040 444 1040 480 987 c 128,-1,35
 516 934 516 934 573.5 898 c 128,-1,36
 631 862 631 862 700.5 829 c 128,-1,37
 770 796 770 796 839.5 758 c 128,-1,38
 909 720 909 720 966.5 674.5 c 128,-1,39
 1024 629 1024 629 1060 557 c 128,-1,40
 1096 485 1096 485 1096 393 c 0,41,42
 1096 300 1096 300 1065.5 226 c 128,-1,43
 1035 152 1035 152 982.5 102 c 128,-1,44
 930 52 930 52 856 18.5 c 128,-1,45
 782 -15 782 -15 697.5 -30 c 128,-1,46
 613 -45 613 -45 516 -45 c 0,47,48
 446 -45 446 -45 381 -37.5 c 128,-1,49
 316 -30 316 -30 250.5 -10.5 c 128,-1,50
 185 9 185 9 137 39 c 128,-1,51
 89 69 89 69 59 118.5 c 128,-1,52
 29 168 29 168 29 231 c 0,53,54
 29 338 29 338 102 400.5 c 128,-1,55
 175 463 175 463 285 463 c 0,56,57
 351 463 351 463 391 451 c 1,58,59
 379 390 379 390 379 338 c 0,60,61
 379 229 379 229 416 167.5 c 128,-1,62
 453 106 453 106 545 106 c 0,63,64
 621 106 621 106 665 147 c 128,-1,65
 709 188 709 188 709 262 c 0,66,67
 709 330 709 330 673 383 c 128,-1,68
 637 436 637 436 580 472 c 128,-1,69
 523 508 523 508 453.5 541 c 128,-1,70
 384 574 384 574 314.5 612 c 128,-1,71
 245 650 245 650 188 695.5 c 128,-1,72
 131 741 131 741 95 813 c 128,-1,73
 59 885 59 885 59 977 c 0,74,75
 59 1057 59 1057 89.5 1126 c 128,-1,76
 120 1195 120 1195 172.5 1243 c 128,-1,77
 225 1291 225 1291 295 1325.5 c 128,-1,78
 365 1360 365 1360 444 1376.5 c 128,-1,79
 523 1393 523 1393 606 1393 c 0,15,16
EndSplineSet
Validated: 8388609
Position2: "'cpsp' Capital Spacing lookup 3 subtable" dx=10 dy=0 dh=20 dv=0
EndChar

StartChar: Sdotbelow
Encoding: 7778 7778 114
Width: 1136
Flags: MW
HStem: -412 328<461 581> -45 152<479 595 479 674> 1241 152<537 628>
VStem: 29 350<272 305> 59 385<940 1115> 297 444<-302 -198> 709 387<234 430> 715 350<1063 1122>
LayerCount: 2
Fore
SplineSet
524 -84 m 0,0,1
 622 -84 622 -84 681.5 -127.5 c 128,-1,2
 741 -171 741 -171 741 -248 c 0,3,4
 741 -327 741 -327 679 -369.5 c 128,-1,5
 617 -412 617 -412 516 -412 c 0,6,7
 418 -412 418 -412 357.5 -370 c 128,-1,8
 297 -328 297 -328 297 -252 c 0,9,10
 297 -173 297 -173 361 -128.5 c 128,-1,11
 425 -84 425 -84 524 -84 c 0,0,1
606 1393 m 0,12,13
 670 1393 670 1393 730.5 1385.5 c 128,-1,14
 791 1378 791 1378 853 1359.5 c 128,-1,15
 915 1341 915 1341 961 1313 c 128,-1,16
 1007 1285 1007 1285 1036 1239.5 c 128,-1,17
 1065 1194 1065 1194 1065 1137 c 0,18,19
 1065 1032 1065 1032 993 979 c 128,-1,20
 921 926 921 926 809 926 c 0,21,22
 748 926 748 926 702 940 c 1,23,24
 715 1013 715 1013 715 1073 c 0,25,26
 715 1241 715 1241 578 1241 c 0,27,28
 516 1241 516 1241 480 1205 c 128,-1,29
 444 1169 444 1169 444 1108 c 0,30,31
 444 1040 444 1040 480 987 c 128,-1,32
 516 934 516 934 573.5 898 c 128,-1,33
 631 862 631 862 700.5 829 c 128,-1,34
 770 796 770 796 839.5 758 c 128,-1,35
 909 720 909 720 966.5 674.5 c 128,-1,36
 1024 629 1024 629 1060 557 c 128,-1,37
 1096 485 1096 485 1096 393 c 0,38,39
 1096 300 1096 300 1065.5 226 c 128,-1,40
 1035 152 1035 152 982.5 102 c 128,-1,41
 930 52 930 52 856 18.5 c 128,-1,42
 782 -15 782 -15 697.5 -30 c 128,-1,43
 613 -45 613 -45 516 -45 c 0,44,45
 446 -45 446 -45 381 -37.5 c 128,-1,46
 316 -30 316 -30 250.5 -10.5 c 128,-1,47
 185 9 185 9 137 39 c 128,-1,48
 89 69 89 69 59 118.5 c 128,-1,49
 29 168 29 168 29 231 c 0,50,51
 29 338 29 338 102 400.5 c 128,-1,52
 175 463 175 463 285 463 c 0,53,54
 351 463 351 463 391 451 c 1,55,56
 379 390 379 390 379 338 c 0,57,58
 379 229 379 229 416 167.5 c 128,-1,59
 453 106 453 106 545 106 c 0,60,61
 621 106 621 106 665 147 c 128,-1,62
 709 188 709 188 709 262 c 0,63,64
 709 330 709 330 673 383 c 128,-1,65
 637 436 637 436 580 472 c 128,-1,66
 523 508 523 508 453.5 541 c 128,-1,67
 384 574 384 574 314.5 612 c 128,-1,68
 245 650 245 650 188 695.5 c 128,-1,69
 131 741 131 741 95 813 c 128,-1,70
 59 885 59 885 59 977 c 0,71,72
 59 1057 59 1057 89.5 1126 c 128,-1,73
 120 1195 120 1195 172.5 1243 c 128,-1,74
 225 1291 225 1291 295 1325.5 c 128,-1,75
 365 1360 365 1360 444 1376.5 c 128,-1,76
 523 1393 523 1393 606 1393 c 0,12,13
EndSplineSet
Validated: 8388609
Position2: "'cpsp' Capital Spacing lookup 3 subtable" dx=10 dy=0 dh=20 dv=0
EndChar

StartChar: uni1E9E
Encoding: 7838 7838 115
Width: 1554
Flags: MW
HStem: -45 117<1010 1089 1010 1168> 0 346<82 857> 1239 154<681 843>
VStem: 82 444<0 657 657 680 0 902> 612 332<183 238> 723 338<824 907> 1165 356<175 323>
LayerCount: 2
Fore
SplineSet
82 657 m 2,0,1
 82 1028 82 1028 254 1210.5 c 128,-1,2
 426 1393 426 1393 791 1393 c 0,3,4
 1173 1393 1173 1393 1343 1135 c 1,5,6
 1289 1127 1289 1127 1243 1112 c 128,-1,7
 1197 1097 1197 1097 1154 1073.5 c 128,-1,8
 1111 1050 1111 1050 1086 1012.5 c 128,-1,9
 1061 975 1061 975 1061 928 c 0,10,11
 1061 886 1061 886 1086.5 844 c 128,-1,12
 1112 802 1112 802 1152.5 764.5 c 128,-1,13
 1193 727 1193 727 1242.5 688 c 128,-1,14
 1292 649 1292 649 1341 606.5 c 128,-1,15
 1390 564 1390 564 1430.5 520 c 128,-1,16
 1471 476 1471 476 1496.5 420 c 128,-1,17
 1522 364 1522 364 1522 305 c 0,18,19
 1522 211 1522 211 1483.5 141.5 c 128,-1,20
 1445 72 1445 72 1376.5 32 c 128,-1,21
 1308 -8 1308 -8 1224 -26.5 c 128,-1,22
 1140 -45 1140 -45 1038 -45 c 0,23,24
 963 -45 963 -45 894 -34.5 c 128,-1,25
 825 -24 825 -24 758.5 -0.5 c 128,-1,26
 692 23 692 23 652 69 c 128,-1,27
 612 115 612 115 612 178 c 0,28,29
 612 262 612 262 679 304 c 128,-1,30
 746 346 746 346 844 346 c 0,31,32
 922 346 922 346 952 328 c 1,33,34
 944 262 944 262 944 225 c 0,35,36
 944 72 944 72 1053 72 c 0,37,38
 1106 72 1106 72 1135.5 107.5 c 128,-1,39
 1165 143 1165 143 1165 199 c 0,40,41
 1165 249 1165 249 1140.5 297 c 128,-1,42
 1116 345 1116 345 1077 384 c 128,-1,43
 1038 423 1038 423 991 462 c 128,-1,44
 944 501 944 501 897 541 c 128,-1,45
 850 581 850 581 811 622.5 c 128,-1,46
 772 664 772 664 747.5 715 c 128,-1,47
 723 766 723 766 723 821 c 0,48,49
 723 883 723 883 747.5 935.5 c 128,-1,50
 772 988 772 988 814.5 1025.5 c 128,-1,51
 857 1063 857 1063 905.5 1089.5 c 128,-1,52
 954 1116 954 1116 1012 1135 c 1,53,54
 923 1239 923 1239 791 1239 c 0,55,56
 726 1239 726 1239 679.5 1215.5 c 128,-1,57
 633 1192 633 1192 603 1149.5 c 128,-1,58
 573 1107 573 1107 556 1035.5 c 128,-1,59
 539 964 539 964 532.5 880.5 c 128,-1,60
 526 797 526 797 526 680 c 2,61,-1
 526 0 l 1,62,-1
 82 0 l 1,63,-1
 82 657 l 2,0,1
EndSplineSet
Validated: 8388609
Position2: "'cpsp' Capital Spacing lookup 3 subtable" dx=10 dy=0 dh=20 dv=0
EndChar

StartChar: Schwa
Encoding: 399 399 116
Width: 1318
Flags: MW
HStem: -45 156<567 700 567 813> 618 127 1112 287<465 608>
VStem: 41 414<280 441 280 506> 805 473
LayerCount: 2
Fore
SplineSet
616 111 m 0,0,1
 799 111 799 111 805 618 c 1,2,-1
 797 618 l 2,3,4
 630 618 630 618 542.5 552.5 c 128,-1,5
 455 487 455 487 455 334 c 0,6,7
 455 247 455 247 500.5 179 c 128,-1,8
 546 111 546 111 616 111 c 0,0,1
586 1399 m 0,9,10
 924 1399 924 1399 1101 1208 c 128,-1,11
 1278 1017 1278 1017 1278 674 c 0,12,13
 1278 318 1278 318 1103.5 136.5 c 128,-1,14
 929 -45 929 -45 580 -45 c 0,15,16
 499 -45 499 -45 423.5 -32.5 c 128,-1,17
 348 -20 348 -20 277.5 9 c 128,-1,18
 207 38 207 38 155 81 c 128,-1,19
 103 124 103 124 72 189 c 128,-1,20
 41 254 41 254 41 334 c 0,21,22
 41 434 41 434 71.5 508.5 c 128,-1,23
 102 583 102 583 153 627.5 c 128,-1,24
 204 672 204 672 282.5 699 c 128,-1,25
 361 726 361 726 444 735.5 c 128,-1,26
 527 745 527 745 635 745 c 0,27,28
 737 745 737 745 803 737 c 1,29,30
 799 800 799 800 787.5 853.5 c 128,-1,31
 776 907 776 907 752.5 955.5 c 128,-1,32
 729 1004 729 1004 696 1038 c 128,-1,33
 663 1072 663 1072 614 1092 c 128,-1,34
 565 1112 565 1112 504 1112 c 0,35,36
 401 1112 401 1112 305 1051 c 128,-1,37
 209 990 209 990 162 895 c 1,38,39
 127 911 127 911 106.5 952.5 c 128,-1,40
 86 994 86 994 86 1038 c 0,41,42
 86 1127 86 1127 129.5 1198 c 128,-1,43
 173 1269 173 1269 245.5 1312 c 128,-1,44
 318 1355 318 1355 405 1377 c 128,-1,45
 492 1399 492 1399 586 1399 c 0,9,10
EndSplineSet
Validated: 1
Position2: "'cpsp' Capital Spacing lookup 3 subtable" dx=10 dy=0 dh=20 dv=0
EndChar

StartChar: T
Encoding: 84 84 117
Width: 1036
Flags: MW
HStem: 1180 172<16 299 16 1026 737 1010 737 737>
VStem: 299 438<0 1180 0 1180>
LayerCount: 2
Fore
SplineSet
1010 1180 m 1,0,-1
 737 1180 l 1,1,-1
 737 0 l 1,2,-1
 299 0 l 1,3,-1
 299 1180 l 1,4,-1
 16 1180 l 1,5,-1
 16 1352 l 1,6,-1
 1026 1352 l 1,7,-1
 1010 1180 l 1,0,-1
EndSplineSet
Validated: 1
Position2: "'cpsp' Capital Spacing lookup 3 subtable" dx=10 dy=0 dh=20 dv=0
EndChar

StartChar: Tbar
Encoding: 358 358 118
Width: 1036
Flags: MW
HStem: 588 188<162 299 162 299 31 299 737 872> 1180 172<16 299 16 1026 737 737 737 1010>
VStem: 299 438<0 588 0 588 776 1180>
LayerCount: 2
Fore
SplineSet
1004 776 m 1,0,1
 1012 752 1012 752 1012 715 c 0,2,3
 1012 652 1012 652 975 620 c 128,-1,4
 938 588 938 588 872 588 c 2,5,-1
 737 588 l 1,6,-1
 737 0 l 1,7,-1
 299 0 l 1,8,-1
 299 588 l 1,9,-1
 31 588 l 1,10,11
 23 612 23 612 23 647 c 0,12,13
 23 712 23 712 59.5 744 c 128,-1,14
 96 776 96 776 162 776 c 2,15,-1
 299 776 l 1,16,-1
 299 1180 l 1,17,-1
 16 1180 l 1,18,-1
 16 1352 l 1,19,-1
 1026 1352 l 1,20,-1
 1010 1180 l 1,21,-1
 737 1180 l 1,22,-1
 737 776 l 1,23,-1
 1004 776 l 1,0,1
EndSplineSet
Validated: 1
Position2: "'cpsp' Capital Spacing lookup 3 subtable" dx=10 dy=0 dh=20 dv=0
EndChar

StartChar: Tcaron
Encoding: 356 356 119
Width: 1036
Flags: MW
HStem: 1180 172<16 299 16 1026 737 1010 737 737>
VStem: 299 438<0 1180 0 1180>
LayerCount: 2
Fore
SplineSet
737 1180 m 1,0,-1
 737 0 l 1,1,-1
 299 0 l 1,2,-1
 299 1180 l 1,3,-1
 16 1180 l 1,4,-1
 16 1352 l 1,5,-1
 1026 1352 l 1,6,-1
 1010 1180 l 1,7,-1
 737 1180 l 1,0,-1
872 1661 m 1,8,-1
 584 1423 l 1,9,-1
 453 1423 l 1,10,-1
 156 1661 l 1,11,-1
 238 1755 l 1,12,-1
 514 1649 l 1,13,-1
 793 1755 l 1,14,-1
 872 1661 l 1,8,-1
EndSplineSet
Validated: 1
Position2: "'cpsp' Capital Spacing lookup 3 subtable" dx=10 dy=0 dh=20 dv=0
EndChar

StartChar: Tcedilla
Encoding: 354 354 120
Width: 1036
Flags: MW
HStem: -528 139<451 480 418 564> -225 109<390 607> 1180 172<16 299 16 1026 737 737 737 1010>
VStem: 299 438<0 1180 0 1180> 541 250<-333 -273>
LayerCount: 2
Fore
SplineSet
532 0 m 1,0,-1
 483 -119 l 1,1,2
 492 -119 492 -119 510 -118 c 128,-1,3
 528 -117 528 -117 535 -117 c 0,4,5
 652 -117 652 -117 721.5 -164.5 c 128,-1,6
 791 -212 791 -212 791 -315 c 0,7,8
 791 -384 791 -384 745.5 -434 c 128,-1,9
 700 -484 700 -484 634 -506 c 128,-1,10
 568 -528 568 -528 492 -528 c 0,11,12
 456 -528 456 -528 422 -522.5 c 128,-1,13
 388 -517 388 -517 352 -504.5 c 128,-1,14
 316 -492 316 -492 294 -466 c 128,-1,15
 272 -440 272 -440 272 -403 c 0,16,17
 272 -353 272 -353 297 -322 c 1,18,19
 351 -389 351 -389 459 -389 c 0,20,21
 492 -389 492 -389 516.5 -366 c 128,-1,22
 541 -343 541 -343 541 -309 c 0,23,24
 541 -225 541 -225 403 -225 c 0,25,26
 376 -225 376 -225 322 -229 c 1,27,-1
 406 0 l 1,28,-1
 299 0 l 1,29,-1
 299 1180 l 1,30,-1
 16 1180 l 1,31,-1
 16 1352 l 1,32,-1
 1026 1352 l 1,33,-1
 1010 1180 l 1,34,-1
 737 1180 l 1,35,-1
 737 0 l 1,36,-1
 532 0 l 1,0,-1
EndSplineSet
Validated: 8388609
Substitution2: "'locl' Localized Forms in Latin lookup 12 subtable" uni021A
Substitution2: "'locl' Localized Forms in Latin lookup 11 subtable" uni021A
Substitution2: "'aalt' Access All Alternates lookup 0 subtable" uni021A
Position2: "'cpsp' Capital Spacing lookup 3 subtable" dx=10 dy=0 dh=20 dv=0
EndChar

StartChar: uni021A
Encoding: 538 538 121
Width: 1036
Flags: MW
HStem: -528 424<456 469> 1180 172<16 299 16 1026 737 1010 737 737>
VStem: 299 438<0 1180 0 1180> 391 281<-338 -275>
LayerCount: 2
Fore
SplineSet
479 -104 m 0,0,1
 580 -104 580 -104 626 -144 c 128,-1,2
 672 -184 672 -184 672 -270 c 0,3,4
 672 -373 672 -373 589.5 -450.5 c 128,-1,5
 507 -528 507 -528 389 -528 c 0,6,7
 382 -528 382 -528 307 -522 c 1,8,9
 391 -414 391 -414 391 -307 c 0,10,11
 391 -210 391 -210 344 -135 c 1,12,13
 362 -122 362 -122 402.5 -113 c 128,-1,14
 443 -104 443 -104 479 -104 c 0,0,1
737 1180 m 1,15,-1
 737 0 l 1,16,-1
 299 0 l 1,17,-1
 299 1180 l 1,18,-1
 16 1180 l 1,19,-1
 16 1352 l 1,20,-1
 1026 1352 l 1,21,-1
 1010 1180 l 1,22,-1
 737 1180 l 1,15,-1
EndSplineSet
Validated: 8388609
Position2: "'cpsp' Capital Spacing lookup 3 subtable" dx=10 dy=0 dh=20 dv=0
EndChar

StartChar: Tdotbelow
Encoding: 7788 7788 122
Width: 1036
Flags: MW
HStem: -412 328<465 585> 1180 172<16 299 16 1026 737 1010 737 737>
VStem: 299 438<0 1180 0 1180> 301 444<-302 -198>
LayerCount: 2
Fore
SplineSet
528 -84 m 0,0,1
 626 -84 626 -84 685.5 -127.5 c 128,-1,2
 745 -171 745 -171 745 -248 c 0,3,4
 745 -327 745 -327 683 -369.5 c 128,-1,5
 621 -412 621 -412 520 -412 c 0,6,7
 422 -412 422 -412 361.5 -370 c 128,-1,8
 301 -328 301 -328 301 -252 c 0,9,10
 301 -173 301 -173 365 -128.5 c 128,-1,11
 429 -84 429 -84 528 -84 c 0,0,1
737 1180 m 1,12,-1
 737 0 l 1,13,-1
 299 0 l 1,14,-1
 299 1180 l 1,15,-1
 16 1180 l 1,16,-1
 16 1352 l 1,17,-1
 1026 1352 l 1,18,-1
 1010 1180 l 1,19,-1
 737 1180 l 1,12,-1
EndSplineSet
Validated: 8388609
Position2: "'cpsp' Capital Spacing lookup 3 subtable" dx=10 dy=0 dh=20 dv=0
EndChar

StartChar: U
Encoding: 85 85 123
Width: 1249
Flags: MW
HStem: -45 172<616 760 616 842> 1311 41G<86 524 524 524 856 1165 1165 1165>
VStem: 86 438<494 516 516 1352> 856 309<539 561 561 1352>
LayerCount: 2
Fore
SplineSet
1165 561 m 2,0,1
 1165 409 1165 409 1138.5 300 c 128,-1,2
 1112 191 1112 191 1052.5 111.5 c 128,-1,3
 993 32 993 32 892 -6.5 c 128,-1,4
 791 -45 791 -45 645 -45 c 0,5,6
 358 -45 358 -45 222 83.5 c 128,-1,7
 86 212 86 212 86 494 c 2,8,-1
 86 1352 l 1,9,-1
 524 1352 l 1,10,-1
 524 516 l 2,11,12
 524 447 524 447 526 398.5 c 128,-1,13
 528 350 528 350 534.5 303 c 128,-1,14
 541 256 541 256 552.5 226 c 128,-1,15
 564 196 564 196 582 172 c 128,-1,16
 600 148 600 148 626.5 137.5 c 128,-1,17
 653 127 653 127 688 127 c 0,18,19
 731 127 731 127 760.5 144 c 128,-1,20
 790 161 790 161 809 191.5 c 128,-1,21
 828 222 828 222 838.5 275.5 c 128,-1,22
 849 329 849 329 852.5 389.5 c 128,-1,23
 856 450 856 450 856 539 c 2,24,-1
 856 1352 l 1,25,-1
 1165 1352 l 1,26,-1
 1165 561 l 2,0,1
EndSplineSet
Validated: 1
Position2: "'cpsp' Capital Spacing lookup 3 subtable" dx=10 dy=0 dh=20 dv=0
EndChar

StartChar: Uacute
Encoding: 218 218 124
Width: 1249
Flags: MW
HStem: -45 172<616 760 616 842> 1311 41G<86 524 524 524 856 1165 1165 1165>
VStem: 86 438<494 516 516 1352> 856 309<539 561 561 1352>
LayerCount: 2
Fore
SplineSet
1165 561 m 2,0,1
 1165 409 1165 409 1138.5 300 c 128,-1,2
 1112 191 1112 191 1052.5 111.5 c 128,-1,3
 993 32 993 32 892 -6.5 c 128,-1,4
 791 -45 791 -45 645 -45 c 0,5,6
 358 -45 358 -45 222 83.5 c 128,-1,7
 86 212 86 212 86 494 c 2,8,-1
 86 1352 l 1,9,-1
 524 1352 l 1,10,-1
 524 516 l 2,11,12
 524 447 524 447 526 398.5 c 128,-1,13
 528 350 528 350 534.5 303 c 128,-1,14
 541 256 541 256 552.5 226 c 128,-1,15
 564 196 564 196 582 172 c 128,-1,16
 600 148 600 148 626.5 137.5 c 128,-1,17
 653 127 653 127 688 127 c 0,18,19
 731 127 731 127 760.5 144 c 128,-1,20
 790 161 790 161 809 191.5 c 128,-1,21
 828 222 828 222 838.5 275.5 c 128,-1,22
 849 329 849 329 852.5 389.5 c 128,-1,23
 856 450 856 450 856 539 c 2,24,-1
 856 1352 l 1,25,-1
 1165 1352 l 1,26,-1
 1165 561 l 2,0,1
975 1765 m 1,27,28
 1009 1736 1009 1736 1031 1695 c 128,-1,29
 1053 1654 1053 1654 1053 1614 c 0,30,31
 1053 1588 1053 1588 1043.5 1567 c 128,-1,32
 1034 1546 1034 1546 1022 1532.5 c 128,-1,33
 1010 1519 1010 1519 985 1508.5 c 128,-1,34
 960 1498 960 1498 943.5 1492.5 c 128,-1,35
 927 1487 927 1487 893 1482.5 c 128,-1,36
 859 1478 859 1478 844 1477 c 128,-1,37
 829 1476 829 1476 793 1473 c 2,38,-1
 494 1452 l 1,39,-1
 469 1556 l 1,40,-1
 975 1765 l 1,27,28
EndSplineSet
Validated: 1
Position2: "'cpsp' Capital Spacing lookup 3 subtable" dx=10 dy=0 dh=20 dv=0
EndChar

StartChar: Ubreve
Encoding: 364 364 125
Width: 1249
Flags: MW
HStem: -45 172<616 760 616 842> 1311 41G<86 524 524 524 856 1165 1165 1165> 1434 106<642 741 642 839>
VStem: 86 438<494 516 516 1352> 289 299<1634 1660 1619 1714> 780 301<1673 1714> 856 309<539 561 561 1352>
LayerCount: 2
Fore
SplineSet
1165 561 m 2,0,1
 1165 409 1165 409 1138.5 300 c 128,-1,2
 1112 191 1112 191 1052.5 111.5 c 128,-1,3
 993 32 993 32 892 -6.5 c 128,-1,4
 791 -45 791 -45 645 -45 c 0,5,6
 358 -45 358 -45 222 83.5 c 128,-1,7
 86 212 86 212 86 494 c 2,8,-1
 86 1352 l 1,9,-1
 524 1352 l 1,10,-1
 524 516 l 2,11,12
 524 447 524 447 526 398.5 c 128,-1,13
 528 350 528 350 534.5 303 c 128,-1,14
 541 256 541 256 552.5 226 c 128,-1,15
 564 196 564 196 582 172 c 128,-1,16
 600 148 600 148 626.5 137.5 c 128,-1,17
 653 127 653 127 688 127 c 0,18,19
 731 127 731 127 760.5 144 c 128,-1,20
 790 161 790 161 809 191.5 c 128,-1,21
 828 222 828 222 838.5 275.5 c 128,-1,22
 849 329 849 329 852.5 389.5 c 128,-1,23
 856 450 856 450 856 539 c 2,24,-1
 856 1352 l 1,25,-1
 1165 1352 l 1,26,-1
 1165 561 l 2,0,1
1081 1714 m 1,27,28
 1081 1651 1081 1651 1062 1602.5 c 128,-1,29
 1043 1554 1043 1554 999 1514.5 c 128,-1,30
 955 1475 955 1475 875.5 1454.5 c 128,-1,31
 796 1434 796 1434 684 1434 c 128,-1,32
 572 1434 572 1434 492.5 1454.5 c 128,-1,33
 413 1475 413 1475 370 1514.5 c 128,-1,34
 327 1554 327 1554 308 1602.5 c 128,-1,35
 289 1651 289 1651 289 1714 c 1,36,-1
 590 1714 l 1,37,38
 590 1702 590 1702 589 1681 c 128,-1,39
 588 1660 588 1660 588 1649 c 0,40,41
 588 1597 588 1597 607 1568.5 c 128,-1,42
 626 1540 626 1540 684 1540 c 0,43,44
 743 1540 743 1540 762.5 1570 c 128,-1,45
 782 1600 782 1600 782 1655 c 0,46,47
 782 1665 782 1665 781 1684.5 c 128,-1,48
 780 1704 780 1704 780 1714 c 1,49,-1
 1081 1714 l 1,27,28
EndSplineSet
Validated: 8388609
Position2: "'cpsp' Capital Spacing lookup 3 subtable" dx=10 dy=0 dh=20 dv=0
EndChar

StartChar: Ucircumflex
Encoding: 219 219 126
Width: 1249
Flags: MW
HStem: -45 172<616 760 616 842> 1311 41G<86 524 524 524 856 1165 1165 1165>
VStem: 86 438<494 516 516 1352> 856 309<539 561 561 1352>
LayerCount: 2
Fore
SplineSet
1165 561 m 2,0,1
 1165 409 1165 409 1138.5 300 c 128,-1,2
 1112 191 1112 191 1052.5 111.5 c 128,-1,3
 993 32 993 32 892 -6.5 c 128,-1,4
 791 -45 791 -45 645 -45 c 0,5,6
 358 -45 358 -45 222 83.5 c 128,-1,7
 86 212 86 212 86 494 c 2,8,-1
 86 1352 l 1,9,-1
 524 1352 l 1,10,-1
 524 516 l 2,11,12
 524 447 524 447 526 398.5 c 128,-1,13
 528 350 528 350 534.5 303 c 128,-1,14
 541 256 541 256 552.5 226 c 128,-1,15
 564 196 564 196 582 172 c 128,-1,16
 600 148 600 148 626.5 137.5 c 128,-1,17
 653 127 653 127 688 127 c 0,18,19
 731 127 731 127 760.5 144 c 128,-1,20
 790 161 790 161 809 191.5 c 128,-1,21
 828 222 828 222 838.5 275.5 c 128,-1,22
 849 329 849 329 852.5 389.5 c 128,-1,23
 856 450 856 450 856 539 c 2,24,-1
 856 1352 l 1,25,-1
 1165 1352 l 1,26,-1
 1165 561 l 2,0,1
326 1497 m 1,27,-1
 637 1733 l 1,28,-1
 725 1733 l 1,29,-1
 1040 1497 l 1,30,-1
 961 1401 l 1,31,-1
 684 1505 l 1,32,-1
 406 1401 l 1,33,-1
 326 1497 l 1,27,-1
EndSplineSet
Validated: 1
Position2: "'cpsp' Capital Spacing lookup 3 subtable" dx=10 dy=0 dh=20 dv=0
EndChar

StartChar: Udieresis
Encoding: 220 220 127
Width: 1249
Flags: MW
HStem: -45 172<616 760 616 842> 1311 41G<86 524 524 524 856 1165 1165 1165> 1456 328<391 511 862 982>
VStem: 86 438<494 516 516 1352> 227 444<1566 1670> 698 444<1566 1670> 856 309<539 561 561 1352>
LayerCount: 2
Fore
SplineSet
1165 561 m 2,0,1
 1165 409 1165 409 1138.5 300 c 128,-1,2
 1112 191 1112 191 1052.5 111.5 c 128,-1,3
 993 32 993 32 892 -6.5 c 128,-1,4
 791 -45 791 -45 645 -45 c 0,5,6
 358 -45 358 -45 222 83.5 c 128,-1,7
 86 212 86 212 86 494 c 2,8,-1
 86 1352 l 1,9,-1
 524 1352 l 1,10,-1
 524 516 l 2,11,12
 524 447 524 447 526 398.5 c 128,-1,13
 528 350 528 350 534.5 303 c 128,-1,14
 541 256 541 256 552.5 226 c 128,-1,15
 564 196 564 196 582 172 c 128,-1,16
 600 148 600 148 626.5 137.5 c 128,-1,17
 653 127 653 127 688 127 c 0,18,19
 731 127 731 127 760.5 144 c 128,-1,20
 790 161 790 161 809 191.5 c 128,-1,21
 828 222 828 222 838.5 275.5 c 128,-1,22
 849 329 849 329 852.5 389.5 c 128,-1,23
 856 450 856 450 856 539 c 2,24,-1
 856 1352 l 1,25,-1
 1165 1352 l 1,26,-1
 1165 561 l 2,0,1
926 1784 m 0,27,28
 1024 1784 1024 1784 1083.5 1740.5 c 128,-1,29
 1143 1697 1143 1697 1143 1620 c 0,30,31
 1143 1541 1143 1541 1081 1498.5 c 128,-1,32
 1019 1456 1019 1456 918 1456 c 0,33,34
 820 1456 820 1456 759 1498 c 128,-1,35
 698 1540 698 1540 698 1616 c 0,36,37
 698 1695 698 1695 762.5 1739.5 c 128,-1,38
 827 1784 827 1784 926 1784 c 0,27,28
455 1784 m 0,39,40
 553 1784 553 1784 612.5 1740.5 c 128,-1,41
 672 1697 672 1697 672 1620 c 0,42,43
 672 1541 672 1541 609.5 1498.5 c 128,-1,44
 547 1456 547 1456 446 1456 c 0,45,46
 348 1456 348 1456 287.5 1498 c 128,-1,47
 227 1540 227 1540 227 1616 c 0,48,49
 227 1695 227 1695 291.5 1739.5 c 128,-1,50
 356 1784 356 1784 455 1784 c 0,39,40
EndSplineSet
Validated: 8388609
Position2: "'cpsp' Capital Spacing lookup 3 subtable" dx=10 dy=0 dh=20 dv=0
EndChar

StartChar: Udotbelow
Encoding: 7908 7908 128
Width: 1249
Flags: MW
HStem: -412 328<631 751> -45 172<616 760 616 842> 1311 41G<86 524 524 524 856 1165 1165 1165>
VStem: 86 438<494 516 516 1352> 467 444<-302 -198> 856 309<539 561 561 1352>
LayerCount: 2
Fore
SplineSet
694 -84 m 0,0,1
 792 -84 792 -84 851.5 -127.5 c 128,-1,2
 911 -171 911 -171 911 -248 c 0,3,4
 911 -327 911 -327 849 -369.5 c 128,-1,5
 787 -412 787 -412 686 -412 c 0,6,7
 588 -412 588 -412 527.5 -370 c 128,-1,8
 467 -328 467 -328 467 -252 c 0,9,10
 467 -173 467 -173 531 -128.5 c 128,-1,11
 595 -84 595 -84 694 -84 c 0,0,1
1165 561 m 2,12,13
 1165 409 1165 409 1138.5 300 c 128,-1,14
 1112 191 1112 191 1052.5 111.5 c 128,-1,15
 993 32 993 32 892 -6.5 c 128,-1,16
 791 -45 791 -45 645 -45 c 0,17,18
 358 -45 358 -45 222 83.5 c 128,-1,19
 86 212 86 212 86 494 c 2,20,-1
 86 1352 l 1,21,-1
 524 1352 l 1,22,-1
 524 516 l 2,23,24
 524 447 524 447 526 398.5 c 128,-1,25
 528 350 528 350 534.5 303 c 128,-1,26
 541 256 541 256 552.5 226 c 128,-1,27
 564 196 564 196 582 172 c 128,-1,28
 600 148 600 148 626.5 137.5 c 128,-1,29
 653 127 653 127 688 127 c 0,30,31
 731 127 731 127 760.5 144 c 128,-1,32
 790 161 790 161 809 191.5 c 128,-1,33
 828 222 828 222 838.5 275.5 c 128,-1,34
 849 329 849 329 852.5 389.5 c 128,-1,35
 856 450 856 450 856 539 c 2,36,-1
 856 1352 l 1,37,-1
 1165 1352 l 1,38,-1
 1165 561 l 2,12,13
EndSplineSet
Validated: 8388609
Position2: "'cpsp' Capital Spacing lookup 3 subtable" dx=10 dy=0 dh=20 dv=0
EndChar

StartChar: Ugrave
Encoding: 217 217 129
Width: 1249
Flags: MW
HStem: -45 172<616 760 616 842> 1311 41G<86 524 524 524 856 1165 1165 1165>
VStem: 86 438<494 516 516 1352> 856 309<539 561 561 1352>
LayerCount: 2
Fore
SplineSet
1165 561 m 2,0,1
 1165 409 1165 409 1138.5 300 c 128,-1,2
 1112 191 1112 191 1052.5 111.5 c 128,-1,3
 993 32 993 32 892 -6.5 c 128,-1,4
 791 -45 791 -45 645 -45 c 0,5,6
 358 -45 358 -45 222 83.5 c 128,-1,7
 86 212 86 212 86 494 c 2,8,-1
 86 1352 l 1,9,-1
 524 1352 l 1,10,-1
 524 516 l 2,11,12
 524 447 524 447 526 398.5 c 128,-1,13
 528 350 528 350 534.5 303 c 128,-1,14
 541 256 541 256 552.5 226 c 128,-1,15
 564 196 564 196 582 172 c 128,-1,16
 600 148 600 148 626.5 137.5 c 128,-1,17
 653 127 653 127 688 127 c 0,18,19
 731 127 731 127 760.5 144 c 128,-1,20
 790 161 790 161 809 191.5 c 128,-1,21
 828 222 828 222 838.5 275.5 c 128,-1,22
 849 329 849 329 852.5 389.5 c 128,-1,23
 856 450 856 450 856 539 c 2,24,-1
 856 1352 l 1,25,-1
 1165 1352 l 1,26,-1
 1165 561 l 2,0,1
578 1475 m 2,27,28
 549 1477 549 1477 538.5 1478 c 128,-1,29
 528 1479 528 1479 500 1482 c 128,-1,30
 472 1485 472 1485 459.5 1487.5 c 128,-1,31
 447 1490 447 1490 423.5 1496 c 128,-1,32
 400 1502 400 1502 388 1508.5 c 128,-1,33
 376 1515 376 1515 360 1525.5 c 128,-1,34
 344 1536 344 1536 336.5 1548.5 c 128,-1,35
 329 1561 329 1561 323 1578.5 c 128,-1,36
 317 1596 317 1596 317 1616 c 0,37,38
 317 1656 317 1656 339 1697 c 128,-1,39
 361 1738 361 1738 395 1767 c 1,40,-1
 901 1559 l 1,41,-1
 877 1454 l 1,42,-1
 578 1475 l 2,27,28
EndSplineSet
Validated: 1
Position2: "'cpsp' Capital Spacing lookup 3 subtable" dx=10 dy=0 dh=20 dv=0
EndChar

StartChar: Uhungarumlaut
Encoding: 368 368 130
Width: 1249
Flags: MW
HStem: -45 172<616 760 616 842> 1311 41G<86 524 524 524 856 1165 1165 1165>
VStem: 86 438<494 516 516 1352> 856 309<539 561 561 1352>
LayerCount: 2
Fore
SplineSet
1165 561 m 2,0,1
 1165 409 1165 409 1138.5 300 c 128,-1,2
 1112 191 1112 191 1052.5 111.5 c 128,-1,3
 993 32 993 32 892 -6.5 c 128,-1,4
 791 -45 791 -45 645 -45 c 0,5,6
 358 -45 358 -45 222 83.5 c 128,-1,7
 86 212 86 212 86 494 c 2,8,-1
 86 1352 l 1,9,-1
 524 1352 l 1,10,-1
 524 516 l 2,11,12
 524 447 524 447 526 398.5 c 128,-1,13
 528 350 528 350 534.5 303 c 128,-1,14
 541 256 541 256 552.5 226 c 128,-1,15
 564 196 564 196 582 172 c 128,-1,16
 600 148 600 148 626.5 137.5 c 128,-1,17
 653 127 653 127 688 127 c 0,18,19
 731 127 731 127 760.5 144 c 128,-1,20
 790 161 790 161 809 191.5 c 128,-1,21
 828 222 828 222 838.5 275.5 c 128,-1,22
 849 329 849 329 852.5 389.5 c 128,-1,23
 856 450 856 450 856 539 c 2,24,-1
 856 1352 l 1,25,-1
 1165 1352 l 1,26,-1
 1165 561 l 2,0,1
1159 1765 m 1,27,28
 1237 1715 1237 1715 1237 1636 c 0,29,30
 1237 1572 1237 1572 1194.5 1533 c 128,-1,31
 1152 1494 1152 1494 1059 1475 c 1,32,-1
 844 1434 l 1,33,-1
 801 1538 l 1,34,-1
 1159 1765 l 1,27,28
723 1765 m 1,35,36
 803 1716 803 1716 803 1636 c 0,37,38
 803 1572 803 1572 761 1532.5 c 128,-1,39
 719 1493 719 1493 625 1475 c 2,40,-1
 408 1434 l 1,41,-1
 365 1538 l 1,42,-1
 723 1765 l 1,35,36
EndSplineSet
Validated: 1
Position2: "'cpsp' Capital Spacing lookup 3 subtable" dx=10 dy=0 dh=20 dv=0
EndChar

StartChar: Umacron
Encoding: 362 362 131
Width: 1249
Flags: MW
HStem: -45 172<616 760 616 842> 1311 41G<86 524 524 524 856 1165 1165 1165> 1579 188<483 881 385 979>
VStem: 86 438<494 516 516 1352> 856 309<539 561 561 1352>
LayerCount: 2
Fore
SplineSet
1165 561 m 2,0,1
 1165 409 1165 409 1138.5 300 c 128,-1,2
 1112 191 1112 191 1052.5 111.5 c 128,-1,3
 993 32 993 32 892 -6.5 c 128,-1,4
 791 -45 791 -45 645 -45 c 0,5,6
 358 -45 358 -45 222 83.5 c 128,-1,7
 86 212 86 212 86 494 c 2,8,-1
 86 1352 l 1,9,-1
 524 1352 l 1,10,-1
 524 516 l 2,11,12
 524 447 524 447 526 398.5 c 128,-1,13
 528 350 528 350 534.5 303 c 128,-1,14
 541 256 541 256 552.5 226 c 128,-1,15
 564 196 564 196 582 172 c 128,-1,16
 600 148 600 148 626.5 137.5 c 128,-1,17
 653 127 653 127 688 127 c 0,18,19
 731 127 731 127 760.5 144 c 128,-1,20
 790 161 790 161 809 191.5 c 128,-1,21
 828 222 828 222 838.5 275.5 c 128,-1,22
 849 329 849 329 852.5 389.5 c 128,-1,23
 856 450 856 450 856 539 c 2,24,-1
 856 1352 l 1,25,-1
 1165 1352 l 1,26,-1
 1165 561 l 2,0,1
979 1767 m 1,27,28
 997 1737 997 1737 997 1688 c 0,29,30
 997 1638 997 1638 966 1608.5 c 128,-1,31
 935 1579 935 1579 881 1579 c 2,32,-1
 385 1579 l 1,33,34
 367 1609 367 1609 367 1659 c 128,-1,35
 367 1709 367 1709 398 1738 c 128,-1,36
 429 1767 429 1767 483 1767 c 2,37,-1
 979 1767 l 1,27,28
EndSplineSet
Validated: 1
Position2: "'cpsp' Capital Spacing lookup 3 subtable" dx=10 dy=0 dh=20 dv=0
EndChar

StartChar: Uogonek
Encoding: 370 370 132
Width: 1249
Flags: MW
HStem: -541 176<838 858> -45 172<616 645> 1311 41G<86 524 524 524 856 1165 1165 1165>
VStem: 86 438<494 516 516 1352> 514 248<-300 -268> 856 309<539 561 561 1352>
LayerCount: 2
Fore
SplineSet
1165 561 m 2,0,1
 1165 347 1165 347 1111 211.5 c 128,-1,2
 1057 76 1057 76 934 12 c 1,3,4
 762 -110 762 -110 762 -258 c 0,5,6
 762 -319 762 -319 789 -342 c 128,-1,7
 816 -365 816 -365 877 -365 c 0,8,9
 909 -365 909 -365 942 -351.5 c 128,-1,10
 975 -338 975 -338 989 -313 c 1,11,12
 1042 -352 1042 -352 1042 -401 c 0,13,14
 1042 -438 1042 -438 1019 -466.5 c 128,-1,15
 996 -495 996 -495 960 -510.5 c 128,-1,16
 924 -526 924 -526 887.5 -533.5 c 128,-1,17
 851 -541 851 -541 817 -541 c 0,18,19
 756 -541 756 -541 703.5 -529.5 c 128,-1,20
 651 -518 651 -518 607.5 -494.5 c 128,-1,21
 564 -471 564 -471 539 -428.5 c 128,-1,22
 514 -386 514 -386 514 -330 c 0,23,24
 514 -170 514 -170 694 -43 c 1,25,-1
 645 -45 l 1,26,27
 358 -45 358 -45 222 83.5 c 128,-1,28
 86 212 86 212 86 494 c 2,29,-1
 86 1352 l 1,30,-1
 524 1352 l 1,31,-1
 524 516 l 2,32,33
 524 447 524 447 526 398.5 c 128,-1,34
 528 350 528 350 534.5 303 c 128,-1,35
 541 256 541 256 552.5 226 c 128,-1,36
 564 196 564 196 582 172 c 128,-1,37
 600 148 600 148 626.5 137.5 c 128,-1,38
 653 127 653 127 688 127 c 0,39,40
 731 127 731 127 760.5 144 c 128,-1,41
 790 161 790 161 809 191.5 c 128,-1,42
 828 222 828 222 838.5 275.5 c 128,-1,43
 849 329 849 329 852.5 389.5 c 128,-1,44
 856 450 856 450 856 539 c 2,45,-1
 856 1352 l 1,46,-1
 1165 1352 l 1,47,-1
 1165 561 l 2,0,1
EndSplineSet
Validated: 8388609
Position2: "'cpsp' Capital Spacing lookup 3 subtable" dx=10 dy=0 dh=20 dv=0
EndChar

StartChar: Uring
Encoding: 366 366 133
Width: 1249
Flags: MW
HStem: -45 172<616 760 616 842> 1311 41G<86 524 524 524 856 1165 1165 1165> 1432 82<651 716 651 753> 1741 84<652 716>
VStem: 86 438<494 516 516 1352> 449 143<1597 1661 1597 1693> 776 145<1597 1661> 856 309<539 561 561 1352>
LayerCount: 2
Fore
SplineSet
1165 561 m 2,0,1
 1165 409 1165 409 1138.5 300 c 128,-1,2
 1112 191 1112 191 1052.5 111.5 c 128,-1,3
 993 32 993 32 892 -6.5 c 128,-1,4
 791 -45 791 -45 645 -45 c 0,5,6
 358 -45 358 -45 222 83.5 c 128,-1,7
 86 212 86 212 86 494 c 2,8,-1
 86 1352 l 1,9,-1
 524 1352 l 1,10,-1
 524 516 l 2,11,12
 524 447 524 447 526 398.5 c 128,-1,13
 528 350 528 350 534.5 303 c 128,-1,14
 541 256 541 256 552.5 226 c 128,-1,15
 564 196 564 196 582 172 c 128,-1,16
 600 148 600 148 626.5 137.5 c 128,-1,17
 653 127 653 127 688 127 c 0,18,19
 731 127 731 127 760.5 144 c 128,-1,20
 790 161 790 161 809 191.5 c 128,-1,21
 828 222 828 222 838.5 275.5 c 128,-1,22
 849 329 849 329 852.5 389.5 c 128,-1,23
 856 450 856 450 856 539 c 2,24,-1
 856 1352 l 1,25,-1
 1165 1352 l 1,26,-1
 1165 561 l 2,0,1
684 1513 m 0,27,28
 729 1513 729 1513 752.5 1545.5 c 128,-1,29
 776 1578 776 1578 776 1630 c 0,30,31
 776 1679 776 1679 752.5 1710 c 128,-1,32
 729 1741 729 1741 684 1741 c 128,-1,33
 639 1741 639 1741 615.5 1710 c 128,-1,34
 592 1679 592 1679 592 1630 c 0,35,36
 592 1577 592 1577 614.5 1545 c 128,-1,37
 637 1513 637 1513 684 1513 c 0,27,28
684 1432 m 0,38,39
 581 1432 581 1432 515 1485.5 c 128,-1,40
 449 1539 449 1539 449 1630 c 0,41,42
 449 1722 449 1722 514 1773.5 c 128,-1,43
 579 1825 579 1825 684 1825 c 0,44,45
 791 1825 791 1825 856.5 1773.5 c 128,-1,46
 922 1722 922 1722 922 1630 c 0,47,48
 922 1539 922 1539 855.5 1485.5 c 128,-1,49
 789 1432 789 1432 684 1432 c 0,38,39
EndSplineSet
Validated: 8388609
Position2: "'cpsp' Capital Spacing lookup 3 subtable" dx=10 dy=0 dh=20 dv=0
EndChar

StartChar: Utilde
Encoding: 360 360 134
Width: 1249
Flags: MW
HStem: -45 172<616 760 616 842> 1311 41G<86 524 524 524 856 1165 1165 1165> 1456 213<858 939 858 944> 1497 213<433 515>
VStem: 86 438<494 516 516 1352> 856 309<539 561 561 1352>
LayerCount: 2
Fore
SplineSet
1165 561 m 2,0,1
 1165 409 1165 409 1138.5 300 c 128,-1,2
 1112 191 1112 191 1052.5 111.5 c 128,-1,3
 993 32 993 32 892 -6.5 c 128,-1,4
 791 -45 791 -45 645 -45 c 0,5,6
 358 -45 358 -45 222 83.5 c 128,-1,7
 86 212 86 212 86 494 c 2,8,-1
 86 1352 l 1,9,-1
 524 1352 l 1,10,-1
 524 516 l 2,11,12
 524 447 524 447 526 398.5 c 128,-1,13
 528 350 528 350 534.5 303 c 128,-1,14
 541 256 541 256 552.5 226 c 128,-1,15
 564 196 564 196 582 172 c 128,-1,16
 600 148 600 148 626.5 137.5 c 128,-1,17
 653 127 653 127 688 127 c 0,18,19
 731 127 731 127 760.5 144 c 128,-1,20
 790 161 790 161 809 191.5 c 128,-1,21
 828 222 828 222 838.5 275.5 c 128,-1,22
 849 329 849 329 852.5 389.5 c 128,-1,23
 856 450 856 450 856 539 c 2,24,-1
 856 1352 l 1,25,-1
 1165 1352 l 1,26,-1
 1165 561 l 2,0,1
1047 1710 m 1,27,28
 1094 1653 1094 1653 1094 1587 c 0,29,30
 1094 1512 1094 1512 1039.5 1484 c 128,-1,31
 985 1456 985 1456 889 1456 c 0,32,33
 833 1456 833 1456 674.5 1476.5 c 128,-1,34
 516 1497 516 1497 457 1497 c 0,35,36
 367 1497 367 1497 326 1456 c 1,37,38
 279 1513 279 1513 279 1579 c 0,39,40
 279 1654 279 1654 333 1682 c 128,-1,41
 387 1710 387 1710 483 1710 c 0,42,43
 539 1710 539 1710 698 1689.5 c 128,-1,44
 857 1669 857 1669 915 1669 c 0,45,46
 1006 1669 1006 1669 1047 1710 c 1,27,28
EndSplineSet
Validated: 8388609
Position2: "'cpsp' Capital Spacing lookup 3 subtable" dx=10 dy=0 dh=20 dv=0
EndChar

StartChar: V
Encoding: 86 86 135
Width: 1196
Flags: MW
HStem: 0 250<682 682 682 850> 1311 41G<6 457 457 457 903 1227 1227 1227>
VStem: 6 1221<1352 1352>
LayerCount: 2
Fore
SplineSet
850 0 m 1,0,-1
 328 0 l 1,1,-1
 6 1352 l 1,2,-1
 457 1352 l 1,3,-1
 682 250 l 1,4,-1
 903 1352 l 1,5,-1
 1227 1352 l 1,6,-1
 850 0 l 1,0,-1
EndSplineSet
Validated: 1
Position2: "'cpsp' Capital Spacing lookup 3 subtable" dx=10 dy=0 dh=20 dv=0
EndChar

StartChar: W
Encoding: 87 87 136
Width: 1976
Flags: MW
HStem: 0 250<682 682 682 852> 1311 41G<6 457 457 457 903 1233 1233 1233 1681 2005 2005 2005>
VStem: 6 1999<1352 1352>
LayerCount: 2
Fore
SplineSet
1630 0 m 1,0,-1
 1106 0 l 1,1,-1
 975 674 l 1,2,-1
 852 0 l 1,3,-1
 328 0 l 1,4,-1
 6 1352 l 1,5,-1
 457 1352 l 1,6,-1
 682 250 l 1,7,-1
 903 1352 l 1,8,-1
 1233 1352 l 1,9,-1
 1460 250 l 1,10,-1
 1681 1352 l 1,11,-1
 2005 1352 l 1,12,-1
 1630 0 l 1,0,-1
EndSplineSet
Validated: 1
Position2: "'cpsp' Capital Spacing lookup 3 subtable" dx=10 dy=0 dh=20 dv=0
EndChar

StartChar: Wacute
Encoding: 7810 7810 137
Width: 1976
Flags: MW
HStem: 0 250<682 682 682 852> 1311 41G<6 457 457 457 903 1233 1233 1233 1681 2005 2005 2005>
VStem: 6 1999<1352 1352>
LayerCount: 2
Fore
SplineSet
1106 0 m 1,0,-1
 975 674 l 1,1,-1
 852 0 l 1,2,-1
 328 0 l 1,3,-1
 6 1352 l 1,4,-1
 457 1352 l 1,5,-1
 682 250 l 1,6,-1
 903 1352 l 1,7,-1
 1233 1352 l 1,8,-1
 1460 250 l 1,9,-1
 1681 1352 l 1,10,-1
 2005 1352 l 1,11,-1
 1630 0 l 1,12,-1
 1106 0 l 1,0,-1
1356 1765 m 1,13,14
 1390 1736 1390 1736 1412 1695 c 128,-1,15
 1434 1654 1434 1654 1434 1614 c 0,16,17
 1434 1588 1434 1588 1424.5 1567 c 128,-1,18
 1415 1546 1415 1546 1403 1532.5 c 128,-1,19
 1391 1519 1391 1519 1366 1508.5 c 128,-1,20
 1341 1498 1341 1498 1324.5 1492.5 c 128,-1,21
 1308 1487 1308 1487 1274 1482.5 c 128,-1,22
 1240 1478 1240 1478 1225 1477 c 128,-1,23
 1210 1476 1210 1476 1174 1473 c 2,24,-1
 874 1452 l 1,25,-1
 850 1556 l 1,26,-1
 1356 1765 l 1,13,14
EndSplineSet
Validated: 1
Position2: "'cpsp' Capital Spacing lookup 3 subtable" dx=10 dy=0 dh=20 dv=0
EndChar

StartChar: Wcircumflex
Encoding: 372 372 138
Width: 1976
Flags: MW
HStem: 0 250<682 682 682 852> 1311 41G<6 457 457 457 903 1233 1233 1233 1681 2005 2005 2005>
VStem: 6 1999<1352 1352>
LayerCount: 2
Fore
SplineSet
1106 0 m 1,0,-1
 975 674 l 1,1,-1
 852 0 l 1,2,-1
 328 0 l 1,3,-1
 6 1352 l 1,4,-1
 457 1352 l 1,5,-1
 682 250 l 1,6,-1
 903 1352 l 1,7,-1
 1233 1352 l 1,8,-1
 1460 250 l 1,9,-1
 1681 1352 l 1,10,-1
 2005 1352 l 1,11,-1
 1630 0 l 1,12,-1
 1106 0 l 1,0,-1
707 1497 m 1,13,-1
 1018 1733 l 1,14,-1
 1106 1733 l 1,15,-1
 1421 1497 l 1,16,-1
 1341 1401 l 1,17,-1
 1065 1505 l 1,18,-1
 786 1401 l 1,19,-1
 707 1497 l 1,13,-1
EndSplineSet
Validated: 1
Position2: "'cpsp' Capital Spacing lookup 3 subtable" dx=10 dy=0 dh=20 dv=0
EndChar

StartChar: Wdieresis
Encoding: 7812 7812 139
Width: 1976
Flags: MW
HStem: 0 250<682 682 682 852> 1311 41G<6 457 457 457 903 1233 1233 1233 1681 2005 2005 2005> 1456 328<772 892 1243 1363>
VStem: 608 444<1566 1670> 1079 444<1566 1670>
LayerCount: 2
Fore
SplineSet
1106 0 m 1,0,-1
 975 674 l 1,1,-1
 852 0 l 1,2,-1
 328 0 l 1,3,-1
 6 1352 l 1,4,-1
 457 1352 l 1,5,-1
 682 250 l 1,6,-1
 903 1352 l 1,7,-1
 1233 1352 l 1,8,-1
 1460 250 l 1,9,-1
 1681 1352 l 1,10,-1
 2005 1352 l 1,11,-1
 1630 0 l 1,12,-1
 1106 0 l 1,0,-1
1307 1784 m 0,13,14
 1405 1784 1405 1784 1464.5 1740.5 c 128,-1,15
 1524 1697 1524 1697 1524 1620 c 0,16,17
 1524 1541 1524 1541 1461.5 1498.5 c 128,-1,18
 1399 1456 1399 1456 1298 1456 c 0,19,20
 1200 1456 1200 1456 1139.5 1498 c 128,-1,21
 1079 1540 1079 1540 1079 1616 c 0,22,23
 1079 1695 1079 1695 1143.5 1739.5 c 128,-1,24
 1208 1784 1208 1784 1307 1784 c 0,13,14
836 1784 m 0,25,26
 934 1784 934 1784 993.5 1740.5 c 128,-1,27
 1053 1697 1053 1697 1053 1620 c 0,28,29
 1053 1541 1053 1541 990.5 1498.5 c 128,-1,30
 928 1456 928 1456 827 1456 c 0,31,32
 729 1456 729 1456 668.5 1498 c 128,-1,33
 608 1540 608 1540 608 1616 c 0,34,35
 608 1695 608 1695 672.5 1739.5 c 128,-1,36
 737 1784 737 1784 836 1784 c 0,25,26
EndSplineSet
Validated: 1
Position2: "'cpsp' Capital Spacing lookup 3 subtable" dx=10 dy=0 dh=20 dv=0
EndChar

StartChar: Wgrave
Encoding: 7808 7808 140
Width: 1976
Flags: MW
HStem: 0 250<682 682 682 852> 1311 41G<6 457 457 457 903 1233 1233 1233 1681 2005 2005 2005>
VStem: 6 1999<1352 1352>
LayerCount: 2
Fore
SplineSet
1106 0 m 1,0,-1
 975 674 l 1,1,-1
 852 0 l 1,2,-1
 328 0 l 1,3,-1
 6 1352 l 1,4,-1
 457 1352 l 1,5,-1
 682 250 l 1,6,-1
 903 1352 l 1,7,-1
 1233 1352 l 1,8,-1
 1460 250 l 1,9,-1
 1681 1352 l 1,10,-1
 2005 1352 l 1,11,-1
 1630 0 l 1,12,-1
 1106 0 l 1,0,-1
958 1475 m 2,13,14
 922 1478 922 1478 907 1479 c 128,-1,15
 892 1480 892 1480 858 1484.5 c 128,-1,16
 824 1489 824 1489 807.5 1494.5 c 128,-1,17
 791 1500 791 1500 766 1510.5 c 128,-1,18
 741 1521 741 1521 729 1534.5 c 128,-1,19
 717 1548 717 1548 707.5 1569 c 128,-1,20
 698 1590 698 1590 698 1616 c 0,21,22
 698 1656 698 1656 720 1697 c 128,-1,23
 742 1738 742 1738 776 1767 c 1,24,-1
 1282 1559 l 1,25,-1
 1257 1454 l 1,26,-1
 958 1475 l 2,13,14
EndSplineSet
Validated: 1
Position2: "'cpsp' Capital Spacing lookup 3 subtable" dx=10 dy=0 dh=20 dv=0
EndChar

StartChar: X
Encoding: 88 88 141
Width: 1083
Flags: MW
HStem: 1311 41G<0 449 449 449 791 1114 1114 1114>
VStem: -29 1143
LayerCount: 2
Fore
SplineSet
774 686 m 1,0,-1
 1112 0 l 1,1,-1
 664 0 l 1,2,-1
 453 457 l 1,3,-1
 295 0 l 1,4,-1
 -29 0 l 1,5,-1
 319 696 l 1,6,-1
 0 1352 l 1,7,-1
 449 1352 l 1,8,-1
 641 920 l 1,9,-1
 791 1352 l 1,10,-1
 1114 1352 l 1,11,-1
 774 686 l 1,0,-1
EndSplineSet
Validated: 1
Position2: "'cpsp' Capital Spacing lookup 3 subtable" dx=10 dy=0 dh=20 dv=0
EndChar

StartChar: Y
Encoding: 89 89 142
Width: 1132
Flags: MW
HStem: 1311 41G<2 451 451 451 793 1116 1116 1116>
VStem: 332 440<0 594 594 594>
LayerCount: 2
Fore
SplineSet
772 0 m 1,0,-1
 332 0 l 1,1,-1
 332 594 l 1,2,-1
 2 1352 l 1,3,-1
 451 1352 l 1,4,-1
 639 817 l 1,5,-1
 793 1352 l 1,6,-1
 1116 1352 l 1,7,-1
 772 612 l 1,8,-1
 772 0 l 1,0,-1
EndSplineSet
Validated: 1
Position2: "'cpsp' Capital Spacing lookup 3 subtable" dx=10 dy=0 dh=20 dv=0
EndChar

StartChar: Yacute
Encoding: 221 221 143
Width: 1132
Flags: MW
HStem: 1311 41G<2 451 451 451 793 1116 1116 1116>
VStem: 332 440<0 594 594 594>
LayerCount: 2
Fore
SplineSet
332 0 m 1,0,-1
 332 594 l 1,1,-1
 2 1352 l 1,2,-1
 451 1352 l 1,3,-1
 639 817 l 1,4,-1
 793 1352 l 1,5,-1
 1116 1352 l 1,6,-1
 772 612 l 1,7,-1
 772 0 l 1,8,-1
 332 0 l 1,0,-1
887 1765 m 1,9,10
 921 1736 921 1736 943 1695 c 128,-1,11
 965 1654 965 1654 965 1614 c 0,12,13
 965 1588 965 1588 955.5 1567 c 128,-1,14
 946 1546 946 1546 934 1532.5 c 128,-1,15
 922 1519 922 1519 897 1508.5 c 128,-1,16
 872 1498 872 1498 855.5 1492.5 c 128,-1,17
 839 1487 839 1487 805 1482.5 c 128,-1,18
 771 1478 771 1478 756 1477 c 128,-1,19
 741 1476 741 1476 705 1473 c 2,20,-1
 406 1452 l 1,21,-1
 381 1556 l 1,22,-1
 887 1765 l 1,9,10
EndSplineSet
Validated: 1
Position2: "'cpsp' Capital Spacing lookup 3 subtable" dx=10 dy=0 dh=20 dv=0
EndChar

StartChar: Ycircumflex
Encoding: 374 374 144
Width: 1132
Flags: MW
HStem: 1311 41G<2 451 451 451 793 1116 1116 1116>
VStem: 332 440<0 594 594 594>
LayerCount: 2
Fore
SplineSet
332 0 m 1,0,-1
 332 594 l 1,1,-1
 2 1352 l 1,2,-1
 451 1352 l 1,3,-1
 639 817 l 1,4,-1
 793 1352 l 1,5,-1
 1116 1352 l 1,6,-1
 772 612 l 1,7,-1
 772 0 l 1,8,-1
 332 0 l 1,0,-1
238 1497 m 1,9,-1
 549 1733 l 1,10,-1
 637 1733 l 1,11,-1
 952 1497 l 1,12,-1
 872 1401 l 1,13,-1
 596 1505 l 1,14,-1
 317 1401 l 1,15,-1
 238 1497 l 1,9,-1
EndSplineSet
Validated: 1
Position2: "'cpsp' Capital Spacing lookup 3 subtable" dx=10 dy=0 dh=20 dv=0
EndChar

StartChar: Ydieresis
Encoding: 376 376 145
Width: 1132
Flags: MW
HStem: 1311 41G<2 451 451 451 793 1116 1116 1116> 1456 328<303 423 774 894>
VStem: 139 444<1566 1670> 332 440<0 594 594 594> 610 444<1566 1670>
LayerCount: 2
Fore
SplineSet
332 0 m 1,0,-1
 332 594 l 1,1,-1
 2 1352 l 1,2,-1
 451 1352 l 1,3,-1
 639 817 l 1,4,-1
 793 1352 l 1,5,-1
 1116 1352 l 1,6,-1
 772 612 l 1,7,-1
 772 0 l 1,8,-1
 332 0 l 1,0,-1
838 1784 m 0,9,10
 936 1784 936 1784 995.5 1740.5 c 128,-1,11
 1055 1697 1055 1697 1055 1620 c 0,12,13
 1055 1541 1055 1541 992.5 1498.5 c 128,-1,14
 930 1456 930 1456 829 1456 c 0,15,16
 731 1456 731 1456 670.5 1498 c 128,-1,17
 610 1540 610 1540 610 1616 c 0,18,19
 610 1695 610 1695 674.5 1739.5 c 128,-1,20
 739 1784 739 1784 838 1784 c 0,9,10
367 1784 m 0,21,22
 465 1784 465 1784 524.5 1740.5 c 128,-1,23
 584 1697 584 1697 584 1620 c 0,24,25
 584 1541 584 1541 521.5 1498.5 c 128,-1,26
 459 1456 459 1456 358 1456 c 0,27,28
 260 1456 260 1456 199.5 1498 c 128,-1,29
 139 1540 139 1540 139 1616 c 0,30,31
 139 1695 139 1695 203.5 1739.5 c 128,-1,32
 268 1784 268 1784 367 1784 c 0,21,22
EndSplineSet
Validated: 8388609
Position2: "'cpsp' Capital Spacing lookup 3 subtable" dx=10 dy=0 dh=20 dv=0
EndChar

StartChar: Ygrave
Encoding: 7922 7922 146
Width: 1132
Flags: MW
HStem: 1311 41G<2 451 451 451 793 1116 1116 1116>
VStem: 332 440<0 594 594 594>
LayerCount: 2
Fore
SplineSet
332 0 m 1,0,-1
 332 594 l 1,1,-1
 2 1352 l 1,2,-1
 451 1352 l 1,3,-1
 639 817 l 1,4,-1
 793 1352 l 1,5,-1
 1116 1352 l 1,6,-1
 772 612 l 1,7,-1
 772 0 l 1,8,-1
 332 0 l 1,0,-1
489 1475 m 2,9,10
 453 1478 453 1478 438 1479 c 128,-1,11
 423 1480 423 1480 389 1484.5 c 128,-1,12
 355 1489 355 1489 338.5 1494.5 c 128,-1,13
 322 1500 322 1500 297 1510.5 c 128,-1,14
 272 1521 272 1521 260 1534.5 c 128,-1,15
 248 1548 248 1548 238.5 1569 c 128,-1,16
 229 1590 229 1590 229 1616 c 0,17,18
 229 1656 229 1656 251 1697 c 128,-1,19
 273 1738 273 1738 307 1767 c 1,20,-1
 813 1559 l 1,21,-1
 788 1454 l 1,22,-1
 489 1475 l 2,9,10
EndSplineSet
Validated: 1
Position2: "'cpsp' Capital Spacing lookup 3 subtable" dx=10 dy=0 dh=20 dv=0
EndChar

StartChar: Ytilde
Encoding: 7928 7928 147
Width: 1132
Flags: MW
HStem: 1311 41G<2 451 451 451 793 1116 1116 1116> 1456 213<770 851 770 856> 1497 213<345 427>
VStem: 332 440<0 594 594 594>
LayerCount: 2
Fore
SplineSet
332 0 m 1,0,-1
 332 594 l 1,1,-1
 2 1352 l 1,2,-1
 451 1352 l 1,3,-1
 639 817 l 1,4,-1
 793 1352 l 1,5,-1
 1116 1352 l 1,6,-1
 772 612 l 1,7,-1
 772 0 l 1,8,-1
 332 0 l 1,0,-1
958 1710 m 1,9,10
 1006 1651 1006 1651 1006 1587 c 0,11,12
 1006 1512 1006 1512 951.5 1484 c 128,-1,13
 897 1456 897 1456 801 1456 c 0,14,15
 745 1456 745 1456 586.5 1476.5 c 128,-1,16
 428 1497 428 1497 369 1497 c 0,17,18
 279 1497 279 1497 238 1456 c 1,19,20
 190 1515 190 1515 190 1579 c 0,21,22
 190 1654 190 1654 244.5 1682 c 128,-1,23
 299 1710 299 1710 395 1710 c 0,24,25
 451 1710 451 1710 610 1689.5 c 128,-1,26
 769 1669 769 1669 827 1669 c 0,27,28
 917 1669 917 1669 958 1710 c 1,9,10
EndSplineSet
Validated: 8388609
Position2: "'cpsp' Capital Spacing lookup 3 subtable" dx=10 dy=0 dh=20 dv=0
EndChar

StartChar: Z
Encoding: 90 90 148
Width: 980
Flags: MW
HStem: 0 184<483 967> 1167 184<55 494 55 948>
VStem: 14 975<156 184>
LayerCount: 2
Fore
SplineSet
963 1196 m 1,0,-1
 483 184 l 1,1,-1
 989 184 l 1,2,-1
 967 0 l 1,3,-1
 29 0 l 1,4,-1
 14 156 l 1,5,-1
 494 1167 l 1,6,-1
 55 1167 l 1,7,-1
 55 1352 l 1,8,-1
 948 1352 l 1,9,-1
 963 1196 l 1,0,-1
EndSplineSet
Validated: 1
Position2: "'cpsp' Capital Spacing lookup 3 subtable" dx=10 dy=0 dh=20 dv=0
EndChar

StartChar: Zacute
Encoding: 377 377 149
Width: 980
Flags: MW
HStem: 0 184<483 967> 1167 184<55 494 55 948>
VStem: 14 975<156 184>
LayerCount: 2
Fore
SplineSet
483 184 m 1,0,-1
 989 184 l 1,1,-1
 967 0 l 1,2,-1
 29 0 l 1,3,-1
 14 156 l 1,4,-1
 494 1167 l 1,5,-1
 55 1167 l 1,6,-1
 55 1352 l 1,7,-1
 948 1352 l 1,8,-1
 963 1196 l 1,9,-1
 483 184 l 1,0,-1
780 1765 m 1,10,11
 814 1736 814 1736 836 1695 c 128,-1,12
 858 1654 858 1654 858 1614 c 0,13,14
 858 1588 858 1588 848.5 1567 c 128,-1,15
 839 1546 839 1546 827 1532.5 c 128,-1,16
 815 1519 815 1519 790 1508.5 c 128,-1,17
 765 1498 765 1498 748.5 1492.5 c 128,-1,18
 732 1487 732 1487 698 1482.5 c 128,-1,19
 664 1478 664 1478 649 1477 c 128,-1,20
 634 1476 634 1476 598 1473 c 2,21,-1
 299 1452 l 1,22,-1
 274 1556 l 1,23,-1
 780 1765 l 1,10,11
EndSplineSet
Validated: 1
Substitution2: "'locl' Localized Forms in Latin lookup 13 subtable" Zacute.loclPLK
Substitution2: "'aalt' Access All Alternates lookup 0 subtable" Zacute.loclPLK
Position2: "'cpsp' Capital Spacing lookup 3 subtable" dx=10 dy=0 dh=20 dv=0
EndChar

StartChar: Zcaron
Encoding: 381 381 150
Width: 980
Flags: MW
HStem: 0 184<483 967> 1167 184<55 494 55 948>
VStem: 14 975<156 184>
LayerCount: 2
Fore
SplineSet
483 184 m 1,0,-1
 989 184 l 1,1,-1
 967 0 l 1,2,-1
 29 0 l 1,3,-1
 14 156 l 1,4,-1
 494 1167 l 1,5,-1
 55 1167 l 1,6,-1
 55 1352 l 1,7,-1
 948 1352 l 1,8,-1
 963 1196 l 1,9,-1
 483 184 l 1,0,-1
844 1661 m 1,10,-1
 555 1423 l 1,11,-1
 424 1423 l 1,12,-1
 127 1661 l 1,13,-1
 209 1755 l 1,14,-1
 485 1649 l 1,15,-1
 764 1755 l 1,16,-1
 844 1661 l 1,10,-1
EndSplineSet
Validated: 1
Position2: "'cpsp' Capital Spacing lookup 3 subtable" dx=10 dy=0 dh=20 dv=0
EndChar

StartChar: Zdotaccent
Encoding: 379 379 151
Width: 980
Flags: MW
HStem: 0 184<483 967> 1167 184<55 494 55 948> 1516 328<440 560>
VStem: 276 444<1625 1730>
LayerCount: 2
Fore
SplineSet
483 184 m 1,0,-1
 989 184 l 1,1,-1
 967 0 l 1,2,-1
 29 0 l 1,3,-1
 14 156 l 1,4,-1
 494 1167 l 1,5,-1
 55 1167 l 1,6,-1
 55 1352 l 1,7,-1
 948 1352 l 1,8,-1
 963 1196 l 1,9,-1
 483 184 l 1,0,-1
504 1843 m 0,10,11
 602 1843 602 1843 661.5 1799.5 c 128,-1,12
 721 1756 721 1756 721 1679 c 0,13,14
 721 1600 721 1600 659 1558 c 128,-1,15
 597 1516 597 1516 496 1516 c 0,16,17
 398 1516 398 1516 337 1557.5 c 128,-1,18
 276 1599 276 1599 276 1675 c 0,19,20
 276 1754 276 1754 340.5 1798.5 c 128,-1,21
 405 1843 405 1843 504 1843 c 0,10,11
EndSplineSet
Validated: 1
Position2: "'cpsp' Capital Spacing lookup 3 subtable" dx=10 dy=0 dh=20 dv=0
EndChar

